<svg width="316" height="185" viewBox="0 0 316 185" fill="none" xmlns="http://www.w3.org/2000/svg">
<path d="M304.543 12.2145C304.543 12.2145 290.328 50.4241 251.113 43.0395C211.898 35.6549 201.852 68.397 201.852 68.397" stroke="#AAC14A" stroke-width="22.449" stroke-linecap="round"/>
<path d="M213.806 68.3428C215.42 62.3574 211.876 56.1969 205.891 54.5829C199.905 52.9689 193.745 56.5125 192.131 62.4979L213.806 68.3428ZM91.0041 118.685L89.575 129.819L111.841 132.677L113.27 121.544L91.0041 118.685ZM202.968 65.4203C192.131 62.4979 192.133 62.4913 192.134 62.4848C192.135 62.4828 192.137 62.4764 192.138 62.4725C192.14 62.4645 192.142 62.4569 192.144 62.4499C192.148 62.4358 192.151 62.4235 192.154 62.4131C192.16 62.3924 192.164 62.3789 192.166 62.3726C192.169 62.36 192.165 62.3756 192.152 62.4174C192.125 62.5014 192.064 62.6888 191.963 62.9642C191.759 63.5175 191.4 64.409 190.845 65.5187C189.727 67.7544 187.873 70.7535 184.997 73.6681C179.577 79.161 169.555 85.3872 150.774 83.9378L149.046 106.32C174.393 108.276 190.9 99.6482 200.977 89.4354C205.85 84.4971 208.987 79.4304 210.922 75.5637C211.893 73.6222 212.576 71.9532 213.034 70.7088C213.263 70.0854 213.437 69.5648 213.563 69.1653C213.625 68.9655 213.677 68.7955 213.717 68.6578C213.737 68.5889 213.754 68.528 213.769 68.4755C213.776 68.4492 213.783 68.4249 213.789 68.4028C213.792 68.3917 213.795 68.3812 213.798 68.3712C213.799 68.3662 213.801 68.3591 213.802 68.3566C213.804 68.3496 213.806 68.3428 202.968 65.4203ZM150.774 83.9378C126.087 82.0328 110.601 88.9969 101.392 98.5576C96.9718 103.146 94.4166 107.915 92.9578 111.605C92.2275 113.452 91.7622 115.053 91.4691 116.267C91.3222 116.875 91.2174 117.391 91.1437 117.798C91.1069 118.002 91.0777 118.179 91.0549 118.328C91.0435 118.402 91.0337 118.469 91.0253 118.529C91.0211 118.558 91.0172 118.586 91.0137 118.613C91.0119 118.626 91.0103 118.638 91.0087 118.65C91.0079 118.656 91.0067 118.665 91.0063 118.668C91.0052 118.677 91.0041 118.685 102.137 120.115C113.27 121.544 113.269 121.552 113.268 121.56C113.268 121.563 113.267 121.571 113.266 121.576C113.265 121.586 113.264 121.596 113.262 121.606C113.26 121.625 113.257 121.643 113.255 121.659C113.25 121.692 113.246 121.718 113.243 121.739C113.237 121.78 113.234 121.798 113.234 121.795C113.236 121.788 113.252 121.697 113.291 121.536C113.37 121.21 113.534 120.619 113.835 119.858C114.438 118.332 115.552 116.216 117.559 114.132C121.204 110.349 129.605 104.82 149.046 106.32L150.774 83.9378Z" fill="#AAC14A"/>
<ellipse cx="34.9175" cy="154.704" rx="8.95087" ry="10.5783" transform="rotate(37.966 34.9175 154.704)" fill="#6069B5"/>
<ellipse cx="35.97" cy="155.674" rx="7.78107" ry="10.5783" transform="rotate(37.966 35.97 155.674)" fill="#6A73C8"/>
<ellipse cx="36.5475" cy="156.383" rx="5.74488" ry="8.94895" transform="rotate(37.966 36.5475 156.383)" fill="#003B95"/>
<ellipse cx="65.8673" cy="168.648" rx="8.95087" ry="10.5783" transform="rotate(37.966 65.8673 168.648)" fill="#6069B5"/>
<ellipse cx="66.9186" cy="169.618" rx="7.57164" ry="10.5783" transform="rotate(37.966 66.9186 169.618)" fill="#6A73C8"/>
<ellipse cx="67.4962" cy="170.327" rx="5.74488" ry="8.94895" transform="rotate(37.966 67.4962 170.327)" fill="#003B95"/>
<ellipse cx="109.379" cy="142.583" rx="8.95087" ry="10.5783" transform="rotate(37.966 109.379 142.583)" fill="#5B77BE"/>
<ellipse cx="110.432" cy="143.553" rx="7.76472" ry="10.5783" transform="rotate(37.966 110.432 143.553)" fill="#6A73C8"/>
<ellipse cx="111.009" cy="144.263" rx="5.74488" ry="8.94895" transform="rotate(37.966 111.009 144.263)" fill="#003B95"/>
<path d="M94.838 119.68L113.695 84.9883M116.019 85.5342L129.49 78.2299C131.217 77.2938 131.255 74.8297 129.559 73.8404L115.553 65.6731C113.841 64.6745 111.699 65.9543 111.768 67.9354L112.301 83.4071C112.366 85.2767 114.374 86.4259 116.019 85.5342Z" stroke="#3F5AB7" stroke-width="4.19733" stroke-linejoin="round"/>
<g filter="url(#filter0_d_1912_4580)">
<path d="M23.9291 153.617C23.1596 153.198 22.7138 152.649 22.6487 152.042L22.0939 146.871C21.9949 145.947 22.7837 144.969 24.2393 144.21L76.6326 116.904C79.0744 115.631 82.7614 115.284 85.2054 116.096L116.934 126.647C118.222 127.075 118.997 127.776 119.084 128.592L119.628 133.663C119.712 134.444 119.161 135.27 118.089 135.971L65.784 170.15C63.1028 171.902 58.21 172.286 55.7359 170.939L23.9291 153.617Z" fill="#6277C0"/>
</g>
<path d="M22.886 148.985C20.8898 147.998 20.9692 146.295 23.0733 144.967L75.6405 111.78C78.2798 110.114 82.9429 109.726 85.4469 110.965L118.101 127.116C120.097 128.103 120.017 129.806 117.913 131.134L65.3461 164.321C62.7067 165.987 58.0436 166.375 55.5396 165.136L22.886 148.985Z" fill="#8498DE"/>
<path d="M126.89 123.611C128.731 122.618 134.182 118.533 135.983 115.897L140.677 115.707C140.788 118.458 143.26 121.226 139.997 122.164C135.35 123.499 132.244 126.13 128.879 126.286C125.513 126.443 125.049 124.604 126.89 123.611Z" fill="#C7EEF7"/>
<path d="M152.518 116.418C154.808 114.246 153.823 112.506 154.047 110.116L157.793 109.371C158.868 111.14 161.965 112.521 160.16 114.327C157.59 116.898 160.279 117.294 155.1 119.285C152.672 120.219 150.229 118.591 152.518 116.418Z" fill="#C7EEF7"/>
<path d="M158.382 109.058L152.79 113.121L137.714 88.1498L134.321 65.5492L133.17 57.1081L146.983 58.259L145.931 69.9129L147.929 87.7376L158.382 109.058Z" fill="#3268C7"/>
<path d="M140.788 116.803L134.404 117.06L134.444 86.3636L137.27 69.3864L137.27 61.31L146.599 57.1081C146.599 57.1081 149.668 63.631 149.284 68.6191C148.901 73.6072 142.873 89.2209 142.873 89.2209L140.788 116.803Z" fill="#3F7DEA"/>
<path d="M113.9 65.1616L115.52 62.4799L127.031 53.6548L134.705 35.6209" stroke="#A76831" stroke-width="4.11837" stroke-linecap="round"/>
<path d="M131.334 33.3566C131.777 32.3785 132.326 31.7904 132.898 31.4956C133.47 31.2017 134.075 31.1944 134.644 31.3967C135.787 31.8033 136.782 33.0573 137.01 34.5114C137.241 35.9845 137.284 38.7566 137.269 41.1676C137.261 42.3715 137.239 43.483 137.219 44.2935C137.208 44.6987 137.199 45.0287 137.192 45.2573C137.188 45.3716 137.185 45.4606 137.183 45.521L137.182 45.5491C133.063 46.8736 129.895 45.892 126.005 44.3969L126.118 44.1712C126.219 43.9676 126.366 43.6722 126.548 43.3053C126.911 42.5717 127.414 41.5521 127.974 40.4087C129.092 38.1223 130.436 35.3394 131.334 33.3566Z" fill="#9BDCF1" stroke="#E6F3F7" stroke-width="0.182884"/>
<path d="M147.427 34.2064C139.064 29.359 134.323 31.1829 134.323 31.1829C134.323 31.1829 131.917 37.5656 130.868 41.7601C130.868 43.8573 131.636 45.9808 132.019 47.5156C132.787 54.0385 132.925 58.0974 132.925 58.0974C132.925 58.0974 144.11 60.5442 146.207 57.0488C147.427 52.1553 148.654 49.0094 147.427 34.2064Z" fill="#C7EEF7"/>
<path d="M137.374 31.7193L137.736 25.9801L140.965 25.5436L141.28 30.6853C140.945 33.0691 137.413 32.7016 137.374 31.7193Z" fill="#A76831"/>
<path d="M143.57 18.8943C143.151 25.6184 140.479 26.8538 137.977 28.2341C131.619 29.1298 130.774 24.0482 130.697 22.1328C129.06 13.2462 128.022 14.0427 133.51 12.4254C138.999 10.8081 143.989 12.1703 143.57 18.8943Z" fill="#C88B54"/>
<path d="M137.633 17.1414C137.25 18.6762 136.866 19.8274 138.017 21.3621C125.739 25.9665 127.164 13.4715 131.639 11.3971C133.687 7.71604 142.621 9.0835 144.156 14.0717C149.528 4.86299 157.202 24.0479 146.458 20.9783C146.458 24.0479 143.773 27.5013 141.359 25.3662C143.66 18.8433 140.242 20.5979 140.319 22.5132C138.017 21.3621 137.633 19.0598 137.633 17.1414Z" fill="#824E00"/>
<path d="M124.555 71.6762L125.879 68.2353L141.227 56.7244L146.481 35.9988" stroke="#C88A54" stroke-width="4.11837" stroke-linecap="round"/>
<path d="M142.072 34.1338C142.332 33.7078 142.858 33.3021 143.535 33.0064C144.21 32.7116 145.026 32.5306 145.856 32.5464C146.684 32.5622 147.523 32.7744 148.248 33.2625C148.972 33.75 149.587 34.5163 149.965 35.6499C150.728 37.9372 150.913 40.9942 150.907 43.4864C150.904 44.7311 150.853 45.8323 150.803 46.6222C150.778 47.0172 150.753 47.3343 150.734 47.5525C150.725 47.6616 150.717 47.746 150.712 47.8031L150.708 47.8386C147.097 49.5464 144.644 48.9371 141.097 48.0564C140.797 47.9819 140.489 47.9055 140.173 47.8284L140.177 47.7701C140.183 47.6817 140.192 47.5517 140.205 47.3857C140.229 47.0537 140.266 46.5774 140.313 46.0001C140.408 44.8456 140.545 43.2878 140.716 41.6741C140.888 40.0602 141.093 38.3917 141.324 37.0154C141.439 36.3272 141.56 35.7134 141.687 35.2166C141.814 34.7171 141.943 34.345 142.072 34.1338Z" fill="#BBE9F8" stroke="#ECFAFF" stroke-width="0.182884"/>
<path d="M73.5255 96.3934C71.905 94.954 69.3767 95.3327 68.2489 97.1836C67.4448 98.5033 65.9561 99.2461 64.4181 99.095C62.261 98.8831 60.4382 100.676 60.6137 102.836C60.7389 104.376 59.9711 105.852 58.638 106.634C56.7684 107.73 56.3472 110.252 57.759 111.897C58.7657 113.069 59.0121 114.714 58.3931 116.131C57.525 118.117 58.6664 120.404 60.7753 120.905C62.2789 121.262 63.4454 122.448 63.7769 123.957C64.242 126.074 66.5099 127.254 68.5103 126.42C69.9366 125.825 71.5776 126.099 72.733 127.125C74.3536 128.564 76.8818 128.186 78.0096 126.335C78.8138 125.015 80.3024 124.272 81.8404 124.423C83.9975 124.635 85.8204 122.843 85.6448 120.682C85.5197 119.142 86.2874 117.666 87.6205 116.884C89.4902 115.788 89.9113 113.266 88.4995 111.622C87.4929 110.449 87.2464 108.804 87.8654 107.388C88.7335 105.402 87.5921 103.114 85.4833 102.614C83.9797 102.257 82.8132 101.07 82.4816 99.5609C82.0166 97.4439 79.7486 96.2641 77.7482 97.0987C76.322 97.6937 74.681 97.4196 73.5255 96.3934Z" fill="#A5EFBA" stroke="#31B746" stroke-width="0.549115"/>
<path d="M97.8963 106.369C96.2757 104.93 93.7474 105.309 92.6196 107.16C91.8155 108.479 90.3268 109.222 88.7888 109.071C86.6317 108.859 84.8089 110.652 84.9844 112.812C85.1096 114.352 84.3418 115.828 83.0088 116.61C81.1391 117.707 80.7179 120.228 82.1298 121.873C83.1364 123.045 83.3828 124.691 82.7639 126.107C81.8957 128.093 83.0371 130.38 85.146 130.881C86.6496 131.238 87.8161 132.424 88.1477 133.933C88.6127 136.05 90.8807 137.23 92.881 136.396C94.3073 135.801 95.9483 136.075 97.1037 137.101C98.7243 138.54 101.253 138.162 102.38 136.311C103.184 134.991 104.673 134.248 106.211 134.399C108.368 134.611 110.191 132.819 110.016 130.658C109.89 129.118 110.658 127.642 111.991 126.86C113.861 125.764 114.282 123.242 112.87 121.598C111.864 120.425 111.617 118.78 112.236 117.364C113.104 115.378 111.963 113.09 109.854 112.59C108.35 112.233 107.184 111.046 106.852 109.537C106.387 107.42 104.119 106.24 102.119 107.075C100.693 107.67 99.0517 107.396 97.8963 106.369Z" fill="#A5EFBA" stroke="#31B746" stroke-width="0.549115"/>
<ellipse cx="9.4506" cy="18.0421" rx="9.4506" ry="18.0421" transform="matrix(-1 0 0 1 73.1052 83.4599)" fill="#60D180"/>
<path d="M63.6545 101.472L63.6545 128.965" stroke="#3D7224" stroke-width="1.22953" stroke-linecap="round"/>
<path d="M57.641 105.768L63.655 116.937" stroke="#3D7224" stroke-width="1.22953" stroke-linecap="round"/>
<path d="M67.9506 106.627L63.6548 112.641" stroke="#3D7224" stroke-width="1.22953" stroke-linecap="round"/>
<ellipse cx="10.1776" cy="19.4299" rx="10.1776" ry="19.4299" transform="matrix(-1 0 0 1 94.9143 90.7298)" fill="#60D180"/>
<path d="M85.6611 108.277L85.6611 137.884" stroke="#3D7224" stroke-width="1.32411" stroke-linecap="round"/>
<path d="M79.1853 112.903L85.6619 124.931" stroke="#3D7224" stroke-width="1.32411" stroke-linecap="round"/>
<path d="M90.2878 113.828L85.6617 120.304" stroke="#3D7224" stroke-width="1.32411" stroke-linecap="round"/>
<circle cx="4.81083" cy="4.81083" r="4.81083" transform="matrix(0.999575 0.0291664 0.0291664 -0.999575 51.9722 159.081)" fill="#FF8383"/>
<circle cx="4.81083" cy="4.81083" r="4.81083" transform="matrix(0.999575 0.0291664 0.0291664 -0.999575 65.0138 151.975)" fill="#FF8383"/>
<circle cx="4.81083" cy="4.81083" r="4.81083" transform="matrix(0.999575 0.0291664 0.0291664 -0.999575 65.3878 139.151)" fill="#FF8383"/>
<circle cx="4.81083" cy="4.81083" r="4.81083" transform="matrix(0.999575 0.0291664 0.0291664 -0.999575 51.6827 132.334)" fill="#FF8383"/>
<circle cx="4.81083" cy="4.81083" r="4.81083" transform="matrix(0.999575 0.0291664 0.0291664 -0.999575 38.4854 144.783)" fill="#FF8383"/>
<circle cx="4.81083" cy="4.81083" r="4.81083" transform="matrix(0.999575 0.0291664 0.0291664 -0.999575 51.3087 145.157)" fill="#FF8383"/>
<defs>
<filter id="filter0_d_1912_4580" x="21.3614" y="115.659" width="98.9995" height="57.5378" filterUnits="userSpaceOnUse" color-interpolation-filters="sRGB">
<feFlood flood-opacity="0" result="BackgroundImageFix"/>
<feColorMatrix in="SourceAlpha" type="matrix" values="0 0 0 0 0 0 0 0 0 0 0 0 0 0 0 0 0 0 127 0" result="hardAlpha"/>
<feOffset dy="0.724163"/>
<feGaussianBlur stdDeviation="0.362081"/>
<feComposite in2="hardAlpha" operator="out"/>
<feColorMatrix type="matrix" values="0 0 0 0 0.5 0 0 0 0 0.312 0 0 0 0 0.3 0 0 0 0.26 0"/>
<feBlend mode="normal" in2="BackgroundImageFix" result="effect1_dropShadow_1912_4580"/>
<feBlend mode="normal" in="SourceGraphic" in2="effect1_dropShadow_1912_4580" result="shape"/>
</filter>
</defs>
</svg>
