<svg width="334" height="220" viewBox="0 0 334 220" fill="none" xmlns="http://www.w3.org/2000/svg">
<path d="M11 11C11 11 24.0729 67.3775 69.1529 57.6252C114.233 47.873 119.481 87.3873 119.481 87.3873" stroke="#AAC14A" stroke-width="20.7932" stroke-linecap="round"/>
<path d="M108.22 86.2695C106.908 80.6796 110.376 75.0843 115.966 73.7722C121.556 72.46 127.151 75.9279 128.463 81.5178L108.22 86.2695ZM231.689 146.934L232.844 157.266L212.179 159.575L211.025 149.243L231.689 146.934ZM118.342 83.8937C128.463 81.5178 128.462 81.5124 128.461 81.5072C128.461 81.5056 128.459 81.5005 128.459 81.4974C128.457 81.4911 128.456 81.4854 128.455 81.4803C128.452 81.47 128.45 81.4619 128.449 81.4561C128.446 81.4443 128.445 81.4414 128.446 81.4469C128.449 81.4579 128.461 81.5026 128.482 81.5786C128.523 81.7309 128.602 82.0069 128.724 82.3878C128.969 83.1524 129.381 84.3226 130.004 85.7527C131.261 88.6397 133.305 92.4196 136.426 96.0531C142.346 102.946 152.709 110.084 171.631 108.407L173.467 129.119C147.306 131.438 130.565 121.142 120.652 109.601C115.857 104.018 112.802 98.3309 110.94 94.0554C110.003 91.9043 109.35 90.0693 108.92 88.724C108.704 88.05 108.543 87.4949 108.429 87.0797C108.372 86.8721 108.327 86.699 108.293 86.5632C108.275 86.4953 108.261 86.4367 108.249 86.3876C108.243 86.3631 108.237 86.341 108.233 86.3213C108.23 86.3114 108.228 86.3022 108.226 86.2935C108.225 86.2892 108.224 86.2832 108.223 86.2811C108.222 86.2752 108.22 86.2695 118.342 83.8937ZM171.631 108.407C197.134 106.146 212.817 114.503 221.826 125.247C226.114 130.36 228.54 135.604 229.901 139.561C230.586 141.551 231.017 143.258 231.283 144.526C231.417 145.161 231.51 145.692 231.574 146.098C231.606 146.301 231.631 146.474 231.65 146.614C231.659 146.684 231.667 146.746 231.673 146.799C231.677 146.826 231.68 146.85 231.682 146.873C231.683 146.884 231.685 146.895 231.686 146.905C231.686 146.91 231.687 146.917 231.688 146.92C231.688 146.927 231.689 146.934 221.357 148.088C211.025 149.243 211.025 149.249 211.026 149.256C211.026 149.258 211.027 149.264 211.027 149.269C211.028 149.277 211.029 149.284 211.03 149.292C211.032 149.306 211.033 149.318 211.035 149.329C211.037 149.351 211.039 149.365 211.04 149.372C211.042 149.386 211.04 149.372 211.034 149.332C211.021 149.252 210.991 149.07 210.934 148.803C210.821 148.264 210.609 147.399 210.24 146.327C209.495 144.161 208.172 141.325 205.893 138.607C201.769 133.689 193.049 127.383 173.467 129.119L171.631 108.407Z" fill="#AAC14A"/>
<ellipse cx="9.46774" cy="11.1576" rx="9.46774" ry="11.1576" transform="matrix(-0.794031 0.609001 0.621359 0.782647 297.631 173.379)" fill="#6069B5"/>
<ellipse cx="8.23039" cy="11.1576" rx="8.23039" ry="11.1576" transform="matrix(-0.794031 0.609001 0.621359 0.782647 295.53 175.149)" fill="#6A73C8"/>
<ellipse cx="6.07662" cy="9.43901" rx="6.07662" ry="9.43901" transform="matrix(-0.794031 0.609001 0.621359 0.782647 294.271 178.548)" fill="#003B95"/>
<ellipse cx="9.46774" cy="11.1576" rx="9.46774" ry="11.1576" transform="matrix(-0.794031 0.609001 0.621359 0.782647 264.662 187.98)" fill="#6069B5"/>
<ellipse cx="8.00886" cy="11.1576" rx="8.00886" ry="11.1576" transform="matrix(-0.794031 0.609001 0.621359 0.782647 262.386 189.884)" fill="#6A73C8"/>
<ellipse cx="6.07662" cy="9.43901" rx="6.07662" ry="9.43901" transform="matrix(-0.794031 0.609001 0.621359 0.782647 261.301 193.149)" fill="#003B95"/>
<ellipse cx="9.46774" cy="11.1576" rx="9.46774" ry="11.1576" transform="matrix(-0.794031 0.609001 0.621359 0.782647 218.306 160.688)" fill="#5B77BE"/>
<ellipse cx="8.2131" cy="11.1576" rx="8.2131" ry="11.1576" transform="matrix(-0.794031 0.609001 0.621359 0.782647 216.19 162.468)" fill="#6A73C8"/>
<ellipse cx="6.07662" cy="9.43901" rx="6.07662" ry="9.43901" transform="matrix(-0.794031 0.609001 0.621359 0.782647 214.946 165.857)" fill="#003B95"/>
<path d="M233.218 151.204L213.129 114.879M211.168 115.725L195.833 107.552C194.214 106.689 194.176 104.383 195.766 103.471L211.709 94.3334C213.296 93.4238 215.267 94.6133 215.203 96.4418L214.595 113.752C214.535 115.474 212.691 116.536 211.168 115.725Z" stroke="#3F5AB7" stroke-width="3.88773" stroke-linejoin="round"/>
<g filter="url(#filter0_d_1912_4636)">
<path d="M308.923 186.652C309.636 186.27 310.049 185.77 310.11 185.216L310.736 179.483C310.828 178.638 310.093 177.742 308.737 177.048L252.033 148C249.762 146.837 246.337 146.518 244.069 147.26L209.399 158.59C208.205 158.98 207.488 159.619 207.406 160.364L206.79 166.007C206.712 166.722 207.226 167.478 208.225 168.119L264.878 204.506C267.372 206.108 271.916 206.461 274.212 205.232L308.923 186.652Z" fill="#6277C0"/>
</g>
<path d="M310.342 181.66C312.196 180.759 312.119 179.203 310.162 177.988L252.986 142.51C250.532 140.987 246.2 140.63 243.876 141.76L207.96 159.221C206.107 160.122 206.183 161.678 208.141 162.893L265.316 198.371C267.771 199.894 272.102 200.251 274.426 199.121L310.342 181.66Z" fill="#8498DE"/>
<path d="M198.209 156.571C196.248 155.531 190.441 151.253 188.522 148.493L183.521 148.295C183.403 151.175 180.769 154.073 184.246 155.055C189.197 156.454 192.505 159.208 196.091 159.372C199.676 159.536 200.17 157.61 198.209 156.571Z" fill="#7AB0BE"/>
<path d="M170.907 149.039C168.468 146.764 169.517 144.943 169.278 142.441L165.288 141.66C164.143 143.513 160.844 144.959 162.766 146.849C165.504 149.541 162.639 149.956 168.156 152.041C170.744 153.019 173.346 151.314 170.907 149.039Z" fill="#7AB0BE"/>
<path d="M164.659 141.333L170.615 145.587L186.676 119.44L191.037 96.1769L191.964 90.1872L174.143 92.8285L177.922 100.344L175.794 119.008L164.659 141.333Z" fill="#3268C7"/>
<path d="M183.402 149.442L190.204 149.711L190.161 117.569L186.931 96.6835L187.15 91.3355L174.227 90.823L174.496 100.878L181.182 120.561L183.402 149.442Z" fill="#3F7DEA"/>
<path d="M212.046 95.3683L210.35 90.3763L197.232 74.1746L191.076 62.029" stroke="#62360F" stroke-width="4.23485" stroke-linecap="round"/>
<path d="M195.885 58.2015C195.153 57.3069 193.705 57.2554 192.344 57.8745C190.99 58.4905 189.764 59.7557 189.498 61.4249C189.227 63.12 189.177 66.308 189.195 69.0789C189.204 70.4628 189.23 71.7405 189.253 72.6722C189.265 73.138 189.276 73.5173 189.285 73.7802C189.289 73.9116 189.292 74.0139 189.295 74.0833L189.296 74.1295C190.494 74.5077 191.459 74.6231 192.302 74.5589C193.158 74.4938 193.893 74.2432 194.623 73.8876C195.15 73.6309 195.67 73.3213 196.232 72.9872C196.451 72.8567 196.677 72.7224 196.912 72.5861C197.729 72.1117 198.65 71.6171 199.781 71.1831L199.769 71.1278C199.751 71.0453 199.725 70.9241 199.69 70.7691C199.622 70.4592 199.523 70.0142 199.399 69.4744C199.151 68.3947 198.804 66.9357 198.41 65.4181C198.015 63.9003 197.573 62.3252 197.133 61.0127C196.913 60.3564 196.695 59.767 196.483 59.2838C196.272 58.7989 196.07 58.4271 195.885 58.2015Z" fill="#E5F2F5" stroke="#E6F3F7" stroke-width="0.169394"/>
<path d="M175.377 61.8856C185.157 56.3139 188.62 56.0353 193.66 57.1407C197.201 64.392 192.27 90.9992 192.27 90.9992C192.27 90.9992 180.576 95.4583 174.009 95.1979C173.379 81.1942 171.031 74.2941 175.377 61.8856Z" fill="white"/>
<path d="M188.816 59.0358L188.43 53.0263L184.99 52.5693L184.654 57.9532C185.011 60.4492 188.773 60.0644 188.816 59.0358Z" fill="#62360F"/>
<path d="M182.215 45.6072C182.662 52.6479 183.626 52.6861 188.174 55.3868C194.947 56.3247 195.847 51.0037 195.929 48.9982C197.673 39.693 198.779 40.527 192.932 38.8335C187.085 37.1401 181.769 38.5664 182.215 45.6072Z" fill="#9D612C"/>
<path d="M195.928 43.473C197.456 45.0734 202.294 44.3845 200.037 37.2262C197.592 38.7555 196.043 38.147 194.927 37.7567C189.554 35.8784 185.543 35.0506 184.753 37.6976C180.727 36.1987 177.3 47.814 181.283 49.4772C181.923 49.7443 182.432 50.0234 182.834 50.3079C182.851 51.2993 183.07 52.6104 183.592 54.266C184.092 53.4299 184.933 51.7951 182.834 50.3079C182.776 47.0128 184.94 47.2491 185.563 50.1076C187.027 44.0661 194.026 40.0492 195.928 43.473Z" fill="#331F0C"/>
<path d="M200.695 102.19L197.514 96.7073L179.454 79.6475L177.337 64.8325" stroke="#9D612C" stroke-width="4.23485" stroke-linecap="round"/>
<path d="M180.805 61.6694C180.196 60.6891 178.768 60.4539 177.337 60.8946C175.913 61.3332 174.53 62.4318 174.046 64.0531C173.555 65.6995 173.085 68.8542 172.738 71.6041C172.565 72.9776 172.422 74.2478 172.323 75.1746C172.273 75.638 172.235 76.0156 172.208 76.2773C172.195 76.4081 172.185 76.5099 172.178 76.5791L172.174 76.6251C173.312 77.1525 174.254 77.3897 175.098 77.4333C175.955 77.4776 176.717 77.3227 177.488 77.0629C178.044 76.8753 178.6 76.6345 179.201 76.3748C179.436 76.2732 179.678 76.1688 179.929 76.0635C180.801 75.6971 181.779 75.3237 182.958 75.0373L182.954 74.9809C182.947 74.8969 182.936 74.7733 182.923 74.6153C182.896 74.2993 182.856 73.8454 182.804 73.2944C182.701 72.1922 182.549 70.7014 182.358 69.1464C182.166 67.5912 181.935 65.973 181.672 64.6156C181.54 63.9369 181.401 63.3246 181.255 62.8186C181.109 62.3109 180.958 61.9165 180.805 61.6694Z" fill="#F1FCFF" stroke="#ECFAFF" stroke-width="0.169394"/>
<ellipse cx="11.8536" cy="20.4914" rx="11.8536" ry="20.4914" transform="matrix(-1.00006 -7.99148e-10 2.54657e-09 0.999943 266.75 110.639)" fill="#379993"/>
<ellipse cx="12.2623" cy="20.4914" rx="12.2623" ry="20.4914" transform="matrix(-1.00006 -7.99148e-10 2.54657e-09 0.999943 286.371 118.674)" fill="#379993"/>
<ellipse cx="11.8536" cy="20.0897" rx="11.8536" ry="20.0897" transform="matrix(-1.00006 -7.99148e-10 2.54657e-09 0.999943 303.539 129.12)" fill="#379993"/>
<path d="M291.271 178.939L291.271 158.851" stroke="#13625D" stroke-width="1.01723" stroke-linecap="round"/>
<path d="M271.651 168.492L271.651 148.405" stroke="#13625D" stroke-width="1.01723" stroke-linecap="round"/>
<path d="M254.48 158.047L254.48 137.959" stroke="#13625D" stroke-width="1.01723" stroke-linecap="round"/>
<ellipse cx="11.8536" cy="20.0897" rx="11.8536" ry="20.0897" transform="matrix(-1.00006 -7.99148e-10 2.54657e-09 0.999943 247.128 117.067)" fill="#4BB6AF"/>
<ellipse cx="12.2623" cy="20.0897" rx="12.2623" ry="20.0897" transform="matrix(-1.00006 -7.99148e-10 2.54657e-09 0.999943 265.114 125.102)" fill="#4BB6AF"/>
<ellipse cx="11.8536" cy="20.4914" rx="11.8536" ry="20.4914" transform="matrix(-1.00006 -7.99148e-10 2.54657e-09 0.999943 283.915 134.745)" fill="#4BB6AF"/>
<path d="M271.649 186.17L271.649 166.083" stroke="#13625D" stroke-width="1.01723" stroke-linecap="round"/>
<path d="M252.029 175.724L252.029 155.637" stroke="#13625D" stroke-width="1.01723" stroke-linecap="round"/>
<path d="M234.86 165.278L234.86 145.191" stroke="#13625D" stroke-width="1.01723" stroke-linecap="round"/>
<defs>
<filter id="filter0_d_1912_4636" x="206.112" y="146.861" width="105.302" height="60.4496" filterUnits="userSpaceOnUse" color-interpolation-filters="sRGB">
<feFlood flood-opacity="0" result="BackgroundImageFix"/>
<feColorMatrix in="SourceAlpha" type="matrix" values="0 0 0 0 0 0 0 0 0 0 0 0 0 0 0 0 0 0 127 0" result="hardAlpha"/>
<feOffset dy="0.670748"/>
<feGaussianBlur stdDeviation="0.335374"/>
<feComposite in2="hardAlpha" operator="out"/>
<feColorMatrix type="matrix" values="0 0 0 0 0.5 0 0 0 0 0.312 0 0 0 0 0.3 0 0 0 0.26 0"/>
<feBlend mode="normal" in2="BackgroundImageFix" result="effect1_dropShadow_1912_4636"/>
<feBlend mode="normal" in="SourceGraphic" in2="effect1_dropShadow_1912_4636" result="shape"/>
</filter>
</defs>
</svg>
