<svg width="207" height="113" viewBox="0 0 207 113" fill="none" xmlns="http://www.w3.org/2000/svg">
<path d="M184.77 11.077C186.944 3.38184 181.382 -6.43659 171.877 10.7607C171.877 -4.52411 164.637 -1.27139 163.572 6.64963C151.205 0.0538034 147.637 5.68589 157.171 16.4229C140.636 21.3171 137.922 28.2442 159.165 27.943C156.991 35.6382 162.493 39.3427 168.894 34.3732C174.111 45.0048 183.496 51.5555 180.363 32.3704C191.606 34.313 206.252 28.0936 186.764 22.5971C196.583 17.0554 199.446 8.12541 184.77 11.077Z" fill="#047602"/>
<path d="M125.293 57.5425L110.692 75.5358C110.121 76.249 108.959 76.0248 108.673 75.169C96.7236 39.1214 117.646 33.4768 118.89 45.3772C118.89 45.5198 119.094 45.5198 119.114 45.3772C123.601 21.0874 154.678 36.778 141.22 56.2791C141.158 56.3606 141.22 56.4625 141.322 56.4625C151.191 55.8308 155.739 73.0904 116.81 82.3825C115.852 82.6067 115.056 81.6082 115.484 80.732L126.496 58.3372C126.884 57.5425 125.823 56.87 125.252 57.5425H125.293Z" fill="#169F91"/>
<path d="M87.5941 49.9152C82.5839 59.1891 72.2484 58.5918 62.9746 53.5816C53.7007 48.5714 53.1201 40.4258 58.1303 31.152C63.1405 21.8782 73.8742 21.7454 83.1314 26.7556C92.4052 31.7658 92.6043 40.6414 87.5941 49.9152Z" fill="#F5BB25"/>
<path d="M87.2127 29.7916C99.0082 39.8949 90.7961 49.318 79.1665 39.0156C69.0632 50.8111 59.6401 42.5991 69.9425 30.9695C58.147 20.8662 66.3591 11.4431 77.9887 21.7454C88.092 9.94995 97.5151 18.162 87.2127 29.7916Z" fill="#6B9E1C"/>
<path d="M49.4857 62.9667C55.1265 64.9591 55.7054 70.8154 53.6995 76.4562C51.7071 82.097 47.1836 83.1471 41.5428 81.1546C35.902 79.1622 34.8788 73.1444 36.8847 67.5036C38.8907 61.8627 43.8449 60.9742 49.4857 62.9667Z" fill="#F24A9A"/>
<path d="M40.5736 74.4098C35.579 72.4039 28.74 85.9607 32.6306 73.0905C34.9731 66.0765 23.88 62.0512 21.4567 67.3824C5.77279 50.8099 3.28221 85.5434 19.3835 77.2774C21.0124 82.1239 23.5703 84.6145 28.188 81.7739C28.188 81.7739 24.7281 89.3129 19.5181 86.6473C8.22298 80.8719 3.61877 84.5472 6.19013 89.1379C-4.94343 90.5649 0.360828 104.135 10.902 99.2079C14.6581 105.482 19.3835 101.9 20.5412 94.2806C20.8105 92.5305 29.817 87.2801 29.7766 85.853C30.3016 87.8724 31.2575 90.4438 27.7572 91.9381C24.2569 93.4325 18.3603 101.133 24.1358 99.9484C19.6931 115.215 40.8294 117.8 36.1848 101.173C42.1891 100.541 39.7793 89.8649 34.7847 87.8589C29.79 85.853 42.4449 75.1368 40.5736 74.3829V74.4098Z" fill="#6B9E1C"/>
<path d="M39.3142 24.3138C33.317 37.3957 -6.92312 30.1711 13.9582 8.77703C34.8396 -12.6171 45.3114 11.2474 39.3142 24.3138Z" fill="#F25E5A"/>
<path d="M23.451 8.34193C30.862 14.945 24.9581 20.2897 17.6558 13.5934C10.3535 20.3052 4.43406 14.945 11.8606 8.34193C4.44959 1.73882 10.3535 -3.60577 17.6558 3.09056C24.9581 -3.62131 30.8776 1.73882 23.451 8.34193Z" fill="#169F91"/>
<path d="M204.157 89.5886C202.036 87.1523 197.74 83.4051 200.391 77.4996C203.719 70.1112 195.022 62.4579 186.934 67.7675C184.971 69.0519 182.505 69.224 180.304 68.4031C178.647 67.794 177.096 67.5424 175.651 67.5822C170.824 67.1717 166.78 69.7404 167.072 76.4006C167.178 78.7443 166.051 80.9423 164.221 82.412C158.162 87.2714 158.679 94.064 165.428 98.1025C167.298 99.2677 172.588 97.9569 173.344 101.254C176.221 108.828 183.699 113.422 189.387 105.584C190.766 103.69 193.006 102.657 195.353 102.644C203.123 102.591 209.328 95.5205 204.157 89.5886ZM183.182 93.9713C179.018 92.581 176.565 90.4228 176.565 86.04C176.565 81.6573 180.119 80.7569 184.507 80.7569C188.896 80.7569 190.262 83.074 191.124 87.3641C192.144 92.4354 187.159 95.2954 183.182 93.9713Z" fill="#F25E5A"/>
<path d="M86.4249 71.4341C78.3149 68.3801 78.5644 75.9202 80.4595 80.2208C78.3068 79.0747 70.7481 72.4012 69.0718 80.9021C67.3956 89.4031 75.6871 85.7085 78.6653 86.0095C77.2293 88.0014 68.1784 93.3126 77.3595 96.4739C86.5405 99.6352 83.7791 91.1673 84.5456 88.4174C88.7479 89.7448 92.762 96.565 96.0725 88.5327C99.383 80.5004 90.8737 81.6705 86.0635 82.2408C90.0073 78.1584 94.6702 74.5391 86.4249 71.4341Z" fill="#78B1EC"/>
</svg>
