<svg width="208" height="135" viewBox="0 0 208 135" fill="none" xmlns="http://www.w3.org/2000/svg">
<path d="M196.178 34.6084C196.178 34.6084 189.273 62.0924 165.462 57.3382C141.651 52.584 138.879 71.8472 138.879 71.8472" stroke="#AAC14A" stroke-width="17.4479" stroke-linecap="round"/>
<path d="M146.739 75.7459C148.076 71.1171 145.408 66.2806 140.779 64.9433C136.15 63.606 131.314 66.2743 129.976 70.9031L146.739 75.7459ZM71.032 101.846L69.8434 110.489L87.1286 112.866L88.3172 104.224L71.032 101.846ZM138.357 73.3245C129.976 70.9031 129.978 70.8976 129.979 70.8922C129.98 70.8905 129.981 70.8852 129.982 70.8818C129.984 70.875 129.986 70.8684 129.988 70.862C129.992 70.8493 129.995 70.8377 129.999 70.827C130.005 70.8055 130.01 70.788 130.015 70.7742C130.023 70.7466 130.028 70.734 130.027 70.7351C130.026 70.7376 130.007 70.7944 129.967 70.8973C129.885 71.1048 129.722 71.4876 129.455 71.9845C128.918 72.986 128.002 74.3793 126.554 75.7496C123.895 78.2642 118.607 81.5177 108.105 80.7612L106.851 98.1641C122.031 99.2574 132.183 94.4418 138.544 88.425C141.605 85.5295 143.593 82.5414 144.833 80.2279C145.455 79.0673 145.898 78.0593 146.201 77.2903C146.353 76.905 146.47 76.5771 146.558 76.317C146.602 76.1869 146.639 76.0734 146.669 75.9779C146.684 75.9301 146.697 75.8868 146.708 75.8481C146.714 75.8287 146.72 75.8105 146.725 75.7935C146.727 75.785 146.73 75.7768 146.732 75.7688C146.733 75.7649 146.735 75.7591 146.735 75.7572C146.737 75.7515 146.739 75.7459 138.357 73.3245ZM108.105 80.7612C93.4172 79.7033 83.8081 83.5408 77.8748 89.2898C75.0271 92.0491 73.3486 94.9513 72.3742 97.2518C71.8879 98.3999 71.5728 99.4071 71.37 100.191C71.2684 100.584 71.194 100.924 71.1402 101.202C71.1132 101.341 71.0913 101.465 71.0735 101.573C71.0647 101.627 71.0568 101.677 71.05 101.722C71.0465 101.745 71.0433 101.767 71.0403 101.788C71.0388 101.798 71.0374 101.808 71.036 101.818C71.0353 101.823 71.0343 101.83 71.034 101.832C71.033 101.839 71.032 101.846 79.6746 103.035C88.3172 104.224 88.3163 104.231 88.3153 104.237C88.315 104.24 88.3141 104.246 88.3134 104.251C88.3122 104.26 88.311 104.268 88.3097 104.277C88.3073 104.294 88.3049 104.31 88.3026 104.326C88.2979 104.356 88.2935 104.384 88.2895 104.409C88.2813 104.458 88.2745 104.496 88.2693 104.522C88.259 104.575 88.2554 104.586 88.2619 104.561C88.2754 104.509 88.3266 104.325 88.4405 104.057C88.6663 103.523 89.1233 102.686 90.0161 101.82C91.5639 100.321 95.8565 97.3721 106.851 98.1641L108.105 80.7612Z" fill="#AAC14A"/>
<ellipse cx="43.108" cy="116.972" rx="4.97799" ry="5.88308" transform="rotate(37.966 43.108 116.972)" fill="#6069B5"/>
<ellipse cx="43.693" cy="117.511" rx="4.32741" ry="5.88308" transform="rotate(37.966 43.693 117.511)" fill="#6A73C8"/>
<ellipse cx="44.0146" cy="117.906" rx="3.19499" ry="4.97692" transform="rotate(37.966 44.0146 117.906)" fill="#003B95"/>
<ellipse cx="60.3204" cy="124.726" rx="4.97799" ry="5.88308" transform="rotate(37.966 60.3204 124.726)" fill="#6069B5"/>
<ellipse cx="60.9056" cy="125.266" rx="4.21093" ry="5.88308" transform="rotate(37.966 60.9056 125.266)" fill="#6A73C8"/>
<ellipse cx="61.227" cy="125.661" rx="3.19499" ry="4.97692" transform="rotate(37.966 61.227 125.661)" fill="#003B95"/>
<ellipse cx="84.5195" cy="110.231" rx="4.97799" ry="5.88308" transform="rotate(37.966 84.5195 110.231)" fill="#5B77BE"/>
<ellipse cx="85.1049" cy="110.771" rx="4.31832" ry="5.88308" transform="rotate(37.966 85.1049 110.771)" fill="#6A73C8"/>
<ellipse cx="85.4268" cy="111.165" rx="3.19499" ry="4.97692" transform="rotate(37.966 85.4268 111.165)" fill="#003B95"/>
<path d="M76.4341 97.4931L86.9215 78.1996M89.0043 78.0745L94.8357 74.9127C96.1775 74.1852 96.2073 72.2701 94.8888 71.5012L88.8264 67.9659C87.4955 67.1897 85.8311 68.1844 85.8842 69.7242L86.1152 76.4212C86.1653 77.8743 87.7261 78.7675 89.0043 78.0745Z" stroke="#3F5AB7" stroke-width="3.26226" stroke-linejoin="round"/>
<g filter="url(#filter0_d_1840_5171)">
<path d="M37.2598 116.509C36.6618 116.184 36.3153 115.758 36.2646 115.286L36.0129 112.939C35.9359 112.221 36.549 111.46 37.6803 110.871L65.3625 96.443C67.2603 95.4539 70.1259 95.1841 72.0254 95.8157L88.2781 101.22C89.2792 101.553 89.8812 102.098 89.9493 102.732L90.1927 105.001C90.2579 105.608 89.8295 106.25 88.996 106.795L61.4316 124.807C59.3477 126.169 55.5449 126.468 53.622 125.42L37.2598 116.509Z" fill="#6277C0"/>
</g>
<path d="M37.1841 114.17C35.6326 113.403 35.6943 112.08 37.3297 111.047L64.645 93.8024C66.6964 92.5073 70.3206 92.2059 72.2668 93.1685L88.6058 101.25C90.1572 102.017 90.0956 103.341 88.4602 104.373L61.1449 121.618C59.0935 122.913 55.4692 123.214 53.5231 122.252L37.1841 114.17Z" fill="#8498DE"/>
<path d="M92.7303 102.606C93.7879 102.122 96.9614 100.053 98.0566 98.6554L100.669 98.7209C100.63 100.252 101.902 101.877 100.057 102.279C97.4289 102.851 95.6102 104.198 93.7366 104.163C91.863 104.128 91.6726 103.09 92.7303 102.606Z" fill="#7AB0BE"/>
<path d="M107.214 99.5456C108.564 98.4232 108.08 97.4219 108.292 96.104L110.397 95.8266C110.93 96.8473 112.598 97.7263 111.531 98.6627C110.011 99.9961 111.489 100.313 108.543 101.231C107.161 101.661 105.865 100.668 107.214 99.5456Z" fill="#7AB0BE"/>
<path d="M110.736 95.6743L107.485 97.7256L100.026 83.32L98.5616 70.8421L98.2865 67.636L107.478 69.6436L105.249 73.4979L105.71 83.4625L110.736 95.6743Z" fill="#3268C7"/>
<path d="M100.691 99.3328L97.1385 99.2438L98.2763 82.21L100.684 71.2509L100.755 68.409L107.504 68.5781L107.016 73.8978L102.85 84.1019L100.691 99.3328Z" fill="#3F7DEA"/>
<path d="M87.645 69.6972L88.7018 67.1093L96.0977 58.9699L99.7257 52.7427" stroke="#62360F" stroke-width="3.55353" stroke-linecap="round"/>
<path d="M97.3749 50.5677C97.7749 50.1321 98.5145 50.1483 99.1976 50.5204C99.8754 50.8897 100.464 51.595 100.544 52.4785C100.625 53.3837 100.541 55.0729 100.436 56.5413C100.383 57.2743 100.325 57.9504 100.281 58.4433C100.258 58.6897 100.239 58.8903 100.226 59.0293L100.21 59.1895L100.209 59.1959C99.5834 59.3509 99.0857 59.3775 98.6572 59.3159C98.2181 59.2529 97.8472 59.0966 97.4815 58.8844C97.2171 58.731 96.9581 58.5502 96.6776 58.3542C96.5676 58.2774 96.4542 58.1983 96.336 58.1176C95.9309 57.8412 95.4733 57.5504 94.9067 57.2836L94.9089 57.2757C94.9211 57.2327 94.9391 57.1694 94.9622 57.0884C95.0085 56.9265 95.0757 56.6942 95.159 56.4124C95.3256 55.8487 95.5567 55.0875 95.8148 54.297C96.073 53.5063 96.3579 52.6871 96.6321 52.0073C96.7692 51.6673 96.9033 51.3631 97.0296 51.1152C97.1566 50.8658 97.2734 50.6782 97.3749 50.5677Z" fill="#E5F2F5" stroke="#E6F3F7" stroke-width="0.142141"/>
<path d="M107.91 53.2018C103.009 49.9153 101.214 49.6495 98.5502 50.0635C96.4545 53.7859 98.0994 68.0558 98.0994 68.0558C98.0994 68.0558 104.036 70.8179 107.466 70.9039C108.281 63.5035 109.743 59.9265 107.91 53.2018Z" fill="white"/>
<path d="M101.008 51.2344L101.417 48.0616L103.226 47.9367L103.214 50.8024C102.941 52.1135 100.994 51.7812 101.008 51.2344Z" fill="#62360F"/>
<path d="M104.913 44.3414C104.436 48.0577 103.933 48.0451 101.47 49.3213C97.9087 49.5874 97.6246 46.7366 97.6514 45.6709C97.0659 40.6797 96.4608 41.084 99.5655 40.3859C102.67 39.6878 105.39 40.6251 104.913 44.3414Z" fill="#9D612C"/>
<path d="M97.8435 42.7425C96.9922 43.5386 94.4958 43.0085 95.9201 39.2916C97.1405 40.1855 97.9685 39.9158 98.5636 39.747C101.428 38.9348 103.546 38.6328 103.865 40.0627C106.015 39.4056 107.397 45.6785 105.264 46.4242C104.921 46.5439 104.647 46.6745 104.428 46.8116C104.384 47.3364 104.225 48.0238 103.895 48.8835C103.664 48.4233 103.282 47.5282 104.428 46.8116C104.572 45.0671 103.437 45.1186 103.013 46.6123C102.46 43.3604 98.9532 40.9928 97.8435 42.7425Z" fill="#331F0C"/>
<path d="M93.322 73.6996L95.1694 70.9022L105.169 62.4765L106.786 54.6968" stroke="#9D612C" stroke-width="3.55353" stroke-linecap="round"/>
<path d="M105.112 52.9173C105.452 52.4336 106.188 52.3539 106.913 52.6345C107.633 52.9129 108.308 53.5361 108.502 54.4019C108.7 55.2889 108.835 56.9748 108.92 58.4445C108.963 59.1781 108.993 59.856 109.013 60.3505C109.023 60.5978 109.03 60.7992 109.034 60.9387L109.039 61.0996L109.04 61.106C108.439 61.3407 107.949 61.4315 107.516 61.426C107.072 61.4203 106.684 61.3133 106.294 61.1502C106.012 61.0324 105.732 60.8865 105.429 60.7286C105.31 60.6667 105.187 60.6029 105.059 60.5382C104.622 60.3165 104.13 60.0874 103.534 59.8961L103.535 59.8881C103.542 59.8438 103.551 59.7787 103.564 59.6954C103.589 59.5289 103.625 59.2898 103.671 58.9996C103.764 58.4191 103.894 57.6344 104.048 56.8171C104.202 55.9996 104.378 55.1505 104.562 54.4409C104.654 54.0861 104.748 53.7671 104.841 53.5048C104.934 53.2412 105.026 53.04 105.112 52.9173Z" fill="#F1FCFF" stroke="#ECFAFF" stroke-width="0.142141"/>
<ellipse cx="65.1159" cy="86.8315" rx="6.18838" ry="10.883" fill="#379993"/>
<ellipse cx="55.0872" cy="91.0993" rx="6.40178" ry="10.883" fill="#379993"/>
<ellipse cx="45.9104" cy="96.4343" rx="6.18838" ry="10.6696" fill="#379993"/>
<path d="M46.1243 112.225L46.1243 101.556" stroke="#13625D" stroke-width="0.85357" stroke-linecap="round"/>
<path d="M56.3668 106.677L56.3668 96.0074" stroke="#13625D" stroke-width="0.85357" stroke-linecap="round"/>
<path d="M65.3296 101.129L65.3296 90.4591" stroke="#13625D" stroke-width="0.85357" stroke-linecap="round"/>
<ellipse cx="75.3592" cy="90.0323" rx="6.18838" ry="10.6696" fill="#4BB6AF"/>
<ellipse cx="66.1829" cy="94.3001" rx="6.40178" ry="10.6696" fill="#4BB6AF"/>
<ellipse cx="56.1537" cy="99.6351" rx="6.18838" ry="10.883" fill="#4BB6AF"/>
<path d="M56.3669 116.066L56.3669 105.397" stroke="#13625D" stroke-width="0.85357" stroke-linecap="round"/>
<path d="M66.6101 110.518L66.6101 99.8484" stroke="#13625D" stroke-width="0.85357" stroke-linecap="round"/>
<path d="M75.5718 104.97L75.5718 94.3004" stroke="#13625D" stroke-width="0.85357" stroke-linecap="round"/>
<path d="M20.1731 80.0738C20.699 76.2562 17.396 71.9388 14.0052 80.7791C12.9914 73.4829 9.75486 75.5164 9.77279 79.3682C3.43857 77.041 2.11104 79.9664 7.36906 84.4585C-0.190038 87.8928 -1.02426 91.3796 9.08381 89.8252C8.55784 93.6428 11.4267 95.0457 14.1491 92.2485C17.3416 96.977 22.2505 99.4807 19.4841 90.5308C24.9736 90.7115 31.5442 86.77 21.8878 85.4405C26.2019 82.1431 26.9747 77.6903 20.1731 80.0738Z" fill="#BBDD5C"/>
<path d="M176.792 86.0505C172.18 80.3923 161.934 79.4043 169.812 95.5233C158.391 87.5123 157.034 94.6304 162.395 99.5776C150.997 105.367 153.339 110.986 166.349 109.486C161.355 124.413 165.112 130.072 175.999 114.033C180.612 119.691 186.258 117.519 185.893 110.129C196.566 111.801 206.37 108.219 190.396 100.506C197.729 93.1181 200.745 78.9086 186.443 90.5977C187.439 80.3523 182.265 73.5313 176.792 86.0505Z" fill="#047602"/>
<path d="M40.7089 9.0479C27.2219 3.9629 27.6368 16.5172 30.7884 23.6776C27.2083 21.7694 14.638 10.6581 11.8504 24.8121C9.06274 38.9662 22.8517 32.8147 27.8046 33.3158C25.4164 36.6324 10.3647 45.4755 25.633 50.7391C40.9013 56.0026 36.309 41.9035 37.5837 37.3251C44.5722 39.5351 51.2477 50.8908 56.7532 37.517C62.2586 24.1432 48.1074 26.0914 40.1079 27.0409C46.6666 20.2438 54.421 14.2177 40.7089 9.0479Z" fill="#FFC93D"/>
<defs>
<filter id="filter0_d_1840_5171" x="35.4435" y="95.4756" width="55.3185" height="31.6994" filterUnits="userSpaceOnUse" color-interpolation-filters="sRGB">
<feFlood flood-opacity="0" result="BackgroundImageFix"/>
<feColorMatrix in="SourceAlpha" type="matrix" values="0 0 0 0 0 0 0 0 0 0 0 0 0 0 0 0 0 0 127 0" result="hardAlpha"/>
<feOffset dy="0.562836"/>
<feGaussianBlur stdDeviation="0.281418"/>
<feComposite in2="hardAlpha" operator="out"/>
<feColorMatrix type="matrix" values="0 0 0 0 0.5 0 0 0 0 0.312 0 0 0 0 0.3 0 0 0 0.26 0"/>
<feBlend mode="normal" in2="BackgroundImageFix" result="effect1_dropShadow_1840_5171"/>
<feBlend mode="normal" in="SourceGraphic" in2="effect1_dropShadow_1840_5171" result="shape"/>
</filter>
</defs>
</svg>
