<svg width="390" height="434" viewBox="0 0 390 434" fill="none" xmlns="http://www.w3.org/2000/svg">
<rect width="390" height="434" fill="#F0F3E7"/>
<path d="M86.8167 31.7407C86.8167 31.7407 86.785 31.7407 86.766 31.7407C86.12 22.9385 78.7353 16 69.7167 16C60.698 16 53.098 23.14 52.642 32.1248C51.2487 31.7659 49.754 31.5644 48.1833 31.5644C41.014 31.5644 35.2 35.6507 35.2 40.6878C35.2 42.5011 35.9663 44.1885 37.2647 45.6115L20 50H86.8167C91.8897 50 96 45.9137 96 40.8704C96 35.827 91.8897 31.7407 86.8167 31.7407Z" fill="white"/>
<path d="M412.5 30C412.5 30 412.45 30 412.42 30C411.4 16.02 399.74 5 385.5 5C371.26 5 359.26 16.34 358.54 30.61C356.34 30.04 353.98 29.72 351.5 29.72C340.18 29.72 331 36.21 331 44.21C331 47.09 332.21 49.77 334.26 52.03L307 59.01H412.5C420.51 59.01 427 52.52 427 44.51C427 36.5 420.51 30.01 412.5 30.01V30Z" fill="white"/>
<path d="M282.258 76.9954C282.258 76.9954 282.207 76.9954 282.177 76.9954C281.14 63.018 269.286 52 254.808 52C240.331 52 228.131 63.3379 227.399 77.6053C225.162 77.0354 222.763 76.7154 220.242 76.7154C208.733 76.7154 199.4 83.2042 199.4 91.2027C199.4 94.0822 200.63 96.7617 202.714 99.0213L175 106H282.258C290.402 106 297 99.5112 297 91.5027C297 83.4942 290.402 77.0054 282.258 77.0054V76.9954Z" fill="white"/>
<g clip-path="url(#clip0_2066_3744)">
<path d="M48.8478 141.995L42.9196 149.313C42.684 149.602 42.2129 149.51 42.1082 149.156C37.2661 134.492 45.7594 132.197 46.2567 137.037C46.2567 137.089 46.3352 137.102 46.3483 137.037C48.1673 127.147 60.7829 133.535 55.3127 141.47C55.2865 141.509 55.3127 141.549 55.3519 141.549C59.3564 141.286 61.2017 148.316 45.406 152.107C45.0134 152.199 44.6994 151.792 44.8695 151.438L49.3451 142.322C49.5022 142.008 49.0703 141.719 48.8478 142.008V141.995Z" fill="#169F91"/>
<path d="M235.673 217.228C230.622 228.272 196.728 222.173 214.316 204.112C231.905 186.051 240.725 206.198 235.673 217.228Z" fill="#F25E5A"/>
<path d="M222.312 203.732C228.554 209.306 223.581 213.818 217.431 208.165C211.28 213.831 206.294 209.306 212.549 203.732C206.307 198.157 211.28 193.646 217.431 199.299C223.581 193.632 228.567 198.157 222.312 203.732Z" fill="#169F91"/>
<path d="M151.094 386.255C147.142 393.587 138.989 393.115 131.673 389.154C124.358 385.193 123.9 378.753 127.852 371.421C131.804 364.089 140.271 363.984 147.574 367.945C154.889 371.906 155.046 378.923 151.094 386.255Z" fill="#F5BB25"/>
<path d="M150.793 370.358C160.098 378.346 153.62 385.796 144.446 377.651C136.476 386.977 129.043 380.484 137.17 371.29C127.865 363.302 134.343 355.852 143.517 363.997C151.487 354.672 158.92 361.164 150.793 370.358Z" fill="#6B9E1C"/>
<path d="M246.444 150.586C260.656 149.497 261.441 160.947 247.216 161.813C248.302 176.057 236.877 176.844 236.014 162.587C221.801 163.675 221.016 152.225 235.242 151.359C234.155 137.115 245.58 136.328 246.444 150.586Z" fill="#FFC1EA"/>
<path d="M242.963 154.324C248.014 153.615 248.551 157.695 243.486 158.324C244.193 163.387 240.123 163.925 239.495 158.849C234.443 159.557 233.907 155.478 238.971 154.848C238.265 149.786 242.335 149.248 242.963 154.324Z" fill="#FF85B6"/>
<path d="M22.4365 211.173L16.5234 205.247L4.00321 217.795L9.91631 223.722L22.4365 211.173Z" fill="#9CA3EF"/>
<path d="M9.91518 223.721L4 217.792L14.3123 211.405L22.4391 211.182L9.91518 223.721Z" fill="#4A5CDD"/>
<path d="M25.9139 203.507L23.9429 201.532L18.3814 207.106L20.3524 209.081L25.9139 203.507Z" fill="#2C4584"/>
<path d="M34.2435 190.721L30.1343 190.773C28.1975 190.799 26.5224 191.455 25.3315 192.649L19.7827 198.21C19.5079 198.485 19.5995 199.036 19.9921 199.43L28.1059 207.562C28.4461 207.903 28.9172 207.981 29.1659 207.745L35.0549 201.843C36.0626 200.833 36.6515 199.443 36.7431 197.83L36.9917 193.567C37.0702 192.203 35.6176 190.708 34.2435 190.734V190.721Z" fill="#2C4584"/>
<path d="M25.3053 203.456L23.9966 202.145L30.4745 195.652C31.4036 194.721 32.7123 196.046 31.7832 196.964L25.3053 203.456Z" fill="#4267A8"/>
<path d="M129.944 345.635L112.657 339.077L119.108 320.557C122.262 319.704 134.983 322.747 137.404 324.977L129.944 345.635Z" fill="#E8A183"/>
<path d="M135.48 331.928C127.889 329.751 122.668 327.626 116.111 328.439L118.729 321.881C124.068 321.055 134.433 329.882 135.48 331.928Z" fill="#A35555"/>
<path d="M116.648 327.377L111.335 339.916L131.881 349.425L142.442 351.616C142.874 351.773 143.319 351.38 143.175 350.934C142.324 348.245 140.701 346.736 138.621 343.772C137.063 341.556 135.323 337.962 133.033 335.575C134.865 333.397 129.316 330.577 128.243 334.617C127.052 335.666 117.957 328.321 116.661 327.364L116.648 327.377Z" fill="#512366"/>
<path d="M143.384 350.724L131.645 349.373L111.23 338.513L110 341.765L130.821 352.77L142.167 353.963L143.384 350.724Z" fill="#F4EEF3"/>
<path d="M136.474 337.621L131.279 338.159" stroke="#F4EEF3" stroke-miterlimit="10"/>
<path d="M138.293 339.693L132.627 341.018" stroke="#F4EEF3" stroke-miterlimit="10"/>
<path d="M144.902 334.998C134.433 332.374 123.767 328.754 116.111 320.57L130.638 280.999L131.815 236.627L164.532 235.315L158.015 298.312L144.902 334.998Z" fill="#3964BC"/>
<path d="M215.57 319.035L187.578 334.25L130.507 228.757H167.15L215.57 319.035Z" fill="#4F7CE3"/>
<path d="M204.343 331.197C211.985 326.775 217.021 321.176 215.59 318.691C214.159 316.207 206.803 317.778 199.16 322.201C191.518 326.623 186.482 332.222 187.913 334.706C189.344 337.19 196.7 335.619 204.343 331.197Z" fill="#163675"/>
<path d="M215.649 338.513L199.316 347.196L189.698 330.105C191.137 327.167 201.816 319.599 205.101 319.258L215.649 338.513Z" fill="#E8A183"/>
<path d="M193.179 336.466L199.068 348.756L228.369 333.069C228.774 332.846 228.761 332.243 228.343 332.059C223.828 330.079 217.86 329.213 210.139 329.567C209.72 326.747 203.949 329.069 206.252 332.545C206.252 334.145 194.749 336.139 193.179 336.466Z" fill="#512366"/>
<path d="M228.332 331.751L197.949 347.901L199.574 350.972L229.957 334.822L228.332 331.751Z" fill="#F4EEF3"/>
<path d="M213.96 328.308L210.924 332.571" stroke="#F4EEF3" stroke-miterlimit="10"/>
<path d="M216.709 328.308L213.96 333.437" stroke="#F4EEF3" stroke-miterlimit="10"/>
<path d="M205.101 319.258C198.61 324.046 193.82 329.436 193.323 336.309L189.698 330.105C192.04 325.239 202.824 318.97 205.101 319.258Z" fill="#A35555"/>
<path d="M164.493 180.805C160.318 192.255 164.964 215.038 168.144 218.868C186.727 241.27 195.522 237.27 201.411 234.266C204.303 232.207 209.236 237.073 210.218 234.266C211.199 231.459 206.305 225.859 202.392 225.859C202.392 225.859 208.268 227.262 206.305 224.455C205.324 223.052 199.461 224.455 196.516 224.455C195.168 224.455 182.814 213.254 177.933 204.847C174.02 179.638 166.561 175.152 164.506 180.792L164.493 180.805Z" fill="#D98A6C"/>
<path d="M177.828 200.82L169.688 206.473C169.257 204.991 168.367 200.702 168.432 200.059L177.828 200.82Z" fill="#B55515"/>
<path d="M146.211 169.735C148.854 171.401 151.864 171.834 155.646 169.735C163.001 167.348 173.693 174.981 181.545 201.214L165.841 202.525L146.211 169.735Z" fill="#E6FAFF"/>
<path d="M155.371 156.619H144.902V171.047H155.371V156.619Z" fill="#E8A183"/>
<path d="M155.371 163.177L144.902 169.499V160.554L155.371 163.177Z" fill="#A35555"/>
<path d="M143.593 152.684C138.28 143.975 155.921 142.362 160.606 148.749C159.808 154.953 158.996 161.026 157.989 163.177C155.371 165.8 148.828 164.489 144.902 160.554C139.667 157.931 140.976 147.267 143.593 152.684Z" fill="#E8A183"/>
<path d="M156.68 148.749C152.754 146.074 151.445 150.061 150.137 155.307C148.828 157.931 146.211 156.619 146.211 155.307C146.211 151.372 138.359 153.996 144.902 160.554C144.902 160.554 143.593 161.865 144.902 163.177V160.554C135.741 160.554 135.741 138.256 151.445 142.191C151.445 142.191 155.371 140.88 159.297 144.342C167.385 151.333 160.606 156.619 161.915 157.931C156.68 157.931 163.223 146.126 156.68 148.749Z" fill="#301B07"/>
<path d="M177.619 239.25H130.507V173.67C136.815 168.751 142.285 167.951 146.211 169.735C149.836 171.375 152.466 171.676 155.372 169.735C159.298 167.112 164.532 189.409 165.841 190.721L177.619 239.25Z" fill="white"/>
<path d="M349.709 340.244C358.021 340.244 364.759 333.491 364.759 325.161C364.759 316.83 358.021 310.077 349.709 310.077C341.397 310.077 334.659 316.83 334.659 325.161C334.659 333.491 341.397 340.244 349.709 340.244Z" fill="#721D16"/>
<path d="M288.202 340.244C296.513 340.244 303.251 333.491 303.251 325.161C303.251 316.83 296.513 310.077 288.202 310.077C279.89 310.077 273.152 316.83 273.152 325.161C273.152 333.491 279.89 340.244 288.202 340.244Z" fill="#721D16"/>
<path d="M211.788 260.315C213.516 258.675 214.419 256.511 214.222 254.281L211.474 240.05C211.16 237.348 209.786 234.948 207.574 233.282C204.839 231.21 201.044 230.449 197.17 231.197L196.765 231.276L184.908 236.312L184.555 236.561C181.597 238.66 179.831 241.677 179.7 244.851C179.595 247.474 180.681 249.94 182.67 251.619L182.985 251.881L201.986 262.033C202.693 262.4 203.465 262.636 204.25 262.767H204.237L227.427 309.146L234.441 305.618L211.788 260.328V260.315ZM187.565 245.402C187.565 245.402 187.526 245.257 187.526 245.152C187.552 244.654 187.944 243.867 188.782 243.185L198.99 238.857C200.534 238.634 201.947 238.896 202.837 239.565C203.334 239.945 203.609 240.404 203.661 240.995L206.305 254.688C206.083 254.858 205.716 255.016 205.52 255.003L187.552 245.415L187.565 245.402Z" fill="#AF4E46"/>
<path d="M333.35 308.241H224.731V325.816H333.35V308.241Z" fill="#AF4E46"/>
<path d="M363.397 313.028L333.468 325.921L333.324 309.238L363.24 296.331L363.397 313.028Z" fill="#D3CDBC"/>
<path d="M333.769 308.713H225.045L254.726 296.541H363.45L333.769 308.713Z" fill="#FFF0E3"/>
<path d="M310.449 350.737C318.76 350.737 325.498 343.984 325.498 335.653C325.498 327.323 318.76 320.57 310.449 320.57C302.137 320.57 295.399 327.323 295.399 335.653C295.399 343.984 302.137 350.737 310.449 350.737Z" fill="#DB9671"/>
<path d="M248.941 350.737C257.253 350.737 263.991 343.984 263.991 335.653C263.991 327.323 257.253 320.57 248.941 320.57C240.63 320.57 233.892 327.323 233.892 335.653C233.892 343.984 240.63 350.737 248.941 350.737Z" fill="#DB9671"/>
<path d="M130.899 184.228C125.206 196.597 131.54 221.189 135.872 225.321C161.182 249.507 173.156 245.192 181.165 241.952C185.091 239.722 191.818 244.982 193.152 241.952C194.487 238.922 187.826 232.876 182.5 232.876C182.5 232.876 190.496 234.384 187.826 231.367C186.491 229.859 178.495 231.367 174.504 231.367C172.672 231.367 155.855 219.274 149.194 210.198C143.868 182.982 133.7 178.142 130.899 184.228Z" fill="#E8A183"/>
<path d="M146.211 169.735C140.976 167.112 132.627 170.181 130.507 173.67C127.118 182.68 126.686 195.18 126.581 205.148H150.137L146.211 169.735Z" fill="#E6FAFF"/>
<path d="M264.946 249.441H261.609V302.207H264.946V249.441Z" fill="#B8E05D"/>
<path d="M263.284 256.655C273.858 257.416 283.163 249.586 284.157 238.949C284.21 238.345 283.765 237.808 283.163 237.742C274.434 236.916 266.49 241.978 263.271 249.678C260.052 241.978 252.121 236.916 243.379 237.742C242.777 237.794 242.332 238.332 242.385 238.949C243.392 249.586 252.684 257.416 263.258 256.655H263.284Z" fill="#598C51"/>
<path d="M283.163 255.422C274.434 254.596 266.49 259.659 263.271 267.358C260.052 259.659 252.121 254.596 243.379 255.422C242.777 255.475 242.332 256.013 242.385 256.629C243.392 267.266 252.684 275.096 263.258 274.336C273.832 275.096 283.136 267.266 284.131 256.629C284.183 256.026 283.738 255.488 283.136 255.422H283.163Z" fill="#598C51"/>
<path d="M283.163 274.913C274.434 274.087 266.49 279.149 263.271 286.848C260.052 279.149 252.121 274.087 243.379 274.913C242.777 274.965 242.332 275.503 242.385 276.119C243.392 286.757 252.684 294.587 263.258 293.826C273.832 294.587 283.136 286.757 284.131 276.119C284.183 275.516 283.738 274.978 283.136 274.913H283.163Z" fill="#598C51"/>
<path d="M258.677 248.602C263.065 248.602 266.621 245.038 266.621 240.641C266.621 236.244 263.065 232.679 258.677 232.679C254.29 232.679 250.734 236.244 250.734 240.641C250.734 245.038 254.29 248.602 258.677 248.602Z" fill="#ED7367"/>
<path d="M273.727 269.548C278.114 269.548 281.671 265.984 281.671 261.587C281.671 257.19 278.114 253.625 273.727 253.625C269.34 253.625 265.784 257.19 265.784 261.587C265.784 265.984 269.34 269.548 273.727 269.548Z" fill="#ED7367"/>
<path d="M255.341 289.642C259.728 289.642 263.284 286.078 263.284 281.681C263.284 277.284 259.728 273.719 255.341 273.719C250.953 273.719 247.397 277.284 247.397 281.681C247.397 286.078 250.953 289.642 255.341 289.642Z" fill="#ED7367"/>
<path d="M305.515 249.441H302.178V302.207H305.515V249.441Z" fill="#B8E05D"/>
<path d="M303.853 256.655C314.427 257.416 323.731 249.586 324.726 238.949C324.778 238.345 324.333 237.808 323.731 237.742C315.003 236.916 307.059 241.978 303.84 249.678C300.62 241.978 292.69 236.916 283.948 237.742C283.346 237.794 282.901 238.332 282.953 238.949C283.961 249.586 293.253 257.416 303.827 256.655H303.853Z" fill="#598C51"/>
<path d="M323.731 255.422C315.003 254.596 307.059 259.659 303.84 267.358C300.62 259.659 292.69 254.596 283.948 255.422C283.346 255.475 282.901 256.013 282.953 256.629C283.961 267.266 293.253 275.096 303.827 274.336C314.401 275.096 323.705 267.266 324.7 256.629C324.752 256.026 324.307 255.488 323.705 255.422H323.731Z" fill="#598C51"/>
<path d="M323.731 274.913C315.003 274.087 307.059 279.149 303.84 286.848C300.62 279.149 292.69 274.087 283.948 274.913C283.346 274.965 282.901 275.503 282.953 276.119C283.961 286.757 293.253 294.587 303.827 293.826C314.401 294.587 323.705 286.757 324.7 276.119C324.752 275.516 324.307 274.978 323.705 274.913H323.731Z" fill="#598C51"/>
<path d="M299.246 248.602C303.633 248.602 307.19 245.038 307.19 240.641C307.19 236.244 303.633 232.679 299.246 232.679C294.859 232.679 291.303 236.244 291.303 240.641C291.303 245.038 294.859 248.602 299.246 248.602Z" fill="#ED7367"/>
<path d="M314.296 269.548C318.683 269.548 322.24 265.984 322.24 261.587C322.24 257.19 318.683 253.625 314.296 253.625C309.909 253.625 306.353 257.19 306.353 261.587C306.353 265.984 309.909 269.548 314.296 269.548Z" fill="#ED7367"/>
<path d="M295.909 289.642C300.297 289.642 303.853 286.078 303.853 281.681C303.853 277.284 300.297 273.719 295.909 273.719C291.522 273.719 287.966 277.284 287.966 281.681C287.966 286.078 291.522 289.642 295.909 289.642Z" fill="#ED7367"/>
<path d="M342.157 249.441H338.82V302.207H342.157V249.441Z" fill="#B8E05D"/>
<path d="M340.495 256.655C351.069 257.416 360.374 249.586 361.369 238.949C361.421 238.345 360.976 237.808 360.374 237.742C351.645 236.916 343.702 241.978 340.482 249.678C337.263 241.978 329.332 236.916 320.591 237.742C319.989 237.794 319.544 238.332 319.596 238.949C320.604 249.586 329.895 257.416 340.469 256.655H340.495Z" fill="#598C51"/>
<path d="M360.374 255.422C351.645 254.596 343.702 259.659 340.482 267.358C337.263 259.659 329.332 254.596 320.591 255.422C319.989 255.475 319.544 256.013 319.596 256.629C320.604 267.266 329.895 275.096 340.469 274.336C351.043 275.096 360.348 267.266 361.342 256.629C361.395 256.026 360.95 255.488 360.348 255.422H360.374Z" fill="#598C51"/>
<path d="M360.374 274.913C351.645 274.087 343.702 279.149 340.482 286.848C337.263 279.149 329.332 274.087 320.591 274.913C319.989 274.965 319.544 275.503 319.596 276.119C320.604 286.757 329.895 294.587 340.469 293.826C351.043 294.587 360.348 286.757 361.342 276.119C361.395 275.516 360.95 274.978 360.348 274.913H360.374Z" fill="#598C51"/>
<path d="M335.889 248.602C340.276 248.602 343.833 245.038 343.833 240.641C343.833 236.244 340.276 232.679 335.889 232.679C331.502 232.679 327.945 236.244 327.945 240.641C327.945 245.038 331.502 248.602 335.889 248.602Z" fill="#ED7367"/>
<path d="M350.939 269.548C355.326 269.548 358.882 265.984 358.882 261.587C358.882 257.19 355.326 253.625 350.939 253.625C346.552 253.625 342.995 257.19 342.995 261.587C342.995 265.984 346.552 269.548 350.939 269.548Z" fill="#ED7367"/>
<path d="M332.552 289.642C336.939 289.642 340.496 286.078 340.496 281.681C340.496 277.284 336.939 273.719 332.552 273.719C328.165 273.719 324.608 277.284 324.608 281.681C324.608 286.078 328.165 289.642 332.552 289.642Z" fill="#ED7367"/>
<path d="M139.471 245.336L158.107 294.639L159.756 281.497L139.471 245.336Z" fill="#163675"/>
<path d="M171.378 207.772L153.057 214.33C152.35 212.008 151.068 205.384 151.303 204.427L171.378 207.772Z" fill="#D16E4B"/>
<path d="M74.223 354.527L56.9355 347.969L63.3873 329.449C66.5412 328.597 79.2614 331.64 81.6824 333.87L74.223 354.527Z" fill="#EA8947"/>
<path d="M79.7716 340.821C72.1813 338.644 66.9597 336.519 60.4033 337.332L63.0207 330.774C68.36 329.948 78.7247 338.775 79.7716 340.821Z" fill="#B55515"/>
<path d="M60.927 336.27L55.6138 348.809L76.1598 358.318L86.7208 360.508C87.1527 360.666 87.5976 360.272 87.4536 359.826C86.603 357.138 84.9803 355.629 82.8995 352.665C81.3422 350.448 79.6016 346.855 77.3115 344.467C79.1436 342.29 73.5949 339.47 72.5218 343.51C71.3309 344.559 62.2356 337.214 60.94 336.257L60.927 336.27Z" fill="#737DA0"/>
<path d="M87.6761 359.616L75.9243 358.266L55.5221 347.405L54.292 350.658L75.0998 361.663L86.4459 362.856L87.6761 359.616Z" fill="#F4EEF3"/>
<path d="M80.7661 346.514L75.5576 347.051" stroke="#F4EEF3" stroke-miterlimit="10"/>
<path d="M82.5855 348.586L76.9189 349.911" stroke="#F4EEF3" stroke-miterlimit="10"/>
<path d="M118.796 239.001L92.8582 237.939L91.314 189.16L118.796 225.885V239.001Z" fill="#EA8947"/>
<path d="M173.511 344.481L157.742 354.147L147.103 337.686C148.359 334.67 158.553 326.459 161.812 325.908L173.511 344.481Z" fill="#EA8947"/>
<path d="M150.963 343.812L157.598 355.708L185.891 338.263C186.284 338.014 186.231 337.424 185.8 337.267C181.18 335.562 175.16 335.076 167.478 335.889C166.889 333.109 161.262 335.771 163.788 339.103C163.879 340.69 152.52 343.392 150.976 343.825L150.963 343.812Z" fill="#737DA0"/>
<path d="M185.766 336.949L156.427 354.933L158.236 357.898L187.576 339.914L185.766 336.949Z" fill="#F4EEF3"/>
<path d="M171.208 334.394L168.447 338.841" stroke="#F4EEF3" stroke-miterlimit="10"/>
<path d="M173.956 334.224L171.522 339.523" stroke="#F4EEF3" stroke-miterlimit="10"/>
<path d="M161.812 325.908C155.622 331.089 151.172 336.755 151.094 343.654L147.103 337.686C149.144 332.676 159.522 325.764 161.812 325.908Z" fill="#B55515"/>
<path d="M91.5496 234.004H119.032C131.477 256.576 146.514 285.156 167.256 327.429C159.6 328.439 150.44 333.686 146.514 340.244C137.353 336.309 108.942 297.787 105.343 274.926C99.3362 296.58 92.8583 319.258 81.0803 341.556C77.1543 337.621 65.9652 333.096 60.1416 332.374C65.3763 295.649 76.7224 261.521 91.5496 234.004Z" fill="#9BD9EA"/>
<path d="M109.531 293.275V258.924C108.313 264.944 105.343 274.926 105.343 274.926L106.115 279.307C107.005 283.91 108.169 288.58 109.531 293.275Z" fill="#1D9AB7"/>
<path d="M122.722 200.964L135.809 218.015C143.007 212.847 148.621 208.375 148.896 206.211C151.591 200.177 152.835 200.427 152.822 206.211C160.556 204.965 161.498 208.099 158.056 214.08L154.13 216.704C145.598 223.878 135.73 234.922 130.574 232.443C125.405 228.639 121.479 218.579 117.488 208.834C114.923 199.036 115.315 194.157 122.722 200.964Z" fill="#B55515"/>
<path d="M161.315 222.357L156.028 218.356C153.999 216.822 153.083 214.225 153.712 211.759L155.923 202.997C156.564 200.44 158.763 198.538 161.367 198.249L162.781 198.092C165.097 197.843 167.348 198.892 168.67 200.82L171.064 204.348L169.154 205.66L166.759 202.132C165.921 200.912 164.495 200.243 163.029 200.4L161.616 200.558C159.954 200.741 158.567 201.948 158.161 203.561L155.949 212.323C155.557 213.884 156.133 215.536 157.415 216.507L162.702 220.507L161.315 222.357Z" fill="#D6A82A"/>
<path d="M169.141 205.66L166.746 202.132C165.908 200.912 164.482 200.243 163.016 200.4L161.603 200.558C159.941 200.741 158.554 201.948 158.148 203.561L155.91 202.997C156.551 200.44 158.75 198.538 161.354 198.249L162.768 198.092C165.084 197.843 167.335 198.892 168.657 200.82L171.051 204.348L169.141 205.66Z" fill="#FFE845"/>
<path d="M193.273 204.742L191.768 202.105L182.358 208.113L180.723 203.286L162.598 205.227L160.713 224.823C160.543 226.58 162.022 228.036 163.775 227.852L184.714 225.609C186.481 225.426 187.619 223.642 187.043 221.95L185.015 215.956L193.273 204.742Z" fill="#D6A82A"/>
<path d="M185.041 215.93L182.411 208.086L182.371 208.113L180.735 203.286C180.408 200.177 162.231 202.132 162.558 205.227C163.71 215.09 165.084 224.495 169.677 226.816C170.135 227.039 170.646 227.118 171.143 227.065L184.727 225.609C186.481 225.426 187.619 223.642 187.043 221.976L185.002 215.956V215.93H185.041Z" fill="#FFE845"/>
<path d="M182.372 208.113L191.781 202.105C191.663 203.102 193.155 203.863 194.555 202.84C194.634 202.788 194.725 202.866 194.673 202.945L185.028 215.969L182.372 208.126V208.113Z" fill="#FFE845"/>
<path d="M188.954 210.565C187.187 211.457 184.217 212.008 183.484 211.615L185.028 215.956L188.967 210.565H188.954Z" fill="#D6982B"/>
<path d="M176.033 204.935C177.938 204.731 179.421 203.999 179.347 203.301C179.272 202.602 177.668 202.201 175.763 202.405C173.859 202.609 172.375 203.341 172.45 204.039C172.524 204.738 174.129 205.139 176.033 204.935Z" fill="#D6982B"/>
<path d="M163.068 205.634C163.71 206.408 165.005 206.893 166.615 207.129" stroke="#EFCE3E" stroke-miterlimit="10" stroke-linecap="round"/>
<path d="M167.361 207.221C169.73 207.444 172.622 207.195 175.082 206.591" stroke="#EFCE3E" stroke-miterlimit="10" stroke-linecap="round"/>
<path d="M177.149 205.975C178.72 205.398 179.911 204.65 180.329 203.784" stroke="#EFCE3E" stroke-miterlimit="10" stroke-linecap="round"/>
<path d="M175.161 205.004C175.435 205.004 175.723 204.991 176.024 204.952C177.935 204.742 179.414 204.02 179.335 203.312C179.283 202.774 178.053 202.171 175.75 202.407L175.161 204.991V205.004Z" fill="#BC7C27"/>
<path d="M191.781 202.105C191.048 203.076 192.998 204.414 194.581 202.997C194.934 202.683 194.725 202.079 194.241 202.092H191.781V202.105Z" fill="#BC7C27"/>
<path d="M158.174 208.178C159.916 208.178 161.328 207.591 161.328 206.867C161.328 206.142 159.916 205.555 158.174 205.555C156.432 205.555 155.02 206.142 155.02 206.867C155.02 207.591 156.432 208.178 158.174 208.178Z" fill="#B55515"/>
<path d="M160.413 204.612C160.498 203.892 159.158 203.143 157.421 202.938C155.684 202.733 154.207 203.15 154.123 203.87C154.038 204.589 155.378 205.339 157.115 205.543C158.852 205.748 160.329 205.331 160.413 204.612Z" fill="#B55515"/>
<path d="M161.207 210.677C161.463 210.023 160.313 208.958 158.638 208.299C156.963 207.639 155.397 207.635 155.141 208.289C154.885 208.943 156.035 210.007 157.71 210.667C159.385 211.327 160.95 211.331 161.207 210.677Z" fill="#B55515"/>
<path d="M160.302 213.305C160.559 212.651 159.409 211.586 157.734 210.927C156.059 210.267 154.493 210.263 154.237 210.917C153.98 211.571 155.13 212.635 156.805 213.295C158.48 213.955 160.046 213.959 160.302 213.305Z" fill="#B55515"/>
<path d="M130.574 211.457L120.105 215.392L118.822 212.336L130.574 211.457Z" fill="#8C3200"/>
<path d="M99.6504 189.121C102.294 190.786 105.304 191.219 109.086 189.121C116.441 186.733 123.206 191.744 131.058 211.418L117.972 212.729L99.6504 189.121Z" fill="#F4F3D9"/>
<path d="M106.194 173.381H99.166V195.718H106.194V173.381Z" fill="#EA8947"/>
<path d="M104.885 181.251L99.166 187.573V178.628L104.885 181.251Z" fill="#B55515"/>
<path d="M119.032 226.134C107.149 226.659 95.6722 226.619 92.623 231.131V221.911L119.032 226.134Z" fill="#B55515"/>
<path d="M99.4018 181.539C114.91 180.057 116.414 168.423 111.18 161.865C107.254 157.93 103.145 158.731 101.653 159.373C86.3151 157.93 83.6978 182.851 99.4018 181.539Z" fill="#602E09"/>
<path d="M113.797 167.112C107.254 157.93 94.1672 164.489 99.1663 174.732C95.2403 169.486 98.3418 162.613 102.373 160.829C105.945 159.242 111.18 160.554 113.797 167.112Z" fill="#FFFEF5"/>
<path d="M97.8574 174.732C97.8574 165.551 108.052 161.747 112.737 168.135C116.624 180.752 107.502 190.432 97.033 179.939C91.7983 177.316 95.2401 169.315 97.8574 174.732Z" fill="#EA8947"/>
<path d="M97.7923 174.824C93.9317 159.36 115.145 159.36 115.145 170.955L97.7923 174.824Z" fill="#602E09"/>
<path d="M95.4759 161.865C98.3669 161.865 100.711 159.516 100.711 156.619C100.711 153.721 98.3669 151.372 95.4759 151.372C92.5849 151.372 90.2412 153.721 90.2412 156.619C90.2412 159.516 92.5849 161.865 95.4759 161.865Z" fill="#602E09"/>
<path d="M121.413 225.885L92.6228 224.573L88.6968 191.783C92.2825 188.675 92.7275 189.973 95.2009 189.462C97.2162 189.042 99.3362 189.711 100.658 191.285C103.616 194.813 106.272 194.039 106.887 190.721C107.031 189.96 107.973 189.501 108.575 189.999C120.105 199.653 122.722 200.964 121.413 225.885Z" fill="#FFFEF5"/>
<path d="M57.354 263.817C53.428 268.119 55.6004 273.417 59.8798 277.352C64.1722 281.287 68.5301 280.133 72.4561 275.831C76.3821 271.529 74.5238 265.902 70.2313 261.954C65.9389 258.019 61.28 259.514 57.3409 263.817H57.354Z" fill="#F24A9A"/>
<path d="M67.9936 264.171C66.8027 264.564 66.7372 263.384 67.9936 262.859C90.2409 253.678 82.8993 270.86 89.8483 275.687C85.2549 268.014 97.0329 264 99.9774 268.879C105.879 262.689 109.635 279.53 97.1637 278.625C96.143 283.504 90.7382 281.864 85.9485 279.648C85.9485 279.648 91.2093 287.084 95.9467 283.91C106.18 277.038 108.222 280.776 106.259 285.524C117.173 285.629 113.601 299.374 102.87 295.807C99.9643 302.312 94.9914 299.387 93.0022 292.147C92.5442 290.482 84.1294 290.442 83.1741 276.041C82.8993 278.061 77.9002 289.432 81.4466 290.468C84.9931 291.505 89.495 297.131 83.7892 296.633C89.809 310.89 69.7079 315.822 72.2991 299.204C66.4231 299.282 73.6863 292.882 76.0549 288.199C94.1669 252.353 67.9936 264.158 67.9936 264.158V264.171Z" fill="#6B9E1C"/>
<path d="M85.5558 198.394C80.5044 218.33 75.1912 234.148 70.6108 261.744C71.0165 266.571 76.9317 267.856 80.8577 266.545C83.4358 265.679 77.9132 263.03 80.8577 261.298C82.1664 261.298 82.1664 262.61 86.0924 263.921C86.7991 264.158 85.5166 262.728 85.0978 259.672C84.679 256.616 84.7444 253.311 85.5427 250.228L98.0667 202.171L85.5689 198.394H85.5558Z" fill="#EA8947"/>
<path d="M93.4472 220.534L78.5415 224.337L80.0203 218.173L93.4472 220.534Z" fill="#B55515"/>
<path d="M95.345 189.658C92.1387 188.937 88.8409 190.275 87.3883 191.783C84.1166 197.305 77.0236 214.526 76.9189 220.638H97.8576L99.0354 194.695C99.1401 192.36 97.6221 190.17 95.345 189.658Z" fill="#F4F3D9"/>
</g>
<defs>
<clipPath id="clip0_2066_3744">
<rect width="382" height="260" fill="white" transform="translate(4 132)"/>
</clipPath>
</defs>
</svg>
