<svg width="18" height="18" viewBox="0 0 18 18" fill="none" xmlns="http://www.w3.org/2000/svg">
<g clip-path="url(#clip0_940_4105)">
<path d="M8.55176 2.42578V0.632812C8.55176 0.513931 8.59898 0.399919 8.68305 0.315857C8.76711 0.231796 8.88112 0.18457 9 0.18457C9.11888 0.18457 9.23289 0.231796 9.31696 0.315857C9.40102 0.399919 9.44824 0.513931 9.44824 0.632812V2.42578C9.44824 2.54466 9.40102 2.65867 9.31696 2.74274C9.23289 2.8268 9.11888 2.87402 9 2.87402C8.88112 2.87402 8.76711 2.8268 8.68305 2.74274C8.59898 2.65867 8.55176 2.54466 8.55176 2.42578ZM13.6318 9C13.6318 9.91609 13.3602 10.8116 12.8512 11.5733C12.3423 12.335 11.6189 12.9287 10.7725 13.2793C9.92617 13.6298 8.99486 13.7216 8.09637 13.5428C7.19789 13.3641 6.37257 12.923 5.7248 12.2752C5.07702 11.6274 4.63588 10.8021 4.45716 9.90363C4.27844 9.00514 4.37017 8.07383 4.72074 7.22747C5.07131 6.38112 5.66499 5.65772 6.42669 5.14877C7.18839 4.63982 8.08391 4.36816 9 4.36816C10.228 4.36955 11.4053 4.85799 12.2737 5.72633C13.142 6.59466 13.6305 7.77199 13.6318 9ZM12.7354 9C12.7354 8.26122 12.5163 7.53903 12.1058 6.92475C11.6954 6.31047 11.112 5.83171 10.4295 5.54899C9.74691 5.26627 8.99586 5.19229 8.27127 5.33642C7.54668 5.48055 6.88111 5.83631 6.35871 6.35871C5.83631 6.88111 5.48055 7.54668 5.33642 8.27127C5.19229 8.99586 5.26627 9.74691 5.54899 10.4295C5.83171 11.112 6.31047 11.6954 6.92475 12.1058C7.53903 12.5163 8.26122 12.7354 9 12.7354C9.99031 12.7342 10.9397 12.3402 11.64 11.64C12.3402 10.9397 12.7342 9.99031 12.7354 9ZM3.90199 4.53551C3.94303 4.57955 3.99251 4.61487 4.0475 4.63937C4.10248 4.66387 4.16184 4.67704 4.22202 4.6781C4.28221 4.67917 4.34199 4.66809 4.39781 4.64555C4.45362 4.62301 4.50432 4.58945 4.54689 4.54689C4.58945 4.50432 4.62301 4.45362 4.64555 4.39781C4.66809 4.34199 4.67917 4.28221 4.6781 4.22202C4.67704 4.16184 4.66387 4.10248 4.63937 4.0475C4.61487 3.99251 4.57955 3.94303 4.53551 3.90199L3.3402 2.70668C3.25522 2.6275 3.14284 2.5844 3.02671 2.58645C2.91059 2.5885 2.79979 2.63554 2.71766 2.71766C2.63554 2.79979 2.5885 2.91059 2.58645 3.02671C2.5844 3.14284 2.6275 3.25522 2.70668 3.3402L3.90199 4.53551ZM3.90199 13.4645L2.70668 14.6598C2.66264 14.7008 2.62732 14.7503 2.60282 14.8053C2.57832 14.8603 2.56515 14.9197 2.56408 14.9798C2.56302 15.04 2.57409 15.0998 2.59664 15.1556C2.61918 15.2114 2.65274 15.2621 2.6953 15.3047C2.73787 15.3473 2.78857 15.3808 2.84438 15.4034C2.9002 15.4259 2.95998 15.437 3.02016 15.4359C3.08035 15.4349 3.1397 15.4217 3.19469 15.3972C3.24967 15.3727 3.29916 15.3374 3.3402 15.2933L4.53551 14.098C4.57955 14.057 4.61487 14.0075 4.63937 13.9525C4.66387 13.8975 4.67704 13.8382 4.6781 13.778C4.67917 13.7178 4.66809 13.658 4.64555 13.6022C4.62301 13.5464 4.58945 13.4957 4.54689 13.4531C4.50432 13.4106 4.45362 13.377 4.39781 13.3545C4.34199 13.3319 4.28221 13.3208 4.22202 13.3219C4.16184 13.323 4.10248 13.3361 4.0475 13.3606C3.99251 13.3851 3.94303 13.4205 3.90199 13.4645ZM13.7812 4.66699C13.9001 4.66689 14.014 4.61959 14.098 4.53551L15.2933 3.3402C15.3725 3.25522 15.4156 3.14284 15.4136 3.02671C15.4115 2.91059 15.3645 2.79979 15.2823 2.71766C15.2002 2.63554 15.0894 2.5885 14.9733 2.58645C14.8572 2.5844 14.7448 2.6275 14.6598 2.70668L13.4645 3.90199C13.4019 3.96468 13.3593 4.04451 13.342 4.13141C13.3247 4.21831 13.3336 4.30837 13.3675 4.39023C13.4014 4.47209 13.4588 4.54207 13.5324 4.59132C13.6061 4.64058 13.6927 4.66691 13.7812 4.66699ZM14.098 13.4645C14.013 13.3853 13.9006 13.3422 13.7845 13.3443C13.6684 13.3463 13.5576 13.3934 13.4755 13.4755C13.3934 13.5576 13.3463 13.6684 13.3443 13.7845C13.3422 13.9006 13.3853 14.013 13.4645 14.098L14.6598 15.2933C14.7448 15.3725 14.8572 15.4156 14.9733 15.4136C15.0894 15.4115 15.2002 15.3645 15.2823 15.2823C15.3645 15.2002 15.4115 15.0894 15.4136 14.9733C15.4156 14.8572 15.3725 14.7448 15.2933 14.6598L14.098 13.4645ZM2.87402 9C2.87402 8.88112 2.8268 8.76711 2.74274 8.68305C2.65867 8.59898 2.54466 8.55176 2.42578 8.55176H0.632812C0.513931 8.55176 0.399919 8.59898 0.315857 8.68305C0.231796 8.76711 0.18457 8.88112 0.18457 9C0.18457 9.11888 0.231796 9.23289 0.315857 9.31696C0.399919 9.40102 0.513931 9.44824 0.632812 9.44824H2.42578C2.54466 9.44824 2.65867 9.40102 2.74274 9.31696C2.8268 9.23289 2.87402 9.11888 2.87402 9ZM9 15.126C8.88112 15.126 8.76711 15.1732 8.68305 15.2573C8.59898 15.3413 8.55176 15.4553 8.55176 15.5742V17.3672C8.55176 17.4861 8.59898 17.6001 8.68305 17.6841C8.76711 17.7682 8.88112 17.8154 9 17.8154C9.11888 17.8154 9.23289 17.7682 9.31696 17.6841C9.40102 17.6001 9.44824 17.4861 9.44824 17.3672V15.5742C9.44824 15.4553 9.40102 15.3413 9.31696 15.2573C9.23289 15.1732 9.11888 15.126 9 15.126ZM17.3672 8.55176H15.5742C15.4553 8.55176 15.3413 8.59898 15.2573 8.68305C15.1732 8.76711 15.126 8.88112 15.126 9C15.126 9.11888 15.1732 9.23289 15.2573 9.31696C15.3413 9.40102 15.4553 9.44824 15.5742 9.44824H17.3672C17.4861 9.44824 17.6001 9.40102 17.6841 9.31696C17.7682 9.23289 17.8154 9.11888 17.8154 9C17.8154 8.88112 17.7682 8.76711 17.6841 8.68305C17.6001 8.59898 17.4861 8.55176 17.3672 8.55176Z" fill="black" stroke="black" stroke-width="0.5"/>
</g>
<defs>
<clipPath id="clip0_940_4105">
<rect width="18" height="18" fill="white"/>
</clipPath>
</defs>
</svg>
