<svg width="19" height="19" viewBox="0 0 19 19" fill="none" xmlns="http://www.w3.org/2000/svg">
<path d="M15.4284 8.07144C15.4284 8.07144 17.0562 8.07144 17.9999 8.07144C18.9436 8.07144 18.9785 9.35715 17.9999 9.35715C17.0212 9.35715 15.4284 9.35715 15.4284 9.35715C14.5368 9.35715 14.4089 8.07144 15.4284 8.07144ZM13.4999 4.59101L15.3179 2.77301C15.9659 2.125 16.8749 3.03401 16.2269 3.68201L14.4089 5.50001C13.8749 5.98688 13.013 5.09351 13.4999 4.59101ZM13.4999 12.8376C13.013 12.25 13.8749 11.5 14.4089 11.9286L16.2269 13.7466C16.8749 14.5 15.7499 15.25 15.3179 14.6556L13.4999 12.8376ZM9.64272 1.00001C9.64272 0.249999 10.9284 0.249995 10.9284 1.00001C10.9284 1.75002 10.9284 3.57144 10.9284 3.57144C10.8749 4.375 9.64272 4.2143 9.64272 3.57144C9.64272 3.57144 9.64272 1.75002 9.64272 1.00001ZM10.2856 4.85715C10.0701 4.85855 9.85503 4.87791 9.64272 4.91501C8.83725 5.05577 8.62486 6.25 9.64272 6.23415C9.85223 6.17639 10.0683 6.14571 10.2856 6.14287C10.9676 6.14287 11.6216 6.41378 12.1039 6.89602C12.5861 7.37826 12.857 8.03231 12.857 8.71429C12.857 9.39628 12.5861 10.0503 12.1039 10.5326C11.6216 11.0148 10.9676 11.2857 10.2856 11.2857C9.49523 11.2857 9.47673 12.5714 10.2856 12.5714C11.0944 12.5714 12.2896 12.1651 13.013 11.4417C13.7363 10.7184 14.1427 9.73727 14.1427 8.71429C14.1427 7.69132 13.7363 6.71024 13.013 5.98688C12.2896 5.26353 11.3086 4.85715 10.2856 4.85715ZM5.14272 12.6897V4.2143C5.14272 3.47123 3.85701 3.47055 3.85701 4.2143V12.6897C3.42808 12.8414 3.06658 13.1398 2.83639 13.5322C2.60619 13.9246 2.52214 14.3857 2.59907 14.8341C2.676 15.2825 2.90897 15.6893 3.2568 15.9825C3.60463 16.2757 4.04492 16.4366 4.49986 16.4366C4.95481 16.4366 5.3951 16.2757 5.74293 15.9825C6.09076 15.6893 6.32373 15.2825 6.40066 14.8341C6.47759 14.3857 6.39353 13.9246 6.16334 13.5322C5.93315 13.1398 5.57164 12.8414 5.14272 12.6897Z" fill="black"/>
<path d="M4.49958 19C3.61371 19.001 2.74729 18.7402 2.00912 18.2505C1.27094 17.7607 0.693928 17.0638 0.350527 16.2471C0.00712582 15.4305 -0.0873526 14.5307 0.0789554 13.6605C0.245263 12.7904 0.664944 11.9888 1.2853 11.3564V4.21429C1.2853 3.3618 1.62394 2.54424 2.22674 1.94144C2.82954 1.33865 3.6471 1 4.49958 1C5.35206 1 6.16963 1.33865 6.77243 1.94144C7.37522 2.54424 7.71387 3.3618 7.71387 4.21429V11.3564C8.33422 11.9888 8.7539 12.7904 8.92021 13.6605C9.08652 14.5307 8.99204 15.4305 8.64864 16.2471C8.30524 17.0638 7.72822 17.7607 6.99005 18.2505C6.25188 18.7402 5.38546 19.001 4.49958 19ZM4.49958 2.28571C3.98825 2.28622 3.49801 2.48958 3.13644 2.85114C2.77487 3.21271 2.57152 3.70295 2.57101 4.21429V11.9176L2.35758 12.1099C1.87215 12.5437 1.52992 13.1148 1.37618 13.7475C1.22245 14.3801 1.26447 15.0445 1.49668 15.6528C1.72889 16.2611 2.14034 16.7845 2.67656 17.1537C3.21279 17.523 3.84851 17.7207 4.49958 17.7207C5.15065 17.7207 5.78638 17.523 6.3226 17.1537C6.85883 16.7845 7.27028 16.2611 7.50248 15.6528C7.73469 15.0445 7.77671 14.3801 7.62298 13.7475C7.46925 13.1148 7.12702 12.5437 6.64158 12.1099L6.42815 11.9176V4.21429C6.42764 3.70295 6.22429 3.21271 5.86272 2.85114C5.50116 2.48958 5.01091 2.28622 4.49958 2.28571Z" fill="black"/>
</svg>
