<svg width="19" height="15" viewBox="0 0 19 15" fill="none" xmlns="http://www.w3.org/2000/svg">
<path d="M1.50781 1H17.4169M2.30327 4.13086L2.31122 4.12227M2.30327 10.377L2.31122 10.3684M4.68963 7.2539L4.69759 7.24532M4.68963 13.5L4.69759 13.4914M7.07599 4.13086L7.08395 4.12227M7.07599 10.377L7.08395 10.3684M9.46236 7.2539L9.47031 7.24532M9.46236 13.5L9.47031 13.4914M11.8487 4.13086L11.8567 4.12227M11.8487 10.377L11.8567 10.3684M14.2351 7.2539L14.243 7.24532M14.2351 13.5L14.243 13.4914M16.6214 4.13086L16.6294 4.12227M16.6214 10.377L16.6294 10.3684" stroke="#14171F" stroke-width="1.5" stroke-linecap="round" stroke-linejoin="round"/>
</svg>
