<svg width="20" height="17" viewBox="0 0 20 17" fill="none" xmlns="http://www.w3.org/2000/svg">
<path d="M1 1L1 13C1 14.6569 2.34315 16 4 16H16C17.6569 16 19 14.6569 19 13V4C19 2.34315 17.6569 1 16 1H11.8837M6.02326 1H8.53488M5.60465 12.6667V10.1667M5.60465 10.1667V7.25H6.65795C7.46336 7.25 8.11628 7.90292 8.11628 8.70833V8.70833C8.11628 9.51375 7.46336 10.1667 6.65795 10.1667H5.60465ZM10.6279 4.75V7.45833M10.6279 10.1667V7.45833M13.9767 4.75V7.45833M13.9767 10.1667V7.45833M10.6279 7.45833H13.9767" stroke="black" stroke-width="1.5" stroke-linecap="round" stroke-linejoin="round"/>
</svg>
