<svg width="20" height="17" viewBox="0 0 20 17" fill="none" xmlns="http://www.w3.org/2000/svg">
<path d="M16.5004 3.47C15.7605 4.2 15.5705 5.25 15.9204 6.15L13.0008 9.07V7C13.0008 6.45 12.5508 6 12.0009 6H10.971C11.001 5.83 11.001 5.67 11.001 5.5C11.001 2.46 8.54123 2.41872e-06 5.50156 2.41872e-06C4.36888 -0.00105997 3.26352 0.347883 2.3367 0.999099C1.40988 1.65031 0.706868 2.572 0.323825 3.63807C-0.0592184 4.70414 -0.103583 5.86253 0.196801 6.95478C0.497184 8.04703 1.12765 9.01979 2.00194 9.74V16C2.00194 16.55 2.45189 17 3.00183 17H12.0009C12.5508 17 13.0008 16.55 13.0008 16V11.89L17.3303 7.56C18.2302 7.91 19.2801 7.73 20 7L16.5004 3.47ZM2.05193 6C2.03194 5.83 2.00194 5.67 2.00194 5.5C2.00194 3.57 3.57177 2 5.50156 2C7.43135 2 9.00119 3.57 9.00119 5.5C9.00119 5.67 8.97119 5.83 8.95119 6H2.05193Z" fill="#417DBB"/>
</svg>
