<svg width="16" height="16" viewBox="0 0 16 16" fill="none" xmlns="http://www.w3.org/2000/svg">
<path d="M15.0986 1.33333L5.11069 11.2333M10.4493 10.0667L15.0986 14.6667M5.11069 4.76667L8.37272 8M5.85053 3C5.85053 4.38071 4.72131 5.5 3.32834 5.5C1.93538 5.5 0.806152 4.38071 0.806152 3C0.806152 1.61929 1.93538 0.5 3.32834 0.5C4.72131 0.5 5.85053 1.61929 5.85053 3ZM5.85053 13C5.85053 14.3807 4.72131 15.5 3.32834 15.5C1.93538 15.5 0.806152 14.3807 0.806152 13C0.806152 11.6193 1.93538 10.5 3.32834 10.5C4.72131 10.5 5.85053 11.6193 5.85053 13Z" stroke="#178075" stroke-linecap="round" stroke-linejoin="round"/>
</svg>
