<svg width="20" height="18" viewBox="0 0 20 18" fill="none" xmlns="http://www.w3.org/2000/svg">
<path d="M1.6665 10H4.99984M14.1665 10H18.3332M2.49984 16.675L2.50817 16.6659M4.99984 13.3417L5.00817 13.3325M7.49984 16.675L7.50817 16.6659M9.99984 13.3417L10.0082 13.3325M12.4998 16.675L12.5082 16.6659M14.9998 13.3417L15.0082 13.3325M17.4998 16.675L17.5082 16.6659M7.49984 10.8334C7.49984 10.8334 8.24984 7.71587 9.99984 5.83337" stroke="#BC6F5E" stroke-width="1.5" stroke-linecap="round" stroke-linejoin="round"/>
<path d="M13.4881 1.86752L13.7997 5.10918C14.0022 7.21168 12.4256 9.08418 10.3231 9.28585C8.26058 9.48418 6.39142 7.97668 6.19308 5.91335C6.09766 4.92278 6.39962 3.93486 7.03254 3.16691C7.66547 2.39897 8.57752 1.91388 9.56808 1.81835L13.0239 1.48502C13.0796 1.47962 13.1358 1.48526 13.1892 1.50162C13.2427 1.51797 13.2924 1.54472 13.3356 1.58034C13.3787 1.61595 13.4144 1.65972 13.4405 1.70914C13.4667 1.75857 13.4829 1.81267 13.4881 1.86835V1.86752Z" stroke="#BC6F5E" stroke-width="1.5" stroke-linecap="round" stroke-linejoin="round"/>
</svg>
