<svg width="390" height="604" viewBox="0 0 390 604" fill="none" xmlns="http://www.w3.org/2000/svg">
<g clip-path="url(#clip0_1181_4365)">
<path d="M-24 387.661C0.907492 382.218 9.89992 383.785 43.9956 387.661C78.0913 391.536 107.852 390.781 128.634 387.661C149.415 384.541 168.995 378.944 187.175 378.944C205.356 378.944 224.488 387.996 241.493 387.661C258.499 387.325 283.141 390.781 296.693 387.661C310.244 384.541 323.544 383.463 337.18 378.398C350.815 373.333 358.339 375.068 372.758 378.398C387.176 381.728 412.014 378.398 412.014 378.398V613.986H-24V387.647V387.661Z" fill="#513227"/>
<path d="M120.047 558.631V537.056C120.047 534.328 122.257 532.103 124.998 532.103H139.962C142.689 532.103 144.912 529.892 144.912 527.15C144.912 524.422 147.122 522.197 149.863 522.197H173.75C176.477 522.197 178.7 519.987 178.7 517.244V510.402C178.7 507.674 180.91 505.449 183.651 505.449H189.623C192.35 505.449 194.574 503.239 194.574 500.496V493.543" stroke="#AEC05C" stroke-width="6" stroke-linecap="round" stroke-linejoin="round"/>
<path d="M162.701 489.373H216.488C219.215 489.373 221.439 487.163 221.439 484.42V470.527C221.439 467.798 223.648 465.574 226.389 465.574H234.697C237.424 465.574 239.647 463.363 239.647 460.621V453.723C239.647 450.995 241.857 448.784 244.584 448.77L269.45 448.742" stroke="#AEC05C" stroke-width="6" stroke-linecap="round" stroke-linejoin="round"/>
<path d="M220.74 584.165V545.815C220.74 543.086 222.949 540.862 225.69 540.862H234.11C236.837 540.862 239.06 538.651 239.06 535.909V486.967C239.06 484.238 241.27 482.014 244.011 482.014H265.087C267.814 482.014 270.037 479.803 270.037 477.061V452.184" stroke="#AEC05C" stroke-width="6" stroke-linecap="round" stroke-linejoin="round"/>
<path d="M270.387 448.826H301.797C304.524 448.826 306.748 451.037 306.748 453.779V478.628C306.748 481.356 308.958 483.581 311.699 483.581H320.006C322.733 483.581 324.957 485.791 324.957 488.534V504.274C324.957 507.002 327.166 509.213 329.893 509.227L354.759 509.255" stroke="#AEC05C" stroke-width="6" stroke-linecap="round" stroke-linejoin="round"/>
<path d="M289.994 451.596V493.487C289.994 496.215 287.784 498.44 285.043 498.44H271.827C269.1 498.44 266.876 500.65 266.876 503.393V526.604C266.876 529.333 269.086 531.557 271.827 531.557H303.867C306.594 531.557 308.818 533.768 308.818 536.51V547.004C308.818 549.732 311.027 551.957 313.769 551.957H339.557C342.284 551.957 344.508 554.168 344.508 556.91V567.054" stroke="#AEC05C" stroke-width="6" stroke-linecap="round" stroke-linejoin="round"/>
<path d="M270.387 446.103L271.086 104.712" stroke="#AEC05C" stroke-width="11" stroke-linecap="round" stroke-linejoin="round"/>
<path d="M224.935 138.767H230.893C238.081 138.767 243.899 149.345 243.899 162.399V179.93C243.899 192.984 249.717 203.561 256.905 203.561H266.89" stroke="#89B550" stroke-width="7" stroke-linecap="round" stroke-linejoin="round"/>
<path d="M275 346H281.959C290.353 346 297.146 336.695 297.146 325.211V309.789C297.146 298.305 303.953 289 312.333 289H324" stroke="#AEC05C" stroke-width="7" stroke-linecap="round" stroke-linejoin="round"/>
<path d="M277.176 172.395H282.644C289.231 172.395 294.56 168.296 294.56 163.245V156.459C294.56 151.408 299.902 147.308 306.475 147.308H315.621" stroke="#AEC05C" stroke-width="7" stroke-linecap="round" stroke-linejoin="round"/>
<path d="M280.176 267.936H287.225C295.728 267.936 302.608 257.498 302.608 244.626V227.347C302.608 214.475 309.503 204.037 317.992 204.037H329.809" stroke="#AEC05C" stroke-width="7" stroke-linecap="round" stroke-linejoin="round"/>
<path d="M225.634 281.004H231.102C237.689 281.004 243.018 287.776 243.018 296.143V307.378C243.018 315.745 248.36 322.516 254.933 322.516H264.079" stroke="#89B550" stroke-width="7" stroke-linecap="round" stroke-linejoin="round"/>
<path d="M308.049 293.399V286.263C308.049 267.808 323.027 252.824 341.473 252.824H372.38V259.959C372.38 278.414 357.402 293.399 338.956 293.399H308.049Z" fill="#89B550"/>
<path d="M358.668 121.502C358.668 138.053 345.242 151.485 328.698 151.485H305.664C305.664 134.933 319.09 121.502 335.634 121.502H358.668Z" fill="#89B550"/>
<path d="M189.972 216.643H213.006C229.55 216.643 242.976 230.075 242.976 246.627H219.942C203.398 246.627 189.972 233.195 189.972 216.643Z" fill="#AEC05C"/>
<path d="M184.378 332.912V325.777H215.286C233.732 325.777 248.71 340.761 248.71 359.216V366.352H217.803C199.356 366.352 184.378 351.367 184.378 332.912Z" fill="#AEC05C"/>
<path d="M200.461 310.498C217.067 310.498 230.529 297.03 230.529 280.416C230.529 263.803 217.067 250.335 200.461 250.335C183.855 250.335 170.393 263.803 170.393 280.416C170.393 297.03 183.855 310.498 200.461 310.498Z" fill="#C16614"/>
<path d="M200.461 250.335C183.861 250.335 170.393 263.808 170.393 280.416C170.393 297.024 183.861 310.498 200.461 310.498C200.699 310.498 200.923 310.47 201.16 310.456V250.363C200.923 250.363 200.699 250.321 200.461 250.321V250.335Z" fill="#994500"/>
<path d="M200.461 293.708C207.799 293.708 213.747 287.757 213.747 280.416C213.747 273.075 207.799 267.124 200.461 267.124C193.124 267.124 187.175 273.075 187.175 280.416C187.175 287.757 193.124 293.708 200.461 293.708Z" fill="#AEC05C"/>
<path d="M200.461 169.073C217.067 169.073 230.529 155.605 230.529 138.991C230.529 122.377 217.067 108.91 200.461 108.91C183.855 108.91 170.393 122.377 170.393 138.991C170.393 155.605 183.855 169.073 200.461 169.073Z" fill="#F4A947"/>
<path d="M200.461 108.909C183.861 108.909 170.393 122.383 170.393 138.991C170.393 155.599 183.861 169.072 200.461 169.072C200.699 169.072 200.923 169.044 201.16 169.03V108.937C200.923 108.937 200.699 108.895 200.461 108.895V108.909Z" fill="#FFCF48"/>
<path d="M210.95 129.896H191.371V149.484H210.95V129.896Z" fill="#C16614"/>
<path d="M272.485 295.695C295.27 295.695 313.741 277.216 313.741 254.42C313.741 231.625 295.27 213.145 272.485 213.145C249.699 213.145 231.229 231.625 231.229 254.42C231.229 277.216 249.699 295.695 272.485 295.695Z" fill="#F4A947"/>
<path d="M272.485 213.145C249.703 213.145 231.229 231.628 231.229 254.42C231.229 277.212 249.703 295.695 272.485 295.695C272.806 295.695 273.128 295.653 273.45 295.653V213.201C273.128 213.201 272.82 213.159 272.485 213.159V213.145Z" fill="#FFCF48"/>
<path d="M286.875 241.94H260.01V268.817H286.875V241.94Z" fill="#C16614"/>
<path d="M374.576 195.95C362.521 181.455 342.998 181.455 330.942 195.95C342.998 210.445 362.521 210.445 374.576 195.95Z" fill="#FFCF48"/>
<path d="M374.576 225.766C362.521 211.271 342.998 211.271 330.942 225.766C342.998 240.261 362.521 240.261 374.576 225.766Z" fill="#FFCF48"/>
<path d="M330.942 210.473C342.998 224.968 362.521 224.968 374.576 210.473C362.521 195.978 342.998 195.978 330.942 210.473Z" fill="#F4A947"/>
<path d="M374.576 179.93C362.521 165.435 342.998 165.435 330.942 179.93C342.998 194.425 362.521 194.425 374.576 179.93Z" fill="#F4A947"/>
<path d="M349.039 236.217C336.886 236.217 327.027 226.353 327.027 214.195V192.466C327.027 180.308 336.886 170.444 349.039 170.444V236.203V236.217Z" fill="#AEC05C"/>
<path d="M270.498 149.484C287.728 135.549 288.05 112.575 271.226 98.1499C253.996 112.085 253.674 135.059 270.498 149.484Z" fill="#FFCF48"/>
<path d="M235.871 140.53C257.604 136.207 268.568 116.003 260.359 95.4216C238.626 99.7449 227.662 119.949 235.871 140.53Z" fill="#FFCF48"/>
<path d="M209.369 116.507C230.627 122.775 249.702 109.987 252.01 87.9501C230.752 81.682 211.677 94.4701 209.369 116.507Z" fill="#FFCF48"/>
<path d="M197.062 82.9272C212.964 98.3598 235.801 95.9113 248.08 77.4566C232.179 62.024 209.341 64.4725 197.062 82.9272Z" fill="#FFCF48"/>
<path d="M201.775 47.4589C208.684 68.516 230.053 76.9669 249.493 66.3334C242.584 45.2763 221.215 36.8254 201.775 47.4589Z" fill="#FFCF48"/>
<path d="M222.417 18.2448C218.753 40.0994 233.745 57.5188 255.898 57.141C259.562 35.2864 244.57 17.8671 222.417 18.2448Z" fill="#FFCF48"/>
<path d="M254.261 1.97279C240.864 19.63 246.052 42.0163 265.841 51.9782C279.239 34.321 274.05 11.9347 254.261 1.97279Z" fill="#FFCF48"/>
<path d="M290.022 2.36455C269.953 11.7668 264.149 33.9992 277.044 52.0341C297.112 42.6319 302.916 20.3995 290.022 2.36455Z" fill="#FFCF48"/>
<path d="M321.488 19.3501C299.349 18.3428 283.882 35.3284 286.917 57.2949C309.055 58.3023 324.523 41.3167 321.488 19.3501Z" fill="#FFCF48"/>
<path d="M341.473 49.012C322.341 37.8328 300.748 45.682 293.238 66.5293C312.37 77.7084 333.963 69.8592 341.473 49.012Z" fill="#FFCF48"/>
<path d="M345.388 84.5782C333.641 65.7877 310.873 62.6956 294.539 77.6664C306.286 96.4569 329.054 99.549 345.388 84.5782Z" fill="#FFCF48"/>
<path d="M332.34 117.878C330.662 95.7713 311.95 82.4515 290.525 88.118C292.203 110.224 310.915 123.544 332.34 117.878Z" fill="#FFCF48"/>
<path d="M305.307 141.299C314.09 120.956 303.699 100.444 282.106 95.5055C273.323 115.849 283.714 136.36 305.307 141.299Z" fill="#FFCF48"/>
<path d="M271.337 115.177C293.659 115.177 311.754 97.074 311.754 74.7422C311.754 52.4105 293.659 34.307 271.337 34.307C249.016 34.307 230.92 52.4105 230.92 74.7422C230.92 97.074 249.016 115.177 271.337 115.177Z" fill="#E8822E"/>
<path d="M271.337 34.307C249.017 34.307 230.92 52.4119 230.92 74.7422C230.92 97.0726 249.017 115.177 271.337 115.177C271.659 115.177 271.967 115.135 272.274 115.135V34.349C271.953 34.349 271.645 34.307 271.337 34.307Z" fill="#C16614"/>
<path d="M271.785 87.9222C279.122 87.9222 285.071 81.9712 285.071 74.6303C285.071 67.2894 279.122 61.3384 271.785 61.3384C264.447 61.3384 258.499 67.2894 258.499 74.6303C258.499 81.9712 264.447 87.9222 271.785 87.9222Z" fill="#AEC05C"/>
</g>
<defs>
<clipPath id="clip0_1181_4365">
<rect width="436" height="614" fill="white" transform="translate(-24)"/>
</clipPath>
</defs>
</svg>
