<svg width="300" height="263" viewBox="0 0 300 263" fill="none" xmlns="http://www.w3.org/2000/svg">
<path d="M233.94 63.8424C246.388 19.5364 214.542 -37.0677 159.963 61.9895C159.963 -26.0696 118.41 -7.31616 112.29 38.3048C41.2917 0.364541 20.8709 32.8058 75.5534 94.5951C-19.2888 122.748 -34.8637 162.675 86.9642 160.972C74.5161 205.278 106.022 226.602 142.773 198.001C172.678 259.267 226.531 296.923 208.599 186.495C273.107 197.702 357.146 161.839 245.321 130.219C301.663 98.3159 318.068 46.897 233.91 63.8424H233.94Z" fill="#B8E05D"/>
<g clip-path="url(#clip0_1680_4885)">
<path d="M114.069 263H190.982C194.275 225.332 186.121 176.251 174.158 123.372L126.484 122.314C115.152 168.349 111.754 215.399 114.069 263Z" fill="#4F7CE3"/>
<path d="M190.982 263H159.396C160.354 220.519 165.857 178.779 177.441 138.244C187.563 185.422 193.97 228.886 190.982 263Z" fill="#2864C6"/>
<path d="M140.258 76.3106H158.239V106.447H140.258V76.3106Z" fill="#FFD9CC"/>
<path d="M140.258 87.5973L158.239 98.4925V83.0805L140.258 87.5973Z" fill="#EF8989"/>
<path d="M160.48 69.5302C169.613 54.5202 139.321 51.7593 131.272 62.7498C132.651 73.4335 131.746 83.1757 134.902 85.2913C139.395 89.8081 151.505 89.8609 158.239 83.0805C167.225 78.5637 164.984 60.2005 160.491 69.5302H160.48Z" fill="#FFD9CC"/>
<path d="M93.8675 162.817C91.4685 183.126 94.8776 192.276 114.911 192.128C118.225 160.479 123.328 135.007 126.485 122.314C138.059 123.372 154.893 123.372 169.624 123.372C173.832 145.025 183.512 155.306 164.815 160.775C163.079 161.283 161.722 162.7 161.354 164.477C158.755 177.044 158.05 191.07 167.519 195.301C189.615 201.648 209.375 187.939 215.919 175.51C223.284 161.759 198.79 121.224 189.615 109.927C183.228 104.628 176.137 100.608 167.519 99.3493C165.099 96.1336 162.648 94.0498 160.154 93.0026C156.998 91.9448 147.528 101.158 144.372 105.389C141.215 101.158 142.267 94.0604 138.059 93.0026C137.038 92.7487 137.006 97.2337 134.902 98.2915C132.798 99.3493 130.693 99.3493 126.485 100.407C113.869 110.583 102.485 136.404 93.8675 162.817Z" fill="#F2F3F4"/>
<path d="M135.281 45.8674C136.249 45.6136 137.29 46.8829 136.585 47.6022C135.944 48.2686 135.944 49.3264 136.996 49.3264C171.728 31.344 184.354 74.7134 158.05 83.1757C166.467 76.829 162.258 65.1933 155.945 72.5978C156.997 66.2511 144.371 71.54 132.798 66.2511C123.328 62.0199 127.663 47.8455 135.291 45.8674H135.281Z" fill="#E06A19"/>
<path d="M168.571 161.452C178.083 163.568 175.894 194.244 167.519 194.244C159.144 194.244 159.059 159.337 168.571 161.452Z" fill="#C9DBE2"/>
<path d="M105.651 158.363C119.782 160.183 116.51 187.897 104.094 187.897C91.6785 187.897 88.6062 156.163 105.651 158.363Z" fill="#E6FAFF"/>
<path d="M170.675 100.1C180.187 102.216 171.728 119.141 170.675 125.487C169.297 133.791 161.164 97.9847 170.675 100.1Z" fill="#C9DBE2"/>
<path d="M126.484 122.314C135.848 125.054 130.156 106.722 132.261 100.65C135.017 92.7063 117.12 119.574 126.484 122.314Z" fill="#C9DBE2"/>
<path d="M77.548 184.724C71.3192 183.327 73.1184 179.583 72.2135 176.378C71.3087 173.172 72.2135 168.328 75.8435 168.328C75.8435 168.328 70.4143 169.936 72.224 166.72C73.1289 165.112 78.5791 166.191 81.2832 166.72C82.9351 167.048 91.4367 158.258 92.6782 158.289C97.3078 158.374 99.2332 180.27 96.2345 183.338C94.8667 184.734 86.4494 184.734 77.5586 184.734L77.548 184.724Z" fill="#CE8F7E"/>
<path d="M77.9897 167.323C73.7916 167.915 71.6557 169.883 71.7609 174.283C71.9082 173.849 71.9398 173.405 72.0871 172.993C72.3501 171.808 72.8131 170.56 73.6127 169.703C74.7491 168.476 76.4641 168.032 77.9897 167.323Z" fill="#B7735E"/>
<path d="M202.314 144.792L175.147 153.952L202.314 149.372V144.792Z" fill="#C9DBE2"/>
<path d="M117.73 153.952C120.287 144.654 103.831 140.074 101.274 149.372C107.65 147.5 113.048 149.393 117.73 153.952Z" fill="#C9DBE2"/>
<path d="M100.706 142.941C107.019 154.576 98.6019 164.097 100.706 166.212" stroke="#169F91" stroke-width="3" stroke-miterlimit="10"/>
<path d="M121.223 154.048L84.7447 153.952C72.003 165.313 72.003 179.445 84.7447 196.359H120.171C137.006 182.608 134.902 161.452 121.223 154.048Z" fill="#723B16"/>
<path d="M119.898 195.947C111.144 194.688 114.921 191.303 113.648 188.405C112.375 185.506 112.406 181.127 117.499 181.127C117.499 181.127 109.86 182.576 112.406 179.678C113.679 178.229 121.35 179.191 125.138 179.678C127.463 179.974 168.834 163.98 170.57 164.128C175.947 164.615 175.568 185.496 173.074 186.754C171.023 187.781 132.408 195.936 119.908 195.936L119.898 195.947Z" fill="#FFD9CC"/>
<path d="M120.519 180.238C117.699 180.598 114.248 181.021 113.017 184.004C114.837 181.518 117.878 181.317 120.519 180.238Z" fill="#D38467"/>
<path d="M168.14 128.195C166.688 128.195 165.509 127.01 165.509 125.551C164.099 117.533 164.015 109.102 165.509 100.164C165.509 98.704 166.688 97.5193 168.14 97.5193C169.592 97.5193 170.77 98.704 170.77 100.164C168.697 108.34 168.834 116.824 170.77 125.551C170.77 127.01 169.592 128.195 168.14 128.195Z" fill="#163675"/>
<path d="M128.41 125.128C127.126 124.821 126.326 123.53 126.632 122.24C127.042 114.867 128.715 107.399 131.871 99.8147C132.177 98.5242 133.46 97.7203 134.744 98.027C136.027 98.3338 136.827 99.6243 136.522 100.915C133.008 107.706 131.377 115.227 131.282 123.34C130.977 124.63 129.693 125.434 128.41 125.128Z" fill="#163675"/>
<path d="M79.589 130.775C79.352 130.913 79.2712 131.216 79.408 131.454L82.8117 137.381C87.0257 144.719 96.368 147.236 103.667 142.999C103.904 142.862 103.985 142.558 103.848 142.32L100.444 136.393C96.2301 129.056 86.8877 126.539 79.589 130.775Z" fill="#169F91"/>
<path d="M120.281 128.733C112.355 125.852 103.598 129.979 100.732 137.947L98.4174 144.384C98.3244 144.642 98.457 144.927 98.7143 145.02C106.64 147.901 115.397 143.773 118.263 135.806L120.578 129.369C120.671 129.111 120.538 128.826 120.281 128.733Z" fill="#007769"/>
</g>
<defs>
<clipPath id="clip0_1680_4885">
<rect width="145.515" height="218" fill="white" transform="matrix(-1 0 0 1 217.276 45)"/>
</clipPath>
</defs>
</svg>
