<svg width="51" height="544" viewBox="0 0 51 544" fill="none" xmlns="http://www.w3.org/2000/svg">
<g filter="url(#filter0_d_1147_5672)">
<rect x="9" y="5" width="33" height="526" rx="16.5" fill="#FAFAFA"/>
</g>
<path d="M17 90H34.5" stroke="#169F91"/>
<path d="M17 161H34.5" stroke="#169F91"/>
<path d="M17 232H34.5" stroke="#169F91"/>
<path d="M17 303H34.5" stroke="#169F91"/>
<path d="M17 374H34.5" stroke="#169F91"/>
<path d="M17 445H34.5" stroke="#169F91"/>
<path d="M17 516H34.5" stroke="#169F91"/>
<path d="M17 19H34.5" stroke="#169F91"/>
<g filter="url(#filter1_b_1147_5672)">
<path fill-rule="evenodd" clip-rule="evenodd" d="M25.5 209C12.5213 209 2 219.521 2 232.5C2 239.049 4.67863 244.972 9 249.233V514.5C9 523.613 16.3873 531 25.5 531C34.6127 531 42 523.613 42 514.5V249.233C46.3214 244.972 49 239.049 49 232.5C49 219.521 38.4787 209 25.5 209Z" fill="#B8E05D" fill-opacity="0.58"/>
</g>
<circle cx="26.5" cy="232.5" r="13.5" fill="white"/>
<defs>
<filter id="filter0_d_1147_5672" x="0" y="0" width="51" height="544" filterUnits="userSpaceOnUse" color-interpolation-filters="sRGB">
<feFlood flood-opacity="0" result="BackgroundImageFix"/>
<feColorMatrix in="SourceAlpha" type="matrix" values="0 0 0 0 0 0 0 0 0 0 0 0 0 0 0 0 0 0 127 0" result="hardAlpha"/>
<feOffset dy="4"/>
<feGaussianBlur stdDeviation="4.5"/>
<feComposite in2="hardAlpha" operator="out"/>
<feColorMatrix type="matrix" values="0 0 0 0 0 0 0 0 0 0 0 0 0 0 0 0 0 0 0.1 0"/>
<feBlend mode="normal" in2="BackgroundImageFix" result="effect1_dropShadow_1147_5672"/>
<feBlend mode="normal" in="SourceGraphic" in2="effect1_dropShadow_1147_5672" result="shape"/>
</filter>
<filter id="filter1_b_1147_5672" x="-2" y="205" width="55" height="330" filterUnits="userSpaceOnUse" color-interpolation-filters="sRGB">
<feFlood flood-opacity="0" result="BackgroundImageFix"/>
<feGaussianBlur in="BackgroundImageFix" stdDeviation="2"/>
<feComposite in2="SourceAlpha" operator="in" result="effect1_backgroundBlur_1147_5672"/>
<feBlend mode="normal" in="SourceGraphic" in2="effect1_backgroundBlur_1147_5672" result="shape"/>
</filter>
</defs>
</svg>
