<svg width="15" height="19" viewBox="0 0 15 19" fill="none" xmlns="http://www.w3.org/2000/svg">
<path d="M2.10059 5.81679L1.10775 8.56018C1.08621 8.61969 1.0752 8.68249 1.0752 8.74577V17.4547C1.0752 17.7559 1.31937 18.0001 1.62058 18.0001H11.0728M11.0728 1.85012L9.9361 4.36286C9.8478 4.55804 9.65342 4.68345 9.4392 4.68345H1.94756C1.54459 4.68345 1.28077 4.26148 1.45727 3.89921L2.72031 1.30665C2.81167 1.11911 3.002 1.00012 3.2106 1.00012H11.2266C11.4444 1.00012 11.6413 1.12969 11.7275 1.32971L14.1045 6.84681C14.1339 6.91497 14.149 6.9884 14.149 7.06261V15.3756C14.149 15.7909 13.6822 16.0583 13.267 16.0486C13.0295 16.0431 12.7892 16.1031 12.6109 16.3001C12.2696 16.6773 11.9283 17.3056 11.7383 17.6836C11.642 17.875 11.4479 18.0001 11.2336 18.0001H11.0728M11.5855 4.68345L10.8279 8.59128C10.8203 8.63039 10.817 8.67021 10.8181 8.71003L11.0728 18.0001" stroke="#14171F" stroke-width="0.977333" stroke-linecap="round"/>
<path d="M5.36914 15.1665C7.48402 14.104 5.67676 12.4465 6.52271 10.9165" stroke="#14171F" stroke-width="0.977333" stroke-linecap="round" stroke-linejoin="round"/>
<path d="M5.17689 10.6617C5.59987 11.0017 5.86904 11.5967 6.0613 12.2342C5.29225 12.4042 4.71546 12.4042 4.21558 12.1067C3.75415 11.8517 3.33118 11.2992 3.06201 10.3217C4.13868 10.1092 4.75392 10.3217 5.17689 10.6617ZM6.9457 9.2167C6.65254 9.72311 6.50507 10.3158 6.52273 10.9167C7.25332 10.8742 7.79165 10.6617 8.17618 10.3217C8.5607 9.8967 8.79142 9.3442 8.82987 8.3667C7.79165 8.4092 7.29177 8.7917 6.9457 9.2167Z" stroke="#14171F" stroke-width="0.977333" stroke-linecap="round" stroke-linejoin="round"/>
</svg>
