<svg width="17" height="17" viewBox="0 0 17 17" fill="none" xmlns="http://www.w3.org/2000/svg">
<g clip-path="url(#clip0_2495_2803)">
<path d="M7.97396 2.29114V0.597778C7.97396 0.485502 8.01431 0.377823 8.08614 0.298432C8.15797 0.21904 8.2554 0.174438 8.35698 0.174438C8.45856 0.174438 8.55599 0.21904 8.62782 0.298432C8.69965 0.377823 8.74 0.485502 8.74 0.597778V2.29114C8.74 2.40341 8.69965 2.51109 8.62782 2.59048C8.55599 2.66988 8.45856 2.71448 8.35698 2.71448C8.2554 2.71448 8.15797 2.66988 8.08614 2.59048C8.01431 2.51109 7.97396 2.40341 7.97396 2.29114ZM12.3149 8.50012C12.3149 9.36532 12.0827 10.2111 11.6478 10.9305C11.2129 11.6499 10.5948 12.2105 9.8716 12.5416C9.14839 12.8727 8.35259 12.9594 7.58483 12.7906C6.81708 12.6218 6.11185 12.2052 5.55833 11.5934C5.00481 10.9816 4.62785 10.2021 4.47514 9.35355C4.32242 8.50497 4.4008 7.62541 4.70037 6.82607C4.99993 6.02673 5.50722 5.34353 6.15809 4.86285C6.80897 4.38217 7.57418 4.12561 8.35698 4.12561C9.40632 4.12692 10.4123 4.58822 11.1543 5.40832C11.8963 6.22842 12.3137 7.34033 12.3149 8.50012ZM11.5488 8.50012C11.5488 7.80238 11.3616 7.12031 11.0109 6.54016C10.6602 5.96001 10.1617 5.50784 9.57845 5.24083C8.99521 4.97382 8.35344 4.90395 7.73428 5.04008C7.11512 5.1762 6.54639 5.51219 6.1 6.00557C5.65361 6.49894 5.34962 7.12754 5.22646 7.81188C5.1033 8.49621 5.16651 9.20554 5.4081 9.85016C5.64968 10.4948 6.05879 11.0458 6.58368 11.4334C7.10858 11.8211 7.72569 12.028 8.35698 12.028C9.2032 12.0268 10.0145 11.6548 10.6128 10.9934C11.2112 10.3321 11.5478 9.43542 11.5488 8.50012ZM4.00075 4.28366C4.03581 4.32525 4.0781 4.35861 4.12508 4.38175C4.17206 4.40489 4.22278 4.41733 4.27421 4.41833C4.32564 4.41933 4.37673 4.40888 4.42442 4.38759C4.47211 4.36629 4.51543 4.3346 4.55181 4.2944C4.58818 4.2542 4.61685 4.20632 4.63611 4.15361C4.65538 4.10089 4.66484 4.04443 4.66393 3.98759C4.66302 3.93075 4.65177 3.87469 4.63083 3.82276C4.6099 3.77083 4.57971 3.72409 4.54208 3.68534L3.52069 2.55643C3.44808 2.48165 3.35205 2.44094 3.25282 2.44288C3.15359 2.44481 3.05892 2.48924 2.98874 2.5668C2.91856 2.64437 2.87837 2.74901 2.87662 2.85868C2.87486 2.96836 2.9117 3.0745 2.97935 3.15475L4.00075 4.28366ZM4.00075 12.7166L2.97935 13.8455C2.94172 13.8842 2.91154 13.931 2.89061 13.9829C2.86967 14.0348 2.85841 14.0909 2.85751 14.1477C2.8566 14.2046 2.86606 14.261 2.88532 14.3138C2.90459 14.3665 2.93326 14.4144 2.96963 14.4546C3.006 14.4948 3.04933 14.5265 3.09702 14.5477C3.14471 14.569 3.1958 14.5795 3.24723 14.5785C3.29865 14.5775 3.34937 14.565 3.39636 14.5419C3.44334 14.5188 3.48563 14.4854 3.52069 14.4438L4.54208 13.3149C4.57971 13.2762 4.6099 13.2294 4.63083 13.1775C4.65177 13.1256 4.66302 13.0695 4.66393 13.0127C4.66484 12.9558 4.65538 12.8994 4.63611 12.8466C4.61685 12.7939 4.58818 12.746 4.55181 12.7058C4.51543 12.6656 4.47211 12.6339 4.42442 12.6127C4.37673 12.5914 4.32564 12.5809 4.27421 12.5819C4.22278 12.5829 4.17206 12.5954 4.12508 12.6185C4.0781 12.6416 4.03581 12.675 4.00075 12.7166ZM12.4425 4.40784C12.5441 4.40774 12.6415 4.36307 12.7132 4.28366L13.7346 3.15475C13.8023 3.0745 13.8391 2.96836 13.8373 2.85868C13.8356 2.74901 13.7954 2.64437 13.7252 2.5668C13.655 2.48924 13.5604 2.44481 13.4611 2.44288C13.3619 2.44094 13.2659 2.48165 13.1933 2.55643L12.1719 3.68534C12.1184 3.74454 12.082 3.81994 12.0672 3.90201C12.0525 3.98408 12.06 4.06914 12.089 4.14645C12.118 4.22376 12.167 4.28985 12.2299 4.33637C12.2929 4.38289 12.3668 4.40776 12.4425 4.40784ZM12.7132 12.7166C12.6406 12.6418 12.5446 12.6011 12.4453 12.603C12.3461 12.605 12.2514 12.6494 12.1813 12.727C12.1111 12.8045 12.0709 12.9092 12.0691 13.0188C12.0674 13.1285 12.1042 13.2347 12.1719 13.3149L13.1933 14.4438C13.2659 14.5186 13.3619 14.5593 13.4611 14.5574C13.5604 14.5554 13.655 14.511 13.7252 14.4334C13.7954 14.3559 13.8356 14.2512 13.8373 14.1416C13.8391 14.0319 13.8023 13.9257 13.7346 13.8455L12.7132 12.7166ZM3.12235 8.50012C3.12235 8.38785 3.082 8.28017 3.01016 8.20078C2.93833 8.12138 2.84091 8.07678 2.73933 8.07678H1.20724C1.10566 8.07678 1.00823 8.12138 0.936403 8.20078C0.864573 8.28017 0.824219 8.38785 0.824219 8.50012C0.824219 8.6124 0.864573 8.72008 0.936403 8.79947C1.00823 8.87886 1.10566 8.92346 1.20724 8.92346H2.73933C2.84091 8.92346 2.93833 8.87886 3.01016 8.79947C3.082 8.72008 3.12235 8.6124 3.12235 8.50012ZM8.35698 14.2858C8.2554 14.2858 8.15797 14.3304 8.08614 14.4098C8.01431 14.4892 7.97396 14.5968 7.97396 14.7091V16.4025C7.97396 16.5147 8.01431 16.6224 8.08614 16.7018C8.15797 16.7812 8.2554 16.8258 8.35698 16.8258C8.45856 16.8258 8.55599 16.7812 8.62782 16.7018C8.69965 16.6224 8.74 16.5147 8.74 16.4025V14.7091C8.74 14.5968 8.69965 14.4892 8.62782 14.4098C8.55599 14.3304 8.45856 14.2858 8.35698 14.2858ZM15.5067 8.07678H13.9746C13.873 8.07678 13.7756 8.12138 13.7038 8.20078C13.632 8.28017 13.5916 8.38785 13.5916 8.50012C13.5916 8.6124 13.632 8.72008 13.7038 8.79947C13.7756 8.87886 13.873 8.92346 13.9746 8.92346H15.5067C15.6083 8.92346 15.7057 8.87886 15.7776 8.79947C15.8494 8.72008 15.8897 8.6124 15.8897 8.50012C15.8897 8.38785 15.8494 8.28017 15.7776 8.20078C15.7057 8.12138 15.6083 8.07678 15.5067 8.07678Z" fill="#14171F" stroke="#14171F" stroke-width="0.5"/>
</g>
<defs>
<clipPath id="clip0_2495_2803">
<rect width="15.381" height="17" fill="white" transform="translate(0.666504 0.00012207)"/>
</clipPath>
</defs>
</svg>
