<svg width="19" height="17" viewBox="0 0 19 17" fill="none" xmlns="http://www.w3.org/2000/svg">
<path d="M1.98145 1.1333H17.8148M2.77311 4.6816L2.78103 4.67187M2.77311 11.7605L2.78103 11.7508M5.14811 8.22106L5.15603 8.21133M5.14811 15.3L5.15603 15.2902M7.52311 4.6816L7.53103 4.67187M7.52311 11.7605L7.53103 11.7508M9.89811 8.22106L9.90603 8.21133M9.89811 15.3L9.90603 15.2902M12.2731 4.6816L12.281 4.67187M12.2731 11.7605L12.281 11.7508M14.6481 8.22106L14.656 8.21133M14.6481 15.3L14.656 15.2902M17.0231 4.6816L17.031 4.67187M17.0231 11.7605L17.031 11.7508" stroke="#14171F" stroke-width="2.16701" stroke-linecap="round" stroke-linejoin="round"/>
</svg>
