<svg width="17" height="18" viewBox="0 0 17 18" fill="none" xmlns="http://www.w3.org/2000/svg">
<path d="M13.6597 7.6787C13.6597 7.6787 15.0506 7.6787 15.857 7.6787C16.6634 7.6787 16.6933 8.89299 15.857 8.89299C15.0208 8.89299 13.6597 8.89299 13.6597 8.89299C12.8978 8.89299 12.7885 7.6787 13.6597 7.6787ZM12.0118 4.39163L13.5653 2.67463C14.119 2.06262 14.8957 2.92113 14.342 3.53313L12.7885 5.25013C12.3322 5.70996 11.5957 4.86622 12.0118 4.39163ZM12.0118 12.1801C11.5957 11.6251 12.3322 10.9168 12.7885 11.3216L14.342 13.0386C14.8957 13.7501 13.9344 14.4585 13.5653 13.8971L12.0118 12.1801ZM8.71586 1.00013C8.71586 0.291788 9.8145 0.291784 9.8145 1.00013C9.8145 1.70848 9.8145 3.4287 9.8145 3.4287C9.76872 4.18762 8.71586 4.03585 8.71586 3.4287C8.71586 3.4287 8.71586 1.70847 8.71586 1.00013ZM9.26518 4.64299C9.08102 4.64431 8.89728 4.66259 8.71586 4.69763C8.02759 4.83057 7.84611 5.95846 8.71586 5.94349C8.89488 5.88893 9.07949 5.85996 9.26518 5.85727C9.84794 5.85727 10.4068 6.11314 10.8189 6.56858C11.231 7.02403 11.4625 7.64175 11.4625 8.28584C11.4625 8.92994 11.231 9.54766 10.8189 10.0031C10.4068 10.4585 9.84794 10.7144 9.26518 10.7144C8.58983 10.7144 8.57402 11.9287 9.26518 11.9287C9.95634 11.9287 10.9776 11.5449 11.5957 10.8617C12.2139 10.1786 12.5611 9.25199 12.5611 8.28584C12.5611 7.3197 12.2139 6.39312 11.5957 5.70996C10.9776 5.02679 10.1393 4.64299 9.26518 4.64299ZM4.87062 12.0404V4.03585C4.87062 3.33406 3.77198 3.33342 3.77198 4.03585V12.0404C3.40547 12.1836 3.09656 12.4655 2.89987 12.8361C2.70317 13.2067 2.63134 13.6422 2.69708 14.0657C2.76281 14.4892 2.96189 14.8733 3.2591 15.1503C3.55632 15.4272 3.93256 15.5791 4.3213 15.5791C4.71005 15.5791 5.08628 15.4272 5.3835 15.1503C5.68072 14.8733 5.87979 14.4892 5.94553 14.0657C6.01127 13.6422 5.93944 13.2067 5.74274 12.8361C5.54604 12.4655 5.23714 12.1836 4.87062 12.0404Z" fill="#14171F"/>
<path d="M4.3213 18.0001C3.56433 18.0011 2.82397 17.7548 2.1932 17.2922C1.56244 16.8297 1.06938 16.1714 0.775945 15.4002C0.482509 14.629 0.401778 13.7791 0.543888 12.9573C0.685997 12.1355 1.04461 11.3785 1.5747 10.7812V4.03584C1.5747 3.23071 1.86408 2.45857 2.37916 1.88926C2.89425 1.31996 3.59286 1.00012 4.3213 1.00012C5.04975 1.00012 5.74835 1.31996 6.26344 1.88926C6.77853 2.45857 7.0679 3.23071 7.0679 4.03584V10.7812C7.59799 11.3785 7.95661 12.1355 8.09872 12.9573C8.24083 13.7791 8.1601 14.629 7.86666 15.4002C7.57322 16.1714 7.08017 16.8297 6.4494 17.2922C5.81863 17.7548 5.07828 18.0011 4.3213 18.0001ZM4.3213 2.21441C3.88437 2.21489 3.46546 2.40694 3.1565 2.74842C2.84754 3.0899 2.67378 3.55291 2.67334 4.03584V11.3112L2.49097 11.4928C2.07617 11.9025 1.78373 12.4419 1.65237 13.0394C1.521 13.6369 1.55691 14.2644 1.75533 14.8389C1.95375 15.4133 2.30533 15.9077 2.76354 16.2564C3.22174 16.6052 3.76496 16.7919 4.3213 16.7919C4.87764 16.7919 5.42086 16.6052 5.87907 16.2564C6.33727 15.9077 6.68885 15.4133 6.88727 14.8389C7.0857 14.2644 7.1216 13.6369 6.99024 13.0394C6.85888 12.4419 6.56644 11.9025 6.15164 11.4928L5.96926 11.3112V4.03584C5.96883 3.55291 5.79506 3.0899 5.4861 2.74842C5.17715 2.40694 4.75823 2.21489 4.3213 2.21441Z" fill="#14171F"/>
</svg>
