<svg width="251" height="94" viewBox="0 0 251 94" fill="none" xmlns="http://www.w3.org/2000/svg">
<g filter="url(#filter0_d_1833_4201)">
<rect x="23" y="19" width="205" height="48" rx="24" fill="#14171F" stroke="#14171F" stroke-width="2"/>
<path d="M79.824 46.52H74.96L74.064 49H72.528L76.56 37.912H78.24L82.256 49H80.72L79.824 46.52ZM79.408 45.336L77.392 39.704L75.376 45.336H79.408ZM83.4693 44.584C83.4693 43.688 83.6506 42.904 84.0133 42.232C84.3759 41.5493 84.8719 41.0213 85.5013 40.648C86.1413 40.2747 86.8559 40.088 87.6453 40.088C88.3279 40.088 88.9626 40.248 89.5493 40.568C90.1359 40.8773 90.5839 41.288 90.8933 41.8V37.16H92.3653V49H90.8933V47.352C90.6053 47.8747 90.1786 48.3067 89.6133 48.648C89.0479 48.9787 88.3866 49.144 87.6293 49.144C86.8506 49.144 86.1413 48.952 85.5013 48.568C84.8719 48.184 84.3759 47.6453 84.0133 46.952C83.6506 46.2587 83.4693 45.4693 83.4693 44.584ZM90.8933 44.6C90.8933 43.9387 90.7599 43.3627 90.4933 42.872C90.2266 42.3813 89.8639 42.008 89.4053 41.752C88.9573 41.4853 88.4613 41.352 87.9173 41.352C87.3733 41.352 86.8773 41.48 86.4293 41.736C85.9813 41.992 85.6239 42.3653 85.3573 42.856C85.0906 43.3467 84.9573 43.9227 84.9573 44.584C84.9573 45.256 85.0906 45.8427 85.3573 46.344C85.6239 46.8347 85.9813 47.2133 86.4293 47.48C86.8773 47.736 87.3733 47.864 87.9173 47.864C88.4613 47.864 88.9573 47.736 89.4053 47.48C89.8639 47.2133 90.2266 46.8347 90.4933 46.344C90.7599 45.8427 90.8933 45.2613 90.8933 44.6ZM94.2818 44.584C94.2818 43.688 94.4631 42.904 94.8258 42.232C95.1884 41.5493 95.6844 41.0213 96.3138 40.648C96.9538 40.2747 97.6684 40.088 98.4578 40.088C99.1404 40.088 99.7751 40.248 100.362 40.568C100.948 40.8773 101.396 41.288 101.706 41.8V37.16H103.178V49H101.706V47.352C101.418 47.8747 100.991 48.3067 100.426 48.648C99.8604 48.9787 99.1991 49.144 98.4418 49.144C97.6631 49.144 96.9538 48.952 96.3138 48.568C95.6844 48.184 95.1884 47.6453 94.8258 46.952C94.4631 46.2587 94.2818 45.4693 94.2818 44.584ZM101.706 44.6C101.706 43.9387 101.572 43.3627 101.306 42.872C101.039 42.3813 100.676 42.008 100.218 41.752C99.7698 41.4853 99.2738 41.352 98.7298 41.352C98.1858 41.352 97.6898 41.48 97.2418 41.736C96.7938 41.992 96.4364 42.3653 96.1698 42.856C95.9031 43.3467 95.7698 43.9227 95.7698 44.584C95.7698 45.256 95.9031 45.8427 96.1698 46.344C96.4364 46.8347 96.7938 47.2133 97.2418 47.48C97.6898 47.736 98.1858 47.864 98.7298 47.864C99.2738 47.864 99.7698 47.736 100.218 47.48C100.676 47.2133 101.039 46.8347 101.306 46.344C101.572 45.8427 101.706 45.2613 101.706 44.6ZM111.68 41.432V46.6C111.68 47.0267 111.771 47.3307 111.952 47.512C112.133 47.6827 112.448 47.768 112.896 47.768H113.968V49H112.656C111.845 49 111.237 48.8133 110.832 48.44C110.427 48.0667 110.224 47.4533 110.224 46.6V41.432H109.088V40.232H110.224V38.024H111.68V40.232H113.968V41.432H111.68ZM119.556 49.144C118.735 49.144 117.988 48.9573 117.316 48.584C116.655 48.2107 116.132 47.6827 115.748 47C115.375 46.3067 115.188 45.5067 115.188 44.6C115.188 43.704 115.38 42.9147 115.764 42.232C116.159 41.5387 116.692 41.0107 117.364 40.648C118.036 40.2747 118.788 40.088 119.62 40.088C120.452 40.088 121.204 40.2747 121.876 40.648C122.548 41.0107 123.076 41.5333 123.46 42.216C123.855 42.8987 124.052 43.6933 124.052 44.6C124.052 45.5067 123.849 46.3067 123.444 47C123.049 47.6827 122.511 48.2107 121.828 48.584C121.145 48.9573 120.388 49.144 119.556 49.144ZM119.556 47.864C120.079 47.864 120.569 47.7413 121.028 47.496C121.487 47.2507 121.855 46.8827 122.132 46.392C122.42 45.9013 122.564 45.304 122.564 44.6C122.564 43.896 122.425 43.2987 122.148 42.808C121.871 42.3173 121.508 41.9547 121.06 41.72C120.612 41.4747 120.127 41.352 119.604 41.352C119.071 41.352 118.58 41.4747 118.132 41.72C117.695 41.9547 117.343 42.3173 117.076 42.808C116.809 43.2987 116.676 43.896 116.676 44.6C116.676 45.3147 116.804 45.9173 117.06 46.408C117.327 46.8987 117.679 47.2667 118.116 47.512C118.553 47.7467 119.033 47.864 119.556 47.864ZM141.544 37.928V49H140.088V40.744L136.408 49H135.384L131.688 40.728V49H130.232V37.928H131.8L135.896 47.08L139.992 37.928H141.544ZM151.565 40.232L146.285 53.128H144.781L146.509 48.904L142.973 40.232H144.589L147.341 47.336L150.061 40.232H151.565ZM165.743 41.08C165.433 40.4293 164.985 39.928 164.399 39.576C163.812 39.2133 163.129 39.032 162.351 39.032C161.572 39.032 160.868 39.2133 160.239 39.576C159.62 39.928 159.129 40.44 158.767 41.112C158.415 41.7733 158.239 42.5413 158.239 43.416C158.239 44.2907 158.415 45.0587 158.767 45.72C159.129 46.3813 159.62 46.8933 160.239 47.256C160.868 47.608 161.572 47.784 162.351 47.784C163.439 47.784 164.335 47.4587 165.039 46.808C165.743 46.1573 166.153 45.2773 166.271 44.168H161.823V42.984H167.823V44.104C167.737 45.0213 167.449 45.864 166.959 46.632C166.468 47.3893 165.823 47.992 165.023 48.44C164.223 48.8773 163.332 49.096 162.351 49.096C161.316 49.096 160.372 48.856 159.519 48.376C158.665 47.8853 157.988 47.208 157.487 46.344C156.996 45.48 156.751 44.504 156.751 43.416C156.751 42.328 156.996 41.352 157.487 40.488C157.988 39.6133 158.665 38.936 159.519 38.456C160.372 37.9653 161.316 37.72 162.351 37.72C163.535 37.72 164.58 38.0133 165.487 38.6C166.404 39.1867 167.071 40.0133 167.487 41.08H165.743ZM169.204 44.584C169.204 43.688 169.385 42.904 169.748 42.232C170.11 41.5493 170.606 41.0213 171.236 40.648C171.876 40.2747 172.585 40.088 173.364 40.088C174.132 40.088 174.798 40.2533 175.364 40.584C175.929 40.9147 176.35 41.3307 176.628 41.832V40.232H178.1V49H176.628V47.368C176.34 47.88 175.908 48.3067 175.332 48.648C174.766 48.9787 174.105 49.144 173.348 49.144C172.569 49.144 171.865 48.952 171.236 48.568C170.606 48.184 170.11 47.6453 169.748 46.952C169.385 46.2587 169.204 45.4693 169.204 44.584ZM176.628 44.6C176.628 43.9387 176.494 43.3627 176.228 42.872C175.961 42.3813 175.598 42.008 175.14 41.752C174.692 41.4853 174.196 41.352 173.652 41.352C173.108 41.352 172.612 41.48 172.164 41.736C171.716 41.992 171.358 42.3653 171.092 42.856C170.825 43.3467 170.692 43.9227 170.692 44.584C170.692 45.256 170.825 45.8427 171.092 46.344C171.358 46.8347 171.716 47.2133 172.164 47.48C172.612 47.736 173.108 47.864 173.652 47.864C174.196 47.864 174.692 47.736 175.14 47.48C175.598 47.2133 175.961 46.8347 176.228 46.344C176.494 45.8427 176.628 45.2613 176.628 44.6ZM182.016 41.656C182.272 41.1547 182.635 40.7653 183.104 40.488C183.584 40.2107 184.165 40.072 184.848 40.072V41.576H184.464C182.832 41.576 182.016 42.4613 182.016 44.232V49H180.56V40.232H182.016V41.656ZM185.985 44.584C185.985 43.688 186.166 42.904 186.529 42.232C186.892 41.5493 187.388 41.0213 188.017 40.648C188.657 40.2747 189.372 40.088 190.161 40.088C190.844 40.088 191.478 40.248 192.065 40.568C192.652 40.8773 193.1 41.288 193.409 41.8V37.16H194.881V49H193.409V47.352C193.121 47.8747 192.694 48.3067 192.129 48.648C191.564 48.9787 190.902 49.144 190.145 49.144C189.366 49.144 188.657 48.952 188.017 48.568C187.388 48.184 186.892 47.6453 186.529 46.952C186.166 46.2587 185.985 45.4693 185.985 44.584ZM193.409 44.6C193.409 43.9387 193.276 43.3627 193.009 42.872C192.742 42.3813 192.38 42.008 191.921 41.752C191.473 41.4853 190.977 41.352 190.433 41.352C189.889 41.352 189.393 41.48 188.945 41.736C188.497 41.992 188.14 42.3653 187.873 42.856C187.606 43.3467 187.473 43.9227 187.473 44.584C187.473 45.256 187.606 45.8427 187.873 46.344C188.14 46.8347 188.497 47.2133 188.945 47.48C189.393 47.736 189.889 47.864 190.433 47.864C190.977 47.864 191.473 47.736 191.921 47.48C192.38 47.2133 192.742 46.8347 193.009 46.344C193.276 45.8427 193.409 45.2613 193.409 44.6ZM205.341 44.28C205.341 44.5573 205.325 44.8507 205.293 45.16H198.285C198.339 46.024 198.632 46.7013 199.165 47.192C199.709 47.672 200.365 47.912 201.133 47.912C201.763 47.912 202.285 47.768 202.701 47.48C203.128 47.1813 203.427 46.7867 203.597 46.296H205.165C204.931 47.1387 204.461 47.8267 203.757 48.36C203.053 48.8827 202.179 49.144 201.133 49.144C200.301 49.144 199.555 48.9573 198.893 48.584C198.243 48.2107 197.731 47.6827 197.357 47C196.984 46.3067 196.797 45.5067 196.797 44.6C196.797 43.6933 196.979 42.8987 197.341 42.216C197.704 41.5333 198.211 41.0107 198.861 40.648C199.523 40.2747 200.28 40.088 201.133 40.088C201.965 40.088 202.701 40.2693 203.341 40.632C203.981 40.9947 204.472 41.496 204.813 42.136C205.165 42.7653 205.341 43.48 205.341 44.28ZM203.837 43.976C203.837 43.4213 203.715 42.9467 203.469 42.552C203.224 42.1467 202.888 41.8427 202.461 41.64C202.045 41.4267 201.581 41.32 201.069 41.32C200.333 41.32 199.704 41.5547 199.181 42.024C198.669 42.4933 198.376 43.144 198.301 43.976H203.837ZM211.535 40.072C212.602 40.072 213.466 40.3973 214.127 41.048C214.789 41.688 215.119 42.616 215.119 43.832V49H213.679V44.04C213.679 43.1653 213.461 42.4987 213.023 42.04C212.586 41.5707 211.989 41.336 211.231 41.336C210.463 41.336 209.85 41.576 209.391 42.056C208.943 42.536 208.719 43.2347 208.719 44.152V49H207.263V40.232H208.719V41.48C209.007 41.032 209.397 40.6853 209.887 40.44C210.389 40.1947 210.938 40.072 211.535 40.072Z" fill="#FAFAFA"/>
<path d="M61.3332 55L51.9998 48.3333L42.6665 55V33.6667C42.6665 32.9594 42.9475 32.2811 43.4476 31.781C43.9476 31.281 44.6259 31 45.3332 31H58.6665C59.3737 31 60.052 31.281 60.5521 31.781C61.0522 32.2811 61.3332 32.9594 61.3332 33.6667V55Z" stroke="#FAFAFA" stroke-width="1.5" stroke-linecap="round" stroke-linejoin="round"/>
</g>
<defs>
<filter id="filter0_d_1833_4201" x="0" y="0" width="251" height="94" filterUnits="userSpaceOnUse" color-interpolation-filters="sRGB">
<feFlood flood-opacity="0" result="BackgroundImageFix"/>
<feColorMatrix in="SourceAlpha" type="matrix" values="0 0 0 0 0 0 0 0 0 0 0 0 0 0 0 0 0 0 127 0" result="hardAlpha"/>
<feMorphology radius="7" operator="dilate" in="SourceAlpha" result="effect1_dropShadow_1833_4201"/>
<feOffset dy="4"/>
<feGaussianBlur stdDeviation="7.5"/>
<feComposite in2="hardAlpha" operator="out"/>
<feColorMatrix type="matrix" values="0 0 0 0 0 0 0 0 0 0 0 0 0 0 0 0 0 0 0.07 0"/>
<feBlend mode="normal" in2="BackgroundImageFix" result="effect1_dropShadow_1833_4201"/>
<feBlend mode="normal" in="SourceGraphic" in2="effect1_dropShadow_1833_4201" result="shape"/>
</filter>
</defs>
</svg>
