<svg width="74" height="58" viewBox="0 0 74 58" fill="none" xmlns="http://www.w3.org/2000/svg">
<path d="M0.42 48.8C0.42 47.976 0.604 47.24 0.972 46.592C1.348 45.936 1.856 45.428 2.496 45.068C3.144 44.7 3.868 44.516 4.668 44.516C5.604 44.516 6.424 44.756 7.128 45.236C7.832 45.716 8.324 46.38 8.604 47.228H6.672C6.48 46.828 6.208 46.528 5.856 46.328C5.512 46.128 5.112 46.028 4.656 46.028C4.168 46.028 3.732 46.144 3.348 46.376C2.972 46.6 2.676 46.92 2.46 47.336C2.252 47.752 2.148 48.24 2.148 48.8C2.148 49.352 2.252 49.84 2.46 50.264C2.676 50.68 2.972 51.004 3.348 51.236C3.732 51.46 4.168 51.572 4.656 51.572C5.112 51.572 5.512 51.472 5.856 51.272C6.208 51.064 6.48 50.76 6.672 50.36H8.604C8.324 51.216 7.832 51.884 7.128 52.364C6.432 52.836 5.612 53.072 4.668 53.072C3.868 53.072 3.144 52.892 2.496 52.532C1.856 52.164 1.348 51.656 0.972 51.008C0.604 50.36 0.42 49.624 0.42 48.8ZM12.9909 53.108C12.3509 53.108 11.7749 52.968 11.2629 52.688C10.7509 52.4 10.3469 51.996 10.0509 51.476C9.76294 50.956 9.61894 50.356 9.61894 49.676C9.61894 48.996 9.76694 48.396 10.0629 47.876C10.3669 47.356 10.7789 46.956 11.2989 46.676C11.8189 46.388 12.3989 46.244 13.0389 46.244C13.6789 46.244 14.2589 46.388 14.7789 46.676C15.2989 46.956 15.7069 47.356 16.0029 47.876C16.3069 48.396 16.4589 48.996 16.4589 49.676C16.4589 50.356 16.3029 50.956 15.9909 51.476C15.6869 51.996 15.2709 52.4 14.7429 52.688C14.2229 52.968 13.6389 53.108 12.9909 53.108ZM12.9909 51.644C13.2949 51.644 13.5789 51.572 13.8429 51.428C14.1149 51.276 14.3309 51.052 14.4909 50.756C14.6509 50.46 14.7309 50.1 14.7309 49.676C14.7309 49.044 14.5629 48.56 14.2269 48.224C13.8989 47.88 13.4949 47.708 13.0149 47.708C12.5349 47.708 12.1309 47.88 11.8029 48.224C11.4829 48.56 11.3229 49.044 11.3229 49.676C11.3229 50.308 11.4789 50.796 11.7909 51.14C12.1109 51.476 12.5109 51.644 12.9909 51.644ZM25.9473 46.256C26.7633 46.256 27.4193 46.508 27.9153 47.012C28.4193 47.508 28.6713 48.204 28.6713 49.1V53H26.9913V49.328C26.9913 48.808 26.8593 48.412 26.5953 48.14C26.3313 47.86 25.9713 47.72 25.5153 47.72C25.0593 47.72 24.6953 47.86 24.4233 48.14C24.1593 48.412 24.0273 48.808 24.0273 49.328V53H22.3473V49.328C22.3473 48.808 22.2153 48.412 21.9513 48.14C21.6873 47.86 21.3273 47.72 20.8713 47.72C20.4073 47.72 20.0393 47.86 19.7673 48.14C19.5033 48.412 19.3713 48.808 19.3713 49.328V53H17.6913V46.352H19.3713V47.156C19.5873 46.876 19.8633 46.656 20.1993 46.496C20.5433 46.336 20.9193 46.256 21.3273 46.256C21.8473 46.256 22.3113 46.368 22.7193 46.592C23.1273 46.808 23.4433 47.12 23.6673 47.528C23.8833 47.144 24.1953 46.836 24.6033 46.604C25.0193 46.372 25.4673 46.256 25.9473 46.256ZM38.5215 46.256C39.3375 46.256 39.9935 46.508 40.4895 47.012C40.9935 47.508 41.2455 48.204 41.2455 49.1V53H39.5655V49.328C39.5655 48.808 39.4335 48.412 39.1695 48.14C38.9055 47.86 38.5455 47.72 38.0895 47.72C37.6335 47.72 37.2695 47.86 36.9975 48.14C36.7335 48.412 36.6015 48.808 36.6015 49.328V53H34.9215V49.328C34.9215 48.808 34.7895 48.412 34.5255 48.14C34.2615 47.86 33.9015 47.72 33.4455 47.72C32.9815 47.72 32.6135 47.86 32.3415 48.14C32.0775 48.412 31.9455 48.808 31.9455 49.328V53H30.2655V46.352H31.9455V47.156C32.1615 46.876 32.4375 46.656 32.7735 46.496C33.1175 46.336 33.4935 46.256 33.9015 46.256C34.4215 46.256 34.8855 46.368 35.2935 46.592C35.7015 46.808 36.0175 47.12 36.2415 47.528C36.4575 47.144 36.7695 46.836 37.1775 46.604C37.5935 46.372 38.0415 46.256 38.5215 46.256ZM49.1157 46.352V53H47.4237V52.16C47.2077 52.448 46.9237 52.676 46.5717 52.844C46.2277 53.004 45.8517 53.084 45.4437 53.084C44.9237 53.084 44.4637 52.976 44.0637 52.76C43.6637 52.536 43.3477 52.212 43.1157 51.788C42.8917 51.356 42.7797 50.844 42.7797 50.252V46.352H44.4597V50.012C44.4597 50.54 44.5917 50.948 44.8557 51.236C45.1197 51.516 45.4797 51.656 45.9357 51.656C46.3997 51.656 46.7637 51.516 47.0277 51.236C47.2917 50.948 47.4237 50.54 47.4237 50.012V46.352H49.1157ZM54.4573 46.256C55.2493 46.256 55.8893 46.508 56.3773 47.012C56.8653 47.508 57.1093 48.204 57.1093 49.1V53H55.4293V49.328C55.4293 48.8 55.2973 48.396 55.0333 48.116C54.7693 47.828 54.4093 47.684 53.9533 47.684C53.4893 47.684 53.1213 47.828 52.8493 48.116C52.5853 48.396 52.4533 48.8 52.4533 49.328V53H50.7733V46.352H52.4533V47.18C52.6773 46.892 52.9613 46.668 53.3053 46.508C53.6573 46.34 54.0413 46.256 54.4573 46.256ZM59.5589 45.56C59.2629 45.56 59.0149 45.468 58.8149 45.284C58.6229 45.092 58.5269 44.856 58.5269 44.576C58.5269 44.296 58.6229 44.064 58.8149 43.88C59.0149 43.688 59.2629 43.592 59.5589 43.592C59.8549 43.592 60.0989 43.688 60.2909 43.88C60.4909 44.064 60.5909 44.296 60.5909 44.576C60.5909 44.856 60.4909 45.092 60.2909 45.284C60.0989 45.468 59.8549 45.56 59.5589 45.56ZM60.3869 46.352V53H58.7069V46.352H60.3869ZM64.0028 47.732V50.948C64.0028 51.172 64.0548 51.336 64.1588 51.44C64.2708 51.536 64.4548 51.584 64.7108 51.584H65.4908V53H64.4348C63.0188 53 62.3108 52.312 62.3108 50.936V47.732H61.5188V46.352H62.3108V44.708H64.0028V46.352H65.4908V47.732H64.0028ZM73.0591 46.352L68.9431 56.144H67.1551L68.5951 52.832L65.9311 46.352H67.8151L69.5311 50.996L71.2711 46.352H73.0591Z" fill="#4267FA"/>
<path d="M36.8437 11.4C38.3326 11.4 39.7604 10.7995 40.8132 9.73051C41.8659 8.66155 42.4574 7.21173 42.4574 5.7C42.4574 4.18827 41.8659 2.73845 40.8132 1.66949C39.7604 0.600534 38.3326 0 36.8437 0C35.3549 0 33.9271 0.600534 32.8743 1.66949C31.8215 2.73845 31.2301 4.18827 31.2301 5.7C31.2301 7.21173 31.8215 8.66155 32.8743 9.73051C33.9271 10.7995 35.3549 11.4 36.8437 11.4ZM29.3589 9.5C29.3589 10.5078 28.9646 11.4744 28.2628 12.187C27.5609 12.8996 26.609 13.3 25.6165 13.3C24.6239 13.3 23.672 12.8996 22.9702 12.187C22.2683 11.4744 21.874 10.5078 21.874 9.5C21.874 8.49218 22.2683 7.52563 22.9702 6.81299C23.672 6.10036 24.6239 5.7 25.6165 5.7C26.609 5.7 27.5609 6.10036 28.2628 6.81299C28.9646 7.52563 29.3589 8.49218 29.3589 9.5ZM20.9197 23.4194C20.6003 23.2351 20.3611 22.9352 20.2498 22.5796C19.9201 21.4953 19.9167 20.3358 20.2399 19.2495C20.5631 18.1632 21.1983 17.1996 22.0641 16.4821C22.93 15.7646 23.987 15.3258 25.0999 15.222C25.3261 15.2009 25.5525 15.1938 25.778 15.2005C27.1065 15.24 27.3674 16.8421 26.6496 17.9608C25.6036 19.591 24.9456 21.4608 24.7464 23.4213C24.6826 24.0462 24.1741 24.61 23.5616 24.4707C22.6356 24.2601 21.7443 23.9062 20.9197 23.4194ZM49.863 24.4632C49.9541 24.454 50.0443 24.436 50.1322 24.4101C51.506 24.0064 51.6184 24.0972 52.7678 23.4194C53.0865 23.2347 53.325 22.9349 53.4358 22.5796C53.766 21.4952 53.7699 20.3354 53.4469 19.2488C53.1239 18.1621 52.4887 17.1981 51.6228 16.4803C50.7568 15.7625 49.6996 15.3236 48.5864 15.2197C48.3602 15.1986 48.1338 15.1915 47.9084 15.1982C46.5796 15.2377 46.319 16.8402 47.0374 17.9588C48.0845 19.5894 48.7433 21.4599 48.943 23.4213C48.9724 23.7131 49.041 24.0474 49.2167 24.277C49.3622 24.4672 49.6247 24.4874 49.863 24.4632ZM51.8134 9.5C51.8134 10.5078 51.4192 11.4744 50.7173 12.187C50.0155 12.8996 49.0636 13.3 48.071 13.3C47.0785 13.3 46.1266 12.8996 45.4247 12.187C44.7229 11.4744 44.3286 10.5078 44.3286 9.5C44.3286 8.49218 44.7229 7.52563 45.4247 6.81299C46.1266 6.10036 47.0785 5.7 48.071 5.7C49.0636 5.7 50.0155 6.10036 50.7173 6.81299C51.4192 7.52563 51.8134 8.49218 51.8134 9.5ZM28.0565 25.061C27.872 24.8932 27.7289 24.6836 27.6389 24.4493C27.5488 24.2149 27.5143 23.9624 27.5382 23.712C27.7762 21.374 28.8594 19.2086 30.5783 17.6344C32.2972 16.0601 34.5299 15.1888 36.8447 15.1888C39.1595 15.1888 41.3922 16.0601 43.1111 17.6344C44.83 19.2086 45.9131 21.374 46.1512 23.712C46.1752 23.9624 46.1407 24.215 46.0507 24.4494C45.9606 24.6837 45.8175 24.8933 45.6328 25.061C43.2268 27.2782 40.0929 28.5045 36.8437 28.5C33.5952 28.5042 30.462 27.2779 28.0565 25.061Z" fill="#4267FA"/>
</svg>
