<svg width="73" height="58" viewBox="0 0 73 58" fill="none" xmlns="http://www.w3.org/2000/svg">
<path d="M36.8437 11.4C38.3326 11.4 39.7604 10.7995 40.8132 9.73051C41.8659 8.66155 42.4574 7.21173 42.4574 5.7C42.4574 4.18827 41.8659 2.73845 40.8132 1.66949C39.7604 0.600534 38.3326 0 36.8437 0C35.3549 0 33.9271 0.600534 32.8743 1.66949C31.8215 2.73845 31.2301 4.18827 31.2301 5.7C31.2301 7.21173 31.8215 8.66155 32.8743 9.73051C33.9271 10.7995 35.3549 11.4 36.8437 11.4ZM29.3589 9.5C29.3589 10.5078 28.9646 11.4744 28.2628 12.187C27.5609 12.8996 26.609 13.3 25.6165 13.3C24.6239 13.3 23.672 12.8996 22.9702 12.187C22.2683 11.4744 21.874 10.5078 21.874 9.5C21.874 8.49218 22.2683 7.52563 22.9702 6.81299C23.672 6.10036 24.6239 5.7 25.6165 5.7C26.609 5.7 27.5609 6.10036 28.2628 6.81299C28.9646 7.52563 29.3589 8.49218 29.3589 9.5ZM20.9197 23.4194C20.6003 23.2351 20.3611 22.9352 20.2498 22.5796C19.9201 21.4953 19.9167 20.3358 20.2399 19.2495C20.5631 18.1632 21.1983 17.1996 22.0641 16.4821C22.93 15.7646 23.987 15.3258 25.0999 15.222C25.3261 15.2009 25.5525 15.1938 25.778 15.2005C27.1065 15.24 27.3674 16.8421 26.6496 17.9608C25.6036 19.591 24.9456 21.4608 24.7464 23.4213C24.6826 24.0462 24.1741 24.61 23.5616 24.4707C22.6356 24.2601 21.7443 23.9062 20.9197 23.4194ZM49.863 24.4632C49.9541 24.454 50.0443 24.436 50.1322 24.4101C51.506 24.0064 51.6184 24.0972 52.7678 23.4194C53.0865 23.2347 53.325 22.9349 53.4358 22.5796C53.766 21.4952 53.7699 20.3354 53.4469 19.2488C53.1239 18.1621 52.4887 17.1981 51.6228 16.4803C50.7568 15.7625 49.6996 15.3236 48.5864 15.2197C48.3602 15.1986 48.1338 15.1915 47.9084 15.1982C46.5796 15.2377 46.319 16.8402 47.0374 17.9588C48.0845 19.5894 48.7433 21.4599 48.943 23.4213C48.9724 23.7131 49.041 24.0474 49.2167 24.277C49.3622 24.4672 49.6247 24.4874 49.863 24.4632ZM51.8134 9.5C51.8134 10.5078 51.4192 11.4744 50.7173 12.187C50.0155 12.8996 49.0636 13.3 48.071 13.3C47.0785 13.3 46.1266 12.8996 45.4247 12.187C44.7229 11.4744 44.3286 10.5078 44.3286 9.5C44.3286 8.49218 44.7229 7.52563 45.4247 6.81299C46.1266 6.10036 47.0785 5.7 48.071 5.7C49.0636 5.7 50.0155 6.10036 50.7173 6.81299C51.4192 7.52563 51.8134 8.49218 51.8134 9.5ZM28.0565 25.061C27.872 24.8932 27.7289 24.6836 27.6389 24.4493C27.5488 24.2149 27.5143 23.9624 27.5382 23.712C27.7762 21.374 28.8594 19.2086 30.5783 17.6344C32.2972 16.0601 34.5299 15.1888 36.8447 15.1888C39.1595 15.1888 41.3922 16.0601 43.1111 17.6344C44.83 19.2086 45.9131 21.374 46.1512 23.712C46.1752 23.9624 46.1407 24.215 46.0507 24.4494C45.9606 24.6837 45.8175 24.8933 45.6328 25.061C43.2268 27.2782 40.0929 28.5045 36.8437 28.5C33.5952 28.5042 30.462 27.2779 28.0565 25.061Z" fill="#E4E4E4"/>
<path d="M0.444 48.812C0.444 47.996 0.632 47.264 1.008 46.616C1.392 45.968 1.908 45.464 2.556 45.104C3.212 44.736 3.928 44.552 4.704 44.552C5.592 44.552 6.38 44.772 7.068 45.212C7.764 45.644 8.268 46.26 8.58 47.06H6.936C6.72 46.62 6.42 46.292 6.036 46.076C5.652 45.86 5.208 45.752 4.704 45.752C4.152 45.752 3.66 45.876 3.228 46.124C2.796 46.372 2.456 46.728 2.208 47.192C1.968 47.656 1.848 48.196 1.848 48.812C1.848 49.428 1.968 49.968 2.208 50.432C2.456 50.896 2.796 51.256 3.228 51.512C3.66 51.76 4.152 51.884 4.704 51.884C5.208 51.884 5.652 51.776 6.036 51.56C6.42 51.344 6.72 51.016 6.936 50.576H8.58C8.268 51.376 7.764 51.992 7.068 52.424C6.38 52.856 5.592 53.072 4.704 53.072C3.92 53.072 3.204 52.892 2.556 52.532C1.908 52.164 1.392 51.656 1.008 51.008C0.632 50.36 0.444 49.628 0.444 48.812ZM13.0493 53.108C12.4253 53.108 11.8613 52.968 11.3573 52.688C10.8533 52.4 10.4573 52 10.1693 51.488C9.88125 50.968 9.73725 50.368 9.73725 49.688C9.73725 49.016 9.88525 48.42 10.1813 47.9C10.4773 47.38 10.8813 46.98 11.3933 46.7C11.9053 46.42 12.4773 46.28 13.1093 46.28C13.7413 46.28 14.3133 46.42 14.8253 46.7C15.3373 46.98 15.7413 47.38 16.0373 47.9C16.3333 48.42 16.4813 49.016 16.4813 49.688C16.4813 50.36 16.3293 50.956 16.0253 51.476C15.7213 51.996 15.3053 52.4 14.7773 52.688C14.2573 52.968 13.6813 53.108 13.0493 53.108ZM13.0493 51.92C13.4013 51.92 13.7293 51.836 14.0333 51.668C14.3453 51.5 14.5973 51.248 14.7893 50.912C14.9813 50.576 15.0773 50.168 15.0773 49.688C15.0773 49.208 14.9853 48.804 14.8013 48.476C14.6173 48.14 14.3733 47.888 14.0693 47.72C13.7653 47.552 13.4373 47.468 13.0853 47.468C12.7333 47.468 12.4053 47.552 12.1013 47.72C11.8053 47.888 11.5693 48.14 11.3933 48.476C11.2173 48.804 11.1293 49.208 11.1293 49.688C11.1293 50.4 11.3093 50.952 11.6693 51.344C12.0373 51.728 12.4973 51.92 13.0493 51.92ZM25.8376 46.28C26.3576 46.28 26.8216 46.388 27.2296 46.604C27.6456 46.82 27.9696 47.14 28.2016 47.564C28.4416 47.988 28.5616 48.5 28.5616 49.1V53H27.2056V49.304C27.2056 48.712 27.0576 48.26 26.7616 47.948C26.4656 47.628 26.0616 47.468 25.5496 47.468C25.0376 47.468 24.6296 47.628 24.3256 47.948C24.0296 48.26 23.8816 48.712 23.8816 49.304V53H22.5256V49.304C22.5256 48.712 22.3776 48.26 22.0816 47.948C21.7856 47.628 21.3816 47.468 20.8696 47.468C20.3576 47.468 19.9496 47.628 19.6456 47.948C19.3496 48.26 19.2016 48.712 19.2016 49.304V53H17.8336V46.388H19.2016V47.144C19.4256 46.872 19.7096 46.66 20.0536 46.508C20.3976 46.356 20.7656 46.28 21.1576 46.28C21.6856 46.28 22.1576 46.392 22.5736 46.616C22.9896 46.84 23.3096 47.164 23.5336 47.588C23.7336 47.188 24.0456 46.872 24.4696 46.64C24.8936 46.4 25.3496 46.28 25.8376 46.28ZM38.3063 46.28C38.8263 46.28 39.2903 46.388 39.6983 46.604C40.1143 46.82 40.4383 47.14 40.6703 47.564C40.9103 47.988 41.0303 48.5 41.0303 49.1V53H39.6743V49.304C39.6743 48.712 39.5263 48.26 39.2303 47.948C38.9343 47.628 38.5303 47.468 38.0183 47.468C37.5063 47.468 37.0983 47.628 36.7943 47.948C36.4983 48.26 36.3503 48.712 36.3503 49.304V53H34.9943V49.304C34.9943 48.712 34.8463 48.26 34.5503 47.948C34.2543 47.628 33.8503 47.468 33.3383 47.468C32.8263 47.468 32.4183 47.628 32.1143 47.948C31.8183 48.26 31.6703 48.712 31.6703 49.304V53H30.3023V46.388H31.6703V47.144C31.8943 46.872 32.1783 46.66 32.5223 46.508C32.8663 46.356 33.2343 46.28 33.6263 46.28C34.1543 46.28 34.6263 46.392 35.0423 46.616C35.4583 46.84 35.7783 47.164 36.0023 47.588C36.2023 47.188 36.5143 46.872 36.9383 46.64C37.3623 46.4 37.8183 46.28 38.3063 46.28ZM48.7591 46.388V53H47.3911V52.22C47.1751 52.492 46.8911 52.708 46.5391 52.868C46.1951 53.02 45.8271 53.096 45.4351 53.096C44.9151 53.096 44.4471 52.988 44.0311 52.772C43.6231 52.556 43.2991 52.236 43.0591 51.812C42.8271 51.388 42.7111 50.876 42.7111 50.276V46.388H44.0671V50.072C44.0671 50.664 44.2151 51.12 44.5111 51.44C44.8071 51.752 45.2111 51.908 45.7231 51.908C46.2351 51.908 46.6391 51.752 46.9351 51.44C47.2391 51.12 47.3911 50.664 47.3911 50.072V46.388H48.7591ZM53.9001 46.28C54.4201 46.28 54.8841 46.388 55.2921 46.604C55.7081 46.82 56.0321 47.14 56.2641 47.564C56.4961 47.988 56.6121 48.5 56.6121 49.1V53H55.2561V49.304C55.2561 48.712 55.1081 48.26 54.8121 47.948C54.5161 47.628 54.1121 47.468 53.6001 47.468C53.0881 47.468 52.6801 47.628 52.3761 47.948C52.0801 48.26 51.9321 48.712 51.9321 49.304V53H50.5641V46.388H51.9321V47.144C52.1561 46.872 52.4401 46.66 52.7841 46.508C53.1361 46.356 53.5081 46.28 53.9001 46.28ZM59.053 45.512C58.805 45.512 58.597 45.428 58.429 45.26C58.261 45.092 58.177 44.884 58.177 44.636C58.177 44.388 58.261 44.18 58.429 44.012C58.597 43.844 58.805 43.76 59.053 43.76C59.293 43.76 59.497 43.844 59.665 44.012C59.833 44.18 59.917 44.388 59.917 44.636C59.917 44.884 59.833 45.092 59.665 45.26C59.497 45.428 59.293 45.512 59.053 45.512ZM59.725 46.388V53H58.357V46.388H59.725ZM63.1171 47.504V51.164C63.1171 51.412 63.1731 51.592 63.2851 51.704C63.4051 51.808 63.6051 51.86 63.8851 51.86H64.7251V53H63.6451C63.0291 53 62.5571 52.856 62.2291 52.568C61.9011 52.28 61.7371 51.812 61.7371 51.164V47.504H60.9571V46.388H61.7371V44.744H63.1171V46.388H64.7251V47.504H63.1171ZM71.9379 46.388L67.8819 56.108H66.4659L67.8099 52.892L65.2059 46.388H66.7299L68.5899 51.428L70.5219 46.388H71.9379Z" fill="#ADADAD"/>
</svg>
