<svg width="39" height="65" viewBox="0 0 39 65" fill="none" xmlns="http://www.w3.org/2000/svg">
<path d="M9.776 51.624V60H8.096V56.436H4.508V60H2.828V51.624H4.508V55.068H8.096V51.624H9.776ZM14.3816 60.108C13.7416 60.108 13.1656 59.968 12.6536 59.688C12.1416 59.4 11.7376 58.996 11.4416 58.476C11.1536 57.956 11.0096 57.356 11.0096 56.676C11.0096 55.996 11.1576 55.396 11.4536 54.876C11.7576 54.356 12.1696 53.956 12.6896 53.676C13.2096 53.388 13.7896 53.244 14.4296 53.244C15.0696 53.244 15.6496 53.388 16.1696 53.676C16.6896 53.956 17.0976 54.356 17.3936 54.876C17.6976 55.396 17.8496 55.996 17.8496 56.676C17.8496 57.356 17.6936 57.956 17.3816 58.476C17.0776 58.996 16.6616 59.4 16.1336 59.688C15.6136 59.968 15.0296 60.108 14.3816 60.108ZM14.3816 58.644C14.6856 58.644 14.9696 58.572 15.2336 58.428C15.5056 58.276 15.7216 58.052 15.8816 57.756C16.0416 57.46 16.1216 57.1 16.1216 56.676C16.1216 56.044 15.9536 55.56 15.6176 55.224C15.2896 54.88 14.8856 54.708 14.4056 54.708C13.9256 54.708 13.5216 54.88 13.1936 55.224C12.8736 55.56 12.7136 56.044 12.7136 56.676C12.7136 57.308 12.8696 57.796 13.1816 58.14C13.5016 58.476 13.9016 58.644 14.3816 58.644ZM27.3379 53.256C28.1539 53.256 28.8099 53.508 29.3059 54.012C29.8099 54.508 30.0619 55.204 30.0619 56.1V60H28.3819V56.328C28.3819 55.808 28.2499 55.412 27.9859 55.14C27.7219 54.86 27.3619 54.72 26.9059 54.72C26.4499 54.72 26.0859 54.86 25.8139 55.14C25.5499 55.412 25.4179 55.808 25.4179 56.328V60H23.7379V56.328C23.7379 55.808 23.6059 55.412 23.3419 55.14C23.0779 54.86 22.7179 54.72 22.2619 54.72C21.7979 54.72 21.4299 54.86 21.1579 55.14C20.8939 55.412 20.7619 55.808 20.7619 56.328V60H19.0819V53.352H20.7619V54.156C20.9779 53.876 21.2539 53.656 21.5899 53.496C21.9339 53.336 22.3099 53.256 22.7179 53.256C23.2379 53.256 23.7019 53.368 24.1099 53.592C24.5179 53.808 24.8339 54.12 25.0579 54.528C25.2739 54.144 25.5859 53.836 25.9939 53.604C26.4099 53.372 26.8579 53.256 27.3379 53.256ZM37.8361 56.532C37.8361 56.772 37.8201 56.988 37.7881 57.18H32.9281C32.9681 57.66 33.1361 58.036 33.4321 58.308C33.7281 58.58 34.0921 58.716 34.5241 58.716C35.1481 58.716 35.5921 58.448 35.8561 57.912H37.6681C37.4761 58.552 37.1081 59.08 36.5641 59.496C36.0201 59.904 35.3521 60.108 34.5601 60.108C33.9201 60.108 33.3441 59.968 32.8321 59.688C32.3281 59.4 31.9321 58.996 31.6441 58.476C31.3641 57.956 31.2241 57.356 31.2241 56.676C31.2241 55.988 31.3641 55.384 31.6441 54.864C31.9241 54.344 32.3161 53.944 32.8201 53.664C33.3241 53.384 33.9041 53.244 34.5601 53.244C35.1921 53.244 35.7561 53.38 36.2521 53.652C36.7561 53.924 37.1441 54.312 37.4161 54.816C37.6961 55.312 37.8361 55.884 37.8361 56.532ZM36.0961 56.052C36.0881 55.62 35.9321 55.276 35.6281 55.02C35.3241 54.756 34.9521 54.624 34.5121 54.624C34.0961 54.624 33.7441 54.752 33.4561 55.008C33.1761 55.256 33.0041 55.604 32.9401 56.052H36.0961Z" fill="#4267FA"/>
<path d="M1.5 17.6916C1.5 15.5587 2.54645 13.5615 4.30014 12.3474L15.8001 4.38583C18.026 2.84483 20.974 2.84483 23.1999 4.38584L34.6999 12.3474C36.4536 13.5615 37.5 15.5587 37.5 17.6916V31.5C37.5 35.0899 34.5899 38 31 38H8C4.41015 38 1.5 35.0899 1.5 31.5V17.6916Z" stroke="#4267FA" stroke-width="3"/>
<path d="M19.5 25V32.5" stroke="#4267FA" stroke-width="3" stroke-linecap="round"/>
</svg>
