<svg width="39" height="65" viewBox="0 0 39 65" fill="none" xmlns="http://www.w3.org/2000/svg">
<path d="M9.56 51.66V60H8.192V56.352H4.268V60H2.9V51.66H4.268V55.236H8.192V51.66H9.56ZM14.2289 60.108C13.6049 60.108 13.0409 59.968 12.5369 59.688C12.0329 59.4 11.6369 59 11.3489 58.488C11.0609 57.968 10.9169 57.368 10.9169 56.688C10.9169 56.016 11.0649 55.42 11.3609 54.9C11.6569 54.38 12.0609 53.98 12.5729 53.7C13.0849 53.42 13.6569 53.28 14.2889 53.28C14.9209 53.28 15.4929 53.42 16.0049 53.7C16.5169 53.98 16.9209 54.38 17.2169 54.9C17.5129 55.42 17.6609 56.016 17.6609 56.688C17.6609 57.36 17.5089 57.956 17.2049 58.476C16.9009 58.996 16.4849 59.4 15.9569 59.688C15.4369 59.968 14.8609 60.108 14.2289 60.108ZM14.2289 58.92C14.5809 58.92 14.9089 58.836 15.2129 58.668C15.5249 58.5 15.7769 58.248 15.9689 57.912C16.1609 57.576 16.2569 57.168 16.2569 56.688C16.2569 56.208 16.1649 55.804 15.9809 55.476C15.7969 55.14 15.5529 54.888 15.2489 54.72C14.9449 54.552 14.6169 54.468 14.2649 54.468C13.9129 54.468 13.5849 54.552 13.2809 54.72C12.9849 54.888 12.7489 55.14 12.5729 55.476C12.3969 55.804 12.3089 56.208 12.3089 56.688C12.3089 57.4 12.4889 57.952 12.8489 58.344C13.2169 58.728 13.6769 58.92 14.2289 58.92ZM27.0173 53.28C27.5373 53.28 28.0013 53.388 28.4093 53.604C28.8253 53.82 29.1493 54.14 29.3813 54.564C29.6213 54.988 29.7413 55.5 29.7413 56.1V60H28.3853V56.304C28.3853 55.712 28.2373 55.26 27.9413 54.948C27.6453 54.628 27.2413 54.468 26.7293 54.468C26.2173 54.468 25.8093 54.628 25.5053 54.948C25.2093 55.26 25.0613 55.712 25.0613 56.304V60H23.7053V56.304C23.7053 55.712 23.5573 55.26 23.2613 54.948C22.9653 54.628 22.5613 54.468 22.0493 54.468C21.5373 54.468 21.1293 54.628 20.8253 54.948C20.5293 55.26 20.3813 55.712 20.3813 56.304V60H19.0133V53.388H20.3813V54.144C20.6053 53.872 20.8893 53.66 21.2333 53.508C21.5773 53.356 21.9453 53.28 22.3373 53.28C22.8653 53.28 23.3373 53.392 23.7533 53.616C24.1693 53.84 24.4893 54.164 24.7133 54.588C24.9133 54.188 25.2253 53.872 25.6493 53.64C26.0733 53.4 26.5293 53.28 27.0173 53.28ZM37.542 56.532C37.542 56.78 37.526 57.004 37.494 57.204H32.442C32.482 57.732 32.678 58.156 33.03 58.476C33.382 58.796 33.814 58.956 34.326 58.956C35.062 58.956 35.582 58.648 35.886 58.032H37.362C37.162 58.64 36.798 59.14 36.27 59.532C35.75 59.916 35.102 60.108 34.326 60.108C33.694 60.108 33.126 59.968 32.622 59.688C32.126 59.4 31.734 59 31.446 58.488C31.166 57.968 31.026 57.368 31.026 56.688C31.026 56.008 31.162 55.412 31.434 54.9C31.714 54.38 32.102 53.98 32.598 53.7C33.102 53.42 33.678 53.28 34.326 53.28C34.95 53.28 35.506 53.416 35.994 53.688C36.482 53.96 36.862 54.344 37.134 54.84C37.406 55.328 37.542 55.892 37.542 56.532ZM36.114 56.1C36.106 55.596 35.926 55.192 35.574 54.888C35.222 54.584 34.786 54.432 34.266 54.432C33.794 54.432 33.39 54.584 33.054 54.888C32.718 55.184 32.518 55.588 32.454 56.1H36.114Z" fill="#14171F"/>
<path d="M1.25 17.6916C1.25 15.4766 2.3367 13.4026 4.15783 12.1418L15.6578 4.18029C17.9693 2.58002 21.0307 2.58002 23.3422 4.18029L34.8422 12.1418C36.6633 13.4026 37.75 15.4766 37.75 17.6916V31.5C37.75 35.2279 34.7279 38.25 31 38.25H8C4.27208 38.25 1.25 35.2279 1.25 31.5V17.6916Z" stroke="#14171F" stroke-width="2.5"/>
<path d="M19.5 25V32.5" stroke="#14171F" stroke-width="2.5" stroke-linecap="round"/>
</svg>
