<svg width="67" height="60" viewBox="0 0 67 60" fill="none" xmlns="http://www.w3.org/2000/svg">
<path d="M52.939 0.991413C52.9245 0.749398 52.8218 0.521089 52.6503 0.349651C52.4789 0.178213 52.2506 0.0755285 52.0086 0.0610124C43.5804 -0.43476 36.8247 2.11351 33.9377 6.87954C32.0157 10.0541 32.057 13.9327 34.0253 17.6213C32.7633 19.066 31.8837 20.8041 31.4671 22.6765L28.195 19.4028C29.5418 16.7421 29.5336 13.9575 28.1421 11.6604C26.0251 8.16525 21.1054 6.29122 14.9744 6.65479C14.7321 6.66935 14.5035 6.77226 14.3321 6.94405C14.1606 7.11583 14.0581 7.34454 14.044 7.58684C13.6837 13.7162 15.5544 18.636 19.0496 20.7529C20.1879 21.4486 21.4966 21.8158 22.8307 21.8139C24.2123 21.7998 25.5712 21.4601 26.7969 20.8223L31.1861 25.1983V30.0767C31.1861 30.3397 31.2906 30.5919 31.4765 30.7779C31.6625 30.9638 31.9147 31.0683 32.1777 31.0683C32.4406 31.0683 32.6929 30.9638 32.8788 30.7779C33.0648 30.5919 33.1692 30.3397 33.1692 30.0767V25.2033C33.1626 22.9318 33.9692 20.7329 35.4432 19.0045C37.2957 19.9845 39.1978 20.4769 41.0322 20.4769C42.8264 20.4828 44.5873 19.9927 46.1205 19.0607C50.8865 16.1769 53.4348 9.41955 52.939 0.991413ZM20.0775 19.0557C17.3822 17.4246 15.8816 13.551 15.9824 8.59326C20.9402 8.48585 24.8088 9.98804 26.4399 12.6834C27.3786 14.2319 27.4579 16.0513 26.6944 17.9039L24.5243 15.4126C24.3383 15.2266 24.0859 15.122 23.8228 15.122C23.5597 15.122 23.3073 15.2266 23.1213 15.4126C22.9352 15.5987 22.8307 15.851 22.8307 16.1141C22.8307 16.3773 22.9352 16.6296 23.1213 16.8157L25.298 19.3102C23.4455 20.0737 21.626 19.996 20.0775 19.0557ZM45.0942 17.3668C42.6583 18.8409 39.7828 18.8839 36.8859 17.5155L41.0011 12.8109C41.0933 12.7188 41.1663 12.6094 41.2162 12.4891C41.2661 12.3687 41.2917 12.2397 41.2917 12.1094C41.2917 11.9791 41.2661 11.8501 41.2162 11.7297C41.1663 11.6094 41.0933 11.5 41.0011 11.4079C40.909 11.3158 40.7996 11.2427 40.6793 11.1928C40.5589 11.143 40.4299 11.1173 40.2996 11.1173C40.1693 11.1173 40.0403 11.143 39.92 11.1928C39.7996 11.2427 39.6902 11.3158 39.5981 11.4079L35.4828 16.1141C34.1145 13.2172 34.1608 10.3417 35.6316 7.90744C38.0311 3.94126 43.7391 1.76317 51.0005 1.99948C51.2368 9.25429 49.0571 14.9656 45.0942 17.3668Z" fill="#E4E4E4"/>
<path d="M9.684 46.66V55H8.316V49.288L5.772 55H4.824L2.268 49.288V55H0.9V46.66H2.376L5.304 53.2L8.22 46.66H9.684ZM17.434 48.388L13.378 58.108H11.962L13.306 54.892L10.702 48.388H12.226L14.086 53.428L16.018 48.388H17.434ZM27.6196 49.06C27.4036 48.644 27.1036 48.332 26.7196 48.124C26.3356 47.908 25.8916 47.8 25.3876 47.8C24.8356 47.8 24.3436 47.924 23.9116 48.172C23.4796 48.42 23.1396 48.772 22.8916 49.228C22.6516 49.684 22.5316 50.212 22.5316 50.812C22.5316 51.412 22.6516 51.944 22.8916 52.408C23.1396 52.864 23.4796 53.216 23.9116 53.464C24.3436 53.712 24.8356 53.836 25.3876 53.836C26.1316 53.836 26.7356 53.628 27.1996 53.212C27.6636 52.796 27.9476 52.232 28.0516 51.52H24.9196V50.428H29.5156V51.496C29.4276 52.144 29.1956 52.74 28.8196 53.284C28.4516 53.828 27.9676 54.264 27.3676 54.592C26.7756 54.912 26.1156 55.072 25.3876 55.072C24.6036 55.072 23.8876 54.892 23.2396 54.532C22.5916 54.164 22.0756 53.656 21.6916 53.008C21.3156 52.36 21.1276 51.628 21.1276 50.812C21.1276 49.996 21.3156 49.264 21.6916 48.616C22.0756 47.968 22.5916 47.464 23.2396 47.104C23.8956 46.736 24.6116 46.552 25.3876 46.552C26.2756 46.552 27.0636 46.772 27.7516 47.212C28.4476 47.644 28.9516 48.26 29.2636 49.06H27.6196ZM30.4088 51.664C30.4088 51 30.5448 50.412 30.8168 49.9C31.0968 49.388 31.4728 48.992 31.9448 48.712C32.4248 48.424 32.9528 48.28 33.5288 48.28C34.0488 48.28 34.5008 48.384 34.8848 48.592C35.2768 48.792 35.5888 49.044 35.8208 49.348V48.388H37.2008V55H35.8208V54.016C35.5888 54.328 35.2728 54.588 34.8728 54.796C34.4728 55.004 34.0168 55.108 33.5048 55.108C32.9368 55.108 32.4168 54.964 31.9448 54.676C31.4728 54.38 31.0968 53.972 30.8168 53.452C30.5448 52.924 30.4088 52.328 30.4088 51.664ZM35.8208 51.688C35.8208 51.232 35.7248 50.836 35.5328 50.5C35.3488 50.164 35.1048 49.908 34.8008 49.732C34.4968 49.556 34.1688 49.468 33.8168 49.468C33.4648 49.468 33.1368 49.556 32.8328 49.732C32.5288 49.9 32.2808 50.152 32.0888 50.488C31.9048 50.816 31.8128 51.208 31.8128 51.664C31.8128 52.12 31.9048 52.52 32.0888 52.864C32.2808 53.208 32.5288 53.472 32.8328 53.656C33.1448 53.832 33.4728 53.92 33.8168 53.92C34.1688 53.92 34.4968 53.832 34.8008 53.656C35.1048 53.48 35.3488 53.224 35.5328 52.888C35.7248 52.544 35.8208 52.144 35.8208 51.688ZM40.3657 49.348C40.5657 49.012 40.8297 48.752 41.1577 48.568C41.4937 48.376 41.8897 48.28 42.3457 48.28V49.696H41.9977C41.4617 49.696 41.0537 49.832 40.7737 50.104C40.5017 50.376 40.3657 50.848 40.3657 51.52V55H38.9977V48.388H40.3657V49.348ZM43.1471 51.664C43.1471 51 43.2831 50.412 43.5551 49.9C43.8351 49.388 44.2111 48.992 44.6831 48.712C45.1631 48.424 45.6951 48.28 46.2791 48.28C46.7111 48.28 47.1351 48.376 47.5511 48.568C47.9751 48.752 48.3111 49 48.5591 49.312V46.12H49.9391V55H48.5591V54.004C48.3351 54.324 48.0231 54.588 47.6231 54.796C47.2311 55.004 46.7791 55.108 46.2671 55.108C45.6911 55.108 45.1631 54.964 44.6831 54.676C44.2111 54.38 43.8351 53.972 43.5551 53.452C43.2831 52.924 43.1471 52.328 43.1471 51.664ZM48.5591 51.688C48.5591 51.232 48.4631 50.836 48.2711 50.5C48.0871 50.164 47.8431 49.908 47.5391 49.732C47.2351 49.556 46.9071 49.468 46.5551 49.468C46.2031 49.468 45.8751 49.556 45.5711 49.732C45.2671 49.9 45.0191 50.152 44.8271 50.488C44.6431 50.816 44.5511 51.208 44.5511 51.664C44.5511 52.12 44.6431 52.52 44.8271 52.864C45.0191 53.208 45.2671 53.472 45.5711 53.656C45.8831 53.832 46.2111 53.92 46.5551 53.92C46.9071 53.92 47.2351 53.832 47.5391 53.656C47.8431 53.48 48.0871 53.224 48.2711 52.888C48.4631 52.544 48.5591 52.144 48.5591 51.688ZM57.7959 51.532C57.7959 51.78 57.7799 52.004 57.7479 52.204H52.6959C52.7359 52.732 52.9319 53.156 53.2839 53.476C53.6359 53.796 54.0679 53.956 54.5799 53.956C55.3159 53.956 55.8359 53.648 56.1399 53.032H57.6159C57.4159 53.64 57.0519 54.14 56.5239 54.532C56.0039 54.916 55.3559 55.108 54.5799 55.108C53.9479 55.108 53.3799 54.968 52.8759 54.688C52.3799 54.4 51.9879 54 51.6999 53.488C51.4199 52.968 51.2799 52.368 51.2799 51.688C51.2799 51.008 51.4159 50.412 51.6879 49.9C51.9679 49.38 52.3559 48.98 52.8519 48.7C53.3559 48.42 53.9319 48.28 54.5799 48.28C55.2039 48.28 55.7599 48.416 56.2479 48.688C56.7359 48.96 57.1159 49.344 57.3879 49.84C57.6599 50.328 57.7959 50.892 57.7959 51.532ZM56.3679 51.1C56.3599 50.596 56.1799 50.192 55.8279 49.888C55.4759 49.584 55.0399 49.432 54.5199 49.432C54.0479 49.432 53.6439 49.584 53.3079 49.888C52.9719 50.184 52.7719 50.588 52.7079 51.1H56.3679ZM62.4782 48.28C62.9982 48.28 63.4622 48.388 63.8702 48.604C64.2862 48.82 64.6102 49.14 64.8422 49.564C65.0742 49.988 65.1902 50.5 65.1902 51.1V55H63.8342V51.304C63.8342 50.712 63.6862 50.26 63.3902 49.948C63.0942 49.628 62.6902 49.468 62.1782 49.468C61.6662 49.468 61.2582 49.628 60.9542 49.948C60.6582 50.26 60.5102 50.712 60.5102 51.304V55H59.1422V48.388H60.5102V49.144C60.7342 48.872 61.0182 48.66 61.3622 48.508C61.7142 48.356 62.0862 48.28 62.4782 48.28Z" fill="#ADADAD"/>
</svg>
