<svg width="67" height="58" viewBox="0 0 67 58" fill="none" xmlns="http://www.w3.org/2000/svg">
<path d="M9.684 43.7284V52.0684H8.316V46.3564L5.772 52.0684H4.824L2.268 46.3564V52.0684H0.9V43.7284H2.376L5.304 50.2684L8.22 43.7284H9.684ZM17.434 45.4564L13.378 55.1764H11.962L13.306 51.9604L10.702 45.4564H12.226L14.086 50.4964L16.018 45.4564H17.434ZM27.6196 46.1284C27.4036 45.7124 27.1036 45.4004 26.7196 45.1924C26.3356 44.9764 25.8916 44.8684 25.3876 44.8684C24.8356 44.8684 24.3436 44.9924 23.9116 45.2404C23.4796 45.4884 23.1396 45.8404 22.8916 46.2964C22.6516 46.7524 22.5316 47.2804 22.5316 47.8804C22.5316 48.4804 22.6516 49.0124 22.8916 49.4764C23.1396 49.9324 23.4796 50.2844 23.9116 50.5324C24.3436 50.7804 24.8356 50.9044 25.3876 50.9044C26.1316 50.9044 26.7356 50.6964 27.1996 50.2804C27.6636 49.8644 27.9476 49.3004 28.0516 48.5884H24.9196V47.4964H29.5156V48.5644C29.4276 49.2124 29.1956 49.8084 28.8196 50.3524C28.4516 50.8964 27.9676 51.3324 27.3676 51.6604C26.7756 51.9804 26.1156 52.1404 25.3876 52.1404C24.6036 52.1404 23.8876 51.9604 23.2396 51.6004C22.5916 51.2324 22.0756 50.7244 21.6916 50.0764C21.3156 49.4284 21.1276 48.6964 21.1276 47.8804C21.1276 47.0644 21.3156 46.3324 21.6916 45.6844C22.0756 45.0364 22.5916 44.5324 23.2396 44.1724C23.8956 43.8044 24.6116 43.6204 25.3876 43.6204C26.2756 43.6204 27.0636 43.8404 27.7516 44.2804C28.4476 44.7124 28.9516 45.3284 29.2636 46.1284H27.6196ZM30.4088 48.7324C30.4088 48.0684 30.5448 47.4804 30.8168 46.9684C31.0968 46.4564 31.4728 46.0604 31.9448 45.7804C32.4248 45.4924 32.9528 45.3484 33.5288 45.3484C34.0488 45.3484 34.5008 45.4524 34.8848 45.6604C35.2768 45.8604 35.5888 46.1124 35.8208 46.4164V45.4564H37.2008V52.0684H35.8208V51.0844C35.5888 51.3964 35.2728 51.6564 34.8728 51.8644C34.4728 52.0724 34.0168 52.1764 33.5048 52.1764C32.9368 52.1764 32.4168 52.0324 31.9448 51.7444C31.4728 51.4484 31.0968 51.0404 30.8168 50.5204C30.5448 49.9924 30.4088 49.3964 30.4088 48.7324ZM35.8208 48.7564C35.8208 48.3004 35.7248 47.9044 35.5328 47.5684C35.3488 47.2324 35.1048 46.9764 34.8008 46.8004C34.4968 46.6244 34.1688 46.5364 33.8168 46.5364C33.4648 46.5364 33.1368 46.6244 32.8328 46.8004C32.5288 46.9684 32.2808 47.2204 32.0888 47.5564C31.9048 47.8844 31.8128 48.2764 31.8128 48.7324C31.8128 49.1884 31.9048 49.5884 32.0888 49.9324C32.2808 50.2764 32.5288 50.5404 32.8328 50.7244C33.1448 50.9004 33.4728 50.9884 33.8168 50.9884C34.1688 50.9884 34.4968 50.9004 34.8008 50.7244C35.1048 50.5484 35.3488 50.2924 35.5328 49.9564C35.7248 49.6124 35.8208 49.2124 35.8208 48.7564ZM40.3657 46.4164C40.5657 46.0804 40.8297 45.8204 41.1577 45.6364C41.4937 45.4444 41.8897 45.3484 42.3457 45.3484V46.7644H41.9977C41.4617 46.7644 41.0537 46.9004 40.7737 47.1724C40.5017 47.4444 40.3657 47.9164 40.3657 48.5884V52.0684H38.9977V45.4564H40.3657V46.4164ZM43.1471 48.7324C43.1471 48.0684 43.2831 47.4804 43.5551 46.9684C43.8351 46.4564 44.2111 46.0604 44.6831 45.7804C45.1631 45.4924 45.6951 45.3484 46.2791 45.3484C46.7111 45.3484 47.1351 45.4444 47.5511 45.6364C47.9751 45.8204 48.3111 46.0684 48.5591 46.3804V43.1884H49.9391V52.0684H48.5591V51.0724C48.3351 51.3924 48.0231 51.6564 47.6231 51.8644C47.2311 52.0724 46.7791 52.1764 46.2671 52.1764C45.6911 52.1764 45.1631 52.0324 44.6831 51.7444C44.2111 51.4484 43.8351 51.0404 43.5551 50.5204C43.2831 49.9924 43.1471 49.3964 43.1471 48.7324ZM48.5591 48.7564C48.5591 48.3004 48.4631 47.9044 48.2711 47.5684C48.0871 47.2324 47.8431 46.9764 47.5391 46.8004C47.2351 46.6244 46.9071 46.5364 46.5551 46.5364C46.2031 46.5364 45.8751 46.6244 45.5711 46.8004C45.2671 46.9684 45.0191 47.2204 44.8271 47.5564C44.6431 47.8844 44.5511 48.2764 44.5511 48.7324C44.5511 49.1884 44.6431 49.5884 44.8271 49.9324C45.0191 50.2764 45.2671 50.5404 45.5711 50.7244C45.8831 50.9004 46.2111 50.9884 46.5551 50.9884C46.9071 50.9884 47.2351 50.9004 47.5391 50.7244C47.8431 50.5484 48.0871 50.2924 48.2711 49.9564C48.4631 49.6124 48.5591 49.2124 48.5591 48.7564ZM57.7959 48.6004C57.7959 48.8484 57.7799 49.0724 57.7479 49.2724H52.6959C52.7359 49.8004 52.9319 50.2244 53.2839 50.5444C53.6359 50.8644 54.0679 51.0244 54.5799 51.0244C55.3159 51.0244 55.8359 50.7164 56.1399 50.1004H57.6159C57.4159 50.7084 57.0519 51.2084 56.5239 51.6004C56.0039 51.9844 55.3559 52.1764 54.5799 52.1764C53.9479 52.1764 53.3799 52.0364 52.8759 51.7564C52.3799 51.4684 51.9879 51.0684 51.6999 50.5564C51.4199 50.0364 51.2799 49.4364 51.2799 48.7564C51.2799 48.0764 51.4159 47.4804 51.6879 46.9684C51.9679 46.4484 52.3559 46.0484 52.8519 45.7684C53.3559 45.4884 53.9319 45.3484 54.5799 45.3484C55.2039 45.3484 55.7599 45.4844 56.2479 45.7564C56.7359 46.0284 57.1159 46.4124 57.3879 46.9084C57.6599 47.3964 57.7959 47.9604 57.7959 48.6004ZM56.3679 48.1684C56.3599 47.6644 56.1799 47.2604 55.8279 46.9564C55.4759 46.6524 55.0399 46.5004 54.5199 46.5004C54.0479 46.5004 53.6439 46.6524 53.3079 46.9564C52.9719 47.2524 52.7719 47.6564 52.7079 48.1684H56.3679ZM62.4782 45.3484C62.9982 45.3484 63.4622 45.4564 63.8702 45.6724C64.2862 45.8884 64.6102 46.2084 64.8422 46.6324C65.0742 47.0564 65.1902 47.5684 65.1902 48.1684V52.0684H63.8342V48.3724C63.8342 47.7804 63.6862 47.3284 63.3902 47.0164C63.0942 46.6964 62.6902 46.5364 62.1782 46.5364C61.6662 46.5364 61.2582 46.6964 60.9542 47.0164C60.6582 47.3284 60.5102 47.7804 60.5102 48.3724V52.0684H59.1422V45.4564H60.5102V46.2124C60.7342 45.9404 61.0182 45.7284 61.3622 45.5764C61.7142 45.4244 62.0862 45.3484 62.4782 45.3484Z" fill="#14171F"/>
<path d="M52.939 0.991413C52.9245 0.749398 52.8218 0.521089 52.6503 0.349651C52.4789 0.178213 52.2506 0.0755285 52.0086 0.0610124C43.5804 -0.43476 36.8247 2.11351 33.9377 6.87954C32.0157 10.0541 32.057 13.9327 34.0253 17.6213C32.7633 19.066 31.8837 20.8041 31.4671 22.6765L28.195 19.4028C29.5418 16.7421 29.5336 13.9575 28.1421 11.6604C26.0251 8.16525 21.1054 6.29122 14.9744 6.65479C14.7321 6.66935 14.5035 6.77226 14.3321 6.94405C14.1606 7.11583 14.0581 7.34454 14.044 7.58684C13.6837 13.7162 15.5544 18.636 19.0496 20.7529C20.1879 21.4486 21.4966 21.8158 22.8307 21.8139C24.2123 21.7998 25.5712 21.4601 26.7969 20.8223L31.1861 25.1983V30.0767C31.1861 30.3397 31.2906 30.5919 31.4765 30.7779C31.6625 30.9638 31.9147 31.0683 32.1777 31.0683C32.4406 31.0683 32.6929 30.9638 32.8788 30.7779C33.0648 30.5919 33.1692 30.3397 33.1692 30.0767V25.2033C33.1626 22.9318 33.9692 20.7329 35.4432 19.0045C37.2957 19.9845 39.1978 20.4769 41.0322 20.4769C42.8264 20.4828 44.5873 19.9927 46.1205 19.0607C50.8865 16.1769 53.4348 9.41955 52.939 0.991413ZM20.0775 19.0557C17.3822 17.4246 15.8816 13.551 15.9824 8.59326C20.9402 8.48585 24.8088 9.98804 26.4399 12.6834C27.3786 14.2319 27.4579 16.0513 26.6944 17.9039L24.5243 15.4126C24.3383 15.2266 24.0859 15.122 23.8228 15.122C23.5597 15.122 23.3073 15.2266 23.1213 15.4126C22.9352 15.5987 22.8307 15.851 22.8307 16.1141C22.8307 16.3773 22.9352 16.6296 23.1213 16.8157L25.298 19.3102C23.4455 20.0737 21.626 19.996 20.0775 19.0557ZM45.0942 17.3668C42.6583 18.8409 39.7828 18.8839 36.8859 17.5155L41.0011 12.8109C41.0933 12.7188 41.1663 12.6094 41.2162 12.4891C41.2661 12.3687 41.2917 12.2397 41.2917 12.1094C41.2917 11.9791 41.2661 11.8501 41.2162 11.7297C41.1663 11.6094 41.0933 11.5 41.0011 11.4079C40.909 11.3158 40.7996 11.2427 40.6793 11.1928C40.5589 11.143 40.4299 11.1173 40.2996 11.1173C40.1693 11.1173 40.0403 11.143 39.92 11.1928C39.7996 11.2427 39.6902 11.3158 39.5981 11.4079L35.4828 16.1141C34.1145 13.2172 34.1608 10.3417 35.6316 7.90744C38.0311 3.94126 43.7391 1.76317 51.0005 1.99948C51.2368 9.25429 49.0571 14.9656 45.0942 17.3668Z" fill="#14171F"/>
</svg>
