<svg width="67" height="61" viewBox="0 0 67 61" fill="none" xmlns="http://www.w3.org/2000/svg">
<path d="M53.939 1.99141C53.9245 1.7494 53.8218 1.52109 53.6503 1.34965C53.4789 1.17821 53.2506 1.07553 53.0086 1.06101C44.5804 0.56524 37.8247 3.11351 34.9377 7.87954C33.0157 11.0541 33.057 14.9327 35.0253 18.6213C33.7633 20.066 32.8837 21.8041 32.4671 23.6765L29.195 20.4028C30.5418 17.7421 30.5336 14.9575 29.1421 12.6604C27.0251 9.16525 22.1054 7.29122 15.9744 7.65479C15.7321 7.66935 15.5035 7.77226 15.3321 7.94405C15.1606 8.11583 15.0581 8.34454 15.044 8.58684C14.6837 14.7162 16.5544 19.636 20.0496 21.7529C21.1879 22.4486 22.4966 22.8158 23.8307 22.8139C25.2123 22.7998 26.5712 22.4601 27.7969 21.8223L32.1861 26.1983V31.0767C32.1861 31.3397 32.2906 31.5919 32.4765 31.7779C32.6625 31.9638 32.9147 32.0683 33.1777 32.0683C33.4406 32.0683 33.6929 31.9638 33.8788 31.7779C34.0648 31.5919 34.1692 31.3397 34.1692 31.0767V26.2033C34.1626 23.9318 34.9692 21.7329 36.4432 20.0045C38.2957 20.9845 40.1978 21.4769 42.0322 21.4769C43.8264 21.4828 45.5873 20.9927 47.1205 20.0607C51.8865 17.1769 54.4348 10.4196 53.939 1.99141ZM21.0775 20.0557C18.3822 18.4246 16.8816 14.551 16.9824 9.59326C21.9402 9.48585 25.8088 10.988 27.4399 13.6834C28.3786 15.2319 28.4579 17.0513 27.6944 18.9039L25.5243 16.4126C25.3383 16.2266 25.0859 16.122 24.8228 16.122C24.5597 16.122 24.3073 16.2266 24.1213 16.4126C23.9352 16.5987 23.8307 16.851 23.8307 17.1141C23.8307 17.3773 23.9352 17.6296 24.1213 17.8157L26.298 20.3102C24.4455 21.0737 22.626 20.996 21.0775 20.0557ZM46.0942 18.3668C43.6583 19.8409 40.7828 19.8839 37.8859 18.5155L42.0011 13.8109C42.0933 13.7188 42.1663 13.6094 42.2162 13.4891C42.2661 13.3687 42.2917 13.2397 42.2917 13.1094C42.2917 12.9791 42.2661 12.8501 42.2162 12.7297C42.1663 12.6094 42.0933 12.5 42.0011 12.4079C41.909 12.3158 41.7996 12.2427 41.6793 12.1928C41.5589 12.143 41.4299 12.1173 41.2996 12.1173C41.1693 12.1173 41.0403 12.143 40.92 12.1928C40.7996 12.2427 40.6902 12.3158 40.5981 12.4079L36.4828 17.1141C35.1145 14.2172 35.1608 11.3417 36.6316 8.90744C39.0311 4.94126 44.7391 2.76317 52.0005 2.99948C52.2368 10.2543 50.0571 15.9656 46.0942 18.3668Z" fill="#4267FA" stroke="#4267FA" stroke-width="0.5"/>
<path d="M9.96 47.624V56H8.28V50.552L6.036 56H4.764L2.508 50.552V56H0.828V47.624H2.736L5.4 53.852L8.064 47.624H9.96ZM17.981 49.352L13.865 59.144H12.077L13.517 55.832L10.853 49.352H12.737L14.453 53.996L16.193 49.352H17.981ZM27.578 50.144C27.386 49.792 27.122 49.524 26.786 49.34C26.45 49.156 26.058 49.064 25.61 49.064C25.114 49.064 24.674 49.176 24.29 49.4C23.906 49.624 23.606 49.944 23.39 50.36C23.174 50.776 23.066 51.256 23.066 51.8C23.066 52.36 23.174 52.848 23.39 53.264C23.614 53.68 23.922 54 24.314 54.224C24.706 54.448 25.162 54.56 25.682 54.56C26.322 54.56 26.846 54.392 27.254 54.056C27.662 53.712 27.93 53.236 28.058 52.628H25.178V51.344H29.714V52.808C29.602 53.392 29.362 53.932 28.994 54.428C28.626 54.924 28.15 55.324 27.566 55.628C26.99 55.924 26.342 56.072 25.622 56.072C24.814 56.072 24.082 55.892 23.426 55.532C22.778 55.164 22.266 54.656 21.89 54.008C21.522 53.36 21.338 52.624 21.338 51.8C21.338 50.976 21.522 50.24 21.89 49.592C22.266 48.936 22.778 48.428 23.426 48.068C24.082 47.7 24.81 47.516 25.61 47.516C26.554 47.516 27.374 47.748 28.07 48.212C28.766 48.668 29.246 49.312 29.51 50.144H27.578ZM30.5249 52.652C30.5249 51.98 30.6569 51.384 30.9209 50.864C31.1929 50.344 31.5569 49.944 32.0129 49.664C32.4769 49.384 32.9929 49.244 33.5609 49.244C34.0569 49.244 34.4889 49.344 34.8569 49.544C35.2329 49.744 35.5329 49.996 35.7569 50.3V49.352H37.4489V56H35.7569V55.028C35.5409 55.34 35.2409 55.6 34.8569 55.808C34.4809 56.008 34.0449 56.108 33.5489 56.108C32.9889 56.108 32.4769 55.964 32.0129 55.676C31.5569 55.388 31.1929 54.984 30.9209 54.464C30.6569 53.936 30.5249 53.332 30.5249 52.652ZM35.7569 52.676C35.7569 52.268 35.6769 51.92 35.5169 51.632C35.3569 51.336 35.1409 51.112 34.8689 50.96C34.5969 50.8 34.3049 50.72 33.9929 50.72C33.6809 50.72 33.3929 50.796 33.1289 50.948C32.8649 51.1 32.6489 51.324 32.4809 51.62C32.3209 51.908 32.2409 52.252 32.2409 52.652C32.2409 53.052 32.3209 53.404 32.4809 53.708C32.6489 54.004 32.8649 54.232 33.1289 54.392C33.4009 54.552 33.6889 54.632 33.9929 54.632C34.3049 54.632 34.5969 54.556 34.8689 54.404C35.1409 54.244 35.3569 54.02 35.5169 53.732C35.6769 53.436 35.7569 53.084 35.7569 52.676ZM40.7697 50.384C40.9857 50.032 41.2657 49.756 41.6097 49.556C41.9617 49.356 42.3617 49.256 42.8097 49.256V51.02H42.3657C41.8377 51.02 41.4377 51.144 41.1657 51.392C40.9017 51.64 40.7697 52.072 40.7697 52.688V56H39.0897V49.352H40.7697V50.384ZM43.5093 52.652C43.5093 51.98 43.6413 51.384 43.9053 50.864C44.1773 50.344 44.5453 49.944 45.0093 49.664C45.4733 49.384 45.9893 49.244 46.5573 49.244C46.9893 49.244 47.4013 49.34 47.7933 49.532C48.1853 49.716 48.4973 49.964 48.7293 50.276V47.12H50.4333V56H48.7293V55.016C48.5213 55.344 48.2293 55.608 47.8533 55.808C47.4773 56.008 47.0413 56.108 46.5453 56.108C45.9853 56.108 45.4733 55.964 45.0093 55.676C44.5453 55.388 44.1773 54.984 43.9053 54.464C43.6413 53.936 43.5093 53.332 43.5093 52.652ZM48.7413 52.676C48.7413 52.268 48.6613 51.92 48.5013 51.632C48.3413 51.336 48.1253 51.112 47.8533 50.96C47.5813 50.8 47.2893 50.72 46.9773 50.72C46.6653 50.72 46.3773 50.796 46.1133 50.948C45.8493 51.1 45.6333 51.324 45.4653 51.62C45.3053 51.908 45.2253 52.252 45.2253 52.652C45.2253 53.052 45.3053 53.404 45.4653 53.708C45.6333 54.004 45.8493 54.232 46.1133 54.392C46.3853 54.552 46.6733 54.632 46.9773 54.632C47.2893 54.632 47.5813 54.556 47.8533 54.404C48.1253 54.244 48.3413 54.02 48.5013 53.732C48.6613 53.436 48.7413 53.084 48.7413 52.676ZM58.2541 52.532C58.2541 52.772 58.2381 52.988 58.2061 53.18H53.3461C53.3861 53.66 53.5541 54.036 53.8501 54.308C54.1461 54.58 54.5101 54.716 54.9421 54.716C55.5661 54.716 56.0101 54.448 56.2741 53.912H58.0861C57.8941 54.552 57.5261 55.08 56.9821 55.496C56.4381 55.904 55.7701 56.108 54.9781 56.108C54.3381 56.108 53.7621 55.968 53.2501 55.688C52.7461 55.4 52.3501 54.996 52.0621 54.476C51.7821 53.956 51.6421 53.356 51.6421 52.676C51.6421 51.988 51.7821 51.384 52.0621 50.864C52.3421 50.344 52.7341 49.944 53.2381 49.664C53.7421 49.384 54.3221 49.244 54.9781 49.244C55.6101 49.244 56.1741 49.38 56.6701 49.652C57.1741 49.924 57.5621 50.312 57.8341 50.816C58.1141 51.312 58.2541 51.884 58.2541 52.532ZM56.5141 52.052C56.5061 51.62 56.3501 51.276 56.0461 51.02C55.7421 50.756 55.3701 50.624 54.9301 50.624C54.5141 50.624 54.1621 50.752 53.8741 51.008C53.5941 51.256 53.4221 51.604 53.3581 52.052H56.5141ZM63.1643 49.256C63.9563 49.256 64.5963 49.508 65.0843 50.012C65.5723 50.508 65.8163 51.204 65.8163 52.1V56H64.1363V52.328C64.1363 51.8 64.0043 51.396 63.7403 51.116C63.4763 50.828 63.1163 50.684 62.6603 50.684C62.1963 50.684 61.8283 50.828 61.5563 51.116C61.2923 51.396 61.1603 51.8 61.1603 52.328V56H59.4803V49.352H61.1603V50.18C61.3843 49.892 61.6683 49.668 62.0123 49.508C62.3643 49.34 62.7483 49.256 63.1643 49.256Z" fill="#4267FA"/>
</svg>
