<svg width="52" height="60" viewBox="0 0 52 60" fill="none" xmlns="http://www.w3.org/2000/svg">
<path d="M12.5898 12.9504L10.1297 13.8525C9.06101 14.2443 9.06101 15.7557 10.1297 16.1475L12.5898 17.0496C14.6135 17.7916 16.2084 19.3865 16.9504 21.4102L17.8525 23.8703C18.2443 24.939 19.7557 24.939 20.1475 23.8703L21.0496 21.4102C21.7916 19.3865 23.3865 17.7916 25.4102 17.0496L27.8703 16.1475C28.939 15.7557 28.939 14.2443 27.8703 13.8525L25.4102 12.9504C23.3865 12.2084 21.7916 10.6135 21.0496 8.58976L20.1475 6.12966C19.7557 5.06101 18.2443 5.06101 17.8525 6.12966L16.9504 8.58976C16.2084 10.6135 14.6135 12.2084 12.5898 12.9504Z" fill="#4267FA"/>
<path d="M29.2607 24.8044L27.8256 25.3306C27.2023 25.5592 27.2023 26.4408 27.8256 26.6694L29.2607 27.1956C30.4412 27.6285 31.3715 28.5588 31.8044 29.7393L32.3306 31.1744C32.5592 31.7977 33.4408 31.7977 33.6694 31.1744L34.1956 29.7393C34.6285 28.5588 35.5588 27.6285 36.7393 27.1956L38.1744 26.6694C38.7977 26.4408 38.7977 25.5592 38.1744 25.3306L36.7393 24.8044C35.5588 24.3715 34.6284 23.4412 34.1956 22.2607L33.6694 20.8256C33.4408 20.2023 32.5592 20.2023 32.3306 20.8256L31.8044 22.2607C31.3715 23.4412 30.4412 24.3715 29.2607 24.8044Z" fill="#4267FA"/>
<path d="M27.5475 3.60041L26.637 3.92894C26.2583 4.06561 26.2583 4.60122 26.637 4.73789L27.5475 5.06642C28.4598 5.39562 29.1811 6.1095 29.5197 7.01836L29.8551 7.91859C29.9941 8.29176 30.522 8.29176 30.661 7.91859L30.9964 7.01836C31.335 6.1095 32.0563 5.39562 32.9686 5.06642L33.8791 4.73789C34.2578 4.60122 34.2578 4.06561 33.8791 3.92894L32.9686 3.60041C32.0563 3.2712 31.335 2.55733 30.9964 1.64846L30.661 0.748235C30.522 0.375073 29.9941 0.375073 29.8551 0.748236L29.5197 1.64847C29.1811 2.55733 28.4598 3.2712 27.5475 3.60041Z" fill="#4267FA"/>
<path d="M6.936 49.216C6.936 49.664 6.828 50.084 6.612 50.476C6.404 50.868 6.072 51.184 5.616 51.424C5.168 51.664 4.6 51.784 3.912 51.784H2.508V55H0.828V46.624H3.912C4.56 46.624 5.112 46.736 5.568 46.96C6.024 47.184 6.364 47.492 6.588 47.884C6.82 48.276 6.936 48.72 6.936 49.216ZM3.84 50.428C4.304 50.428 4.648 50.324 4.872 50.116C5.096 49.9 5.208 49.6 5.208 49.216C5.208 48.4 4.752 47.992 3.84 47.992H2.508V50.428H3.84ZM9.80878 46.12V55H8.12878V46.12H9.80878ZM11.0366 51.652C11.0366 50.98 11.1686 50.384 11.4326 49.864C11.7046 49.344 12.0686 48.944 12.5246 48.664C12.9886 48.384 13.5046 48.244 14.0726 48.244C14.5686 48.244 15.0006 48.344 15.3686 48.544C15.7446 48.744 16.0446 48.996 16.2686 49.3V48.352H17.9606V55H16.2686V54.028C16.0526 54.34 15.7526 54.6 15.3686 54.808C14.9926 55.008 14.5566 55.108 14.0606 55.108C13.5006 55.108 12.9886 54.964 12.5246 54.676C12.0686 54.388 11.7046 53.984 11.4326 53.464C11.1686 52.936 11.0366 52.332 11.0366 51.652ZM16.2686 51.676C16.2686 51.268 16.1886 50.92 16.0286 50.632C15.8686 50.336 15.6526 50.112 15.3806 49.96C15.1086 49.8 14.8166 49.72 14.5046 49.72C14.1926 49.72 13.9046 49.796 13.6406 49.948C13.3766 50.1 13.1606 50.324 12.9926 50.62C12.8326 50.908 12.7526 51.252 12.7526 51.652C12.7526 52.052 12.8326 52.404 12.9926 52.708C13.1606 53.004 13.3766 53.232 13.6406 53.392C13.9126 53.552 14.2006 53.632 14.5046 53.632C14.8166 53.632 15.1086 53.556 15.3806 53.404C15.6526 53.244 15.8686 53.02 16.0286 52.732C16.1886 52.436 16.2686 52.084 16.2686 51.676ZM23.2854 48.256C24.0774 48.256 24.7174 48.508 25.2054 49.012C25.6934 49.508 25.9374 50.204 25.9374 51.1V55H24.2574V51.328C24.2574 50.8 24.1254 50.396 23.8614 50.116C23.5974 49.828 23.2374 49.684 22.7814 49.684C22.3174 49.684 21.9494 49.828 21.6774 50.116C21.4134 50.396 21.2814 50.8 21.2814 51.328V55H19.6014V48.352H21.2814V49.18C21.5054 48.892 21.7894 48.668 22.1334 48.508C22.4854 48.34 22.8694 48.256 23.2854 48.256ZM29.491 49.732V52.948C29.491 53.172 29.543 53.336 29.647 53.44C29.759 53.536 29.943 53.584 30.199 53.584H30.979V55H29.923C28.507 55 27.799 54.312 27.799 52.936V49.732H27.007V48.352H27.799V46.708H29.491V48.352H30.979V49.732H29.491ZM37.3234 53.404H33.9874L33.4354 55H31.6714L34.6834 46.612H36.6394L39.6514 55H37.8754L37.3234 53.404ZM36.8674 52.06L35.6554 48.556L34.4434 52.06H36.8674ZM41.6292 47.56C41.3332 47.56 41.0852 47.468 40.8852 47.284C40.6932 47.092 40.5972 46.856 40.5972 46.576C40.5972 46.296 40.6932 46.064 40.8852 45.88C41.0852 45.688 41.3332 45.592 41.6292 45.592C41.9252 45.592 42.1692 45.688 42.3612 45.88C42.5612 46.064 42.6612 46.296 42.6612 46.576C42.6612 46.856 42.5612 47.092 42.3612 47.284C42.1692 47.468 41.9252 47.56 41.6292 47.56ZM42.4572 48.352V55H40.7772V48.352H42.4572ZM43.6851 51.652C43.6851 50.98 43.8171 50.384 44.0811 49.864C44.3531 49.344 44.7211 48.944 45.1851 48.664C45.6491 48.384 46.1651 48.244 46.7331 48.244C47.1651 48.244 47.5771 48.34 47.9691 48.532C48.3611 48.716 48.6731 48.964 48.9051 49.276V46.12H50.6091V55H48.9051V54.016C48.6971 54.344 48.4051 54.608 48.0291 54.808C47.6531 55.008 47.2171 55.108 46.7211 55.108C46.1611 55.108 45.6491 54.964 45.1851 54.676C44.7211 54.388 44.3531 53.984 44.0811 53.464C43.8171 52.936 43.6851 52.332 43.6851 51.652ZM48.9171 51.676C48.9171 51.268 48.8371 50.92 48.6771 50.632C48.5171 50.336 48.3011 50.112 48.0291 49.96C47.7571 49.8 47.4651 49.72 47.1531 49.72C46.8411 49.72 46.5531 49.796 46.2891 49.948C46.0251 50.1 45.8091 50.324 45.6411 50.62C45.4811 50.908 45.4011 51.252 45.4011 51.652C45.4011 52.052 45.4811 52.404 45.6411 52.708C45.8091 53.004 46.0251 53.232 46.2891 53.392C46.5611 53.552 46.8491 53.632 47.1531 53.632C47.4651 53.632 47.7571 53.556 48.0291 53.404C48.3011 53.244 48.5171 53.02 48.6771 52.732C48.8371 52.436 48.9171 52.084 48.9171 51.676Z" fill="#4267FA"/>
</svg>
