<svg width="51" height="60" viewBox="0 0 51 60" fill="none" xmlns="http://www.w3.org/2000/svg">
<path d="M14.5898 12.9504L12.1297 13.8525C11.061 14.2443 11.061 15.7557 12.1297 16.1475L14.5898 17.0496C16.6135 17.7916 18.2084 19.3865 18.9504 21.4102L19.8525 23.8703C20.2443 24.939 21.7557 24.939 22.1475 23.8703L23.0496 21.4102C23.7916 19.3865 25.3865 17.7916 27.4102 17.0496L29.8703 16.1475C30.939 15.7557 30.939 14.2443 29.8703 13.8525L27.4102 12.9504C25.3865 12.2084 23.7916 10.6135 23.0496 8.58976L22.1475 6.12966C21.7557 5.06101 20.2443 5.06101 19.8525 6.12966L18.9504 8.58976C18.2084 10.6135 16.6135 12.2084 14.5898 12.9504Z" fill="#E4E4E4"/>
<path d="M31.2607 24.8044L29.8256 25.3306C29.2023 25.5592 29.2023 26.4408 29.8256 26.6694L31.2607 27.1956C32.4412 27.6285 33.3715 28.5588 33.8044 29.7393L34.3306 31.1744C34.5592 31.7977 35.4408 31.7977 35.6694 31.1744L36.1956 29.7393C36.6285 28.5588 37.5588 27.6285 38.7393 27.1956L40.1744 26.6694C40.7977 26.4408 40.7977 25.5592 40.1744 25.3306L38.7393 24.8044C37.5588 24.3715 36.6284 23.4412 36.1956 22.2607L35.6694 20.8256C35.4408 20.2023 34.5592 20.2023 34.3306 20.8256L33.8044 22.2607C33.3715 23.4412 32.4412 24.3715 31.2607 24.8044Z" fill="#E4E4E4"/>
<path d="M29.5475 3.60041L28.637 3.92894C28.2583 4.06561 28.2583 4.60122 28.637 4.73789L29.5475 5.06642C30.4598 5.39562 31.1811 6.1095 31.5197 7.01836L31.8551 7.91859C31.9941 8.29176 32.522 8.29176 32.661 7.91859L32.9964 7.01836C33.335 6.1095 34.0563 5.39562 34.9686 5.06642L35.8791 4.73789C36.2578 4.60122 36.2578 4.06561 35.8791 3.92894L34.9686 3.60041C34.0563 3.2712 33.335 2.55733 32.9964 1.64846L32.661 0.748235C32.522 0.375073 31.9941 0.375073 31.8551 0.748236L31.5197 1.64847C31.1811 2.55733 30.4598 3.2712 29.5475 3.60041Z" fill="#E4E4E4"/>
<path d="M6.732 49.144C6.732 49.568 6.632 49.968 6.432 50.344C6.232 50.72 5.912 51.028 5.472 51.268C5.032 51.5 4.468 51.616 3.78 51.616H2.268V55H0.9V46.66H3.78C4.42 46.66 4.96 46.772 5.4 46.996C5.848 47.212 6.18 47.508 6.396 47.884C6.62 48.26 6.732 48.68 6.732 49.144ZM3.78 50.5C4.3 50.5 4.688 50.384 4.944 50.152C5.2 49.912 5.328 49.576 5.328 49.144C5.328 48.232 4.812 47.776 3.78 47.776H2.268V50.5H3.78ZM9.40472 46.12V55H8.03672V46.12H9.40472ZM10.7448 51.664C10.7448 51 10.8808 50.412 11.1528 49.9C11.4328 49.388 11.8088 48.992 12.2808 48.712C12.7608 48.424 13.2888 48.28 13.8648 48.28C14.3848 48.28 14.8368 48.384 15.2208 48.592C15.6128 48.792 15.9248 49.044 16.1568 49.348V48.388H17.5368V55H16.1568V54.016C15.9248 54.328 15.6088 54.588 15.2088 54.796C14.8088 55.004 14.3528 55.108 13.8408 55.108C13.2728 55.108 12.7528 54.964 12.2808 54.676C11.8088 54.38 11.4328 53.972 11.1528 53.452C10.8808 52.924 10.7448 52.328 10.7448 51.664ZM16.1568 51.688C16.1568 51.232 16.0608 50.836 15.8688 50.5C15.6848 50.164 15.4408 49.908 15.1368 49.732C14.8328 49.556 14.5048 49.468 14.1528 49.468C13.8008 49.468 13.4728 49.556 13.1688 49.732C12.8648 49.9 12.6168 50.152 12.4248 50.488C12.2408 50.816 12.1488 51.208 12.1488 51.664C12.1488 52.12 12.2408 52.52 12.4248 52.864C12.6168 53.208 12.8648 53.472 13.1688 53.656C13.4808 53.832 13.8088 53.92 14.1528 53.92C14.5048 53.92 14.8328 53.832 15.1368 53.656C15.4408 53.48 15.6848 53.224 15.8688 52.888C16.0608 52.544 16.1568 52.144 16.1568 51.688ZM22.6696 48.28C23.1896 48.28 23.6536 48.388 24.0616 48.604C24.4776 48.82 24.8016 49.14 25.0336 49.564C25.2656 49.988 25.3816 50.5 25.3816 51.1V55H24.0256V51.304C24.0256 50.712 23.8776 50.26 23.5816 49.948C23.2856 49.628 22.8816 49.468 22.3696 49.468C21.8576 49.468 21.4496 49.628 21.1456 49.948C20.8496 50.26 20.7016 50.712 20.7016 51.304V55H19.3336V48.388H20.7016V49.144C20.9256 48.872 21.2096 48.66 21.5536 48.508C21.9056 48.356 22.2776 48.28 22.6696 48.28ZM28.7226 49.504V53.164C28.7226 53.412 28.7786 53.592 28.8906 53.704C29.0106 53.808 29.2106 53.86 29.4906 53.86H30.3306V55H29.2506C28.6346 55 28.1626 54.856 27.8346 54.568C27.5066 54.28 27.3426 53.812 27.3426 53.164V49.504H26.5626V48.388H27.3426V46.744H28.7226V48.388H30.3306V49.504H28.7226ZM36.6194 53.296H33.1274L32.5274 55H31.0994L34.0874 46.648H35.6714L38.6594 55H37.2194L36.6194 53.296ZM36.2354 52.18L34.8794 48.304L33.5114 52.18H36.2354ZM40.6546 47.512C40.4066 47.512 40.1986 47.428 40.0306 47.26C39.8626 47.092 39.7786 46.884 39.7786 46.636C39.7786 46.388 39.8626 46.18 40.0306 46.012C40.1986 45.844 40.4066 45.76 40.6546 45.76C40.8946 45.76 41.0986 45.844 41.2666 46.012C41.4346 46.18 41.5186 46.388 41.5186 46.636C41.5186 46.884 41.4346 47.092 41.2666 47.26C41.0986 47.428 40.8946 47.512 40.6546 47.512ZM41.3266 48.388V55H39.9586V48.388H41.3266ZM42.6667 51.664C42.6667 51 42.8027 50.412 43.0747 49.9C43.3547 49.388 43.7307 48.992 44.2027 48.712C44.6827 48.424 45.2147 48.28 45.7987 48.28C46.2307 48.28 46.6547 48.376 47.0707 48.568C47.4947 48.752 47.8307 49 48.0787 49.312V46.12H49.4587V55H48.0787V54.004C47.8547 54.324 47.5427 54.588 47.1427 54.796C46.7507 55.004 46.2987 55.108 45.7867 55.108C45.2107 55.108 44.6827 54.964 44.2027 54.676C43.7307 54.38 43.3547 53.972 43.0747 53.452C42.8027 52.924 42.6667 52.328 42.6667 51.664ZM48.0787 51.688C48.0787 51.232 47.9827 50.836 47.7907 50.5C47.6067 50.164 47.3627 49.908 47.0587 49.732C46.7547 49.556 46.4267 49.468 46.0747 49.468C45.7227 49.468 45.3947 49.556 45.0907 49.732C44.7867 49.9 44.5387 50.152 44.3467 50.488C44.1627 50.816 44.0707 51.208 44.0707 51.664C44.0707 52.12 44.1627 52.52 44.3467 52.864C44.5387 53.208 44.7867 53.472 45.0907 53.656C45.4027 53.832 45.7307 53.92 46.0747 53.92C46.4267 53.92 46.7547 53.832 47.0587 53.656C47.3627 53.48 47.6067 53.224 47.7907 52.888C47.9827 52.544 48.0787 52.144 48.0787 51.688Z" fill="#ADADAD"/>
</svg>
