<svg width="30" height="30" viewBox="0 0 30 30" fill="none" xmlns="http://www.w3.org/2000/svg">
<circle cx="15" cy="15" r="15" fill="#169F91"/>
<g clip-path="url(#clip0_1776_4215)">
<path d="M21.9768 13.2738L15.0001 6.33325L8.02344 13.2738C7.94113 13.3365 7.87324 13.4161 7.82438 13.5073C7.77552 13.5985 7.74682 13.6992 7.74024 13.8024C7.73365 13.9057 7.74932 14.0091 7.7862 14.1058C7.82307 14.2025 7.88028 14.2901 7.95396 14.3627C8.02764 14.4354 8.11607 14.4913 8.21326 14.5268C8.31044 14.5623 8.41412 14.5765 8.51727 14.5684C8.62042 14.5604 8.72063 14.5302 8.81112 14.4801C8.90161 14.4299 8.98027 14.3609 9.04177 14.2777L14.2779 9.08492V22.901C14.2779 23.0926 14.354 23.2763 14.4894 23.4117C14.6249 23.5472 14.8086 23.6233 15.0001 23.6233C15.1917 23.6233 15.3754 23.5472 15.5108 23.4117C15.6462 23.2763 15.7223 23.0926 15.7223 22.901V9.08492L20.9584 14.2777C21.0944 14.4127 21.2785 14.4882 21.4702 14.4875C21.6618 14.4869 21.8453 14.4101 21.9804 14.2741C22.1154 14.1381 22.1909 13.954 22.1902 13.7624C22.1896 13.5707 22.1128 13.3872 21.9768 13.2521V13.2738Z" fill="white"/>
</g>
<defs>
<clipPath id="clip0_1776_4215">
<rect width="26" height="26" fill="white" transform="translate(2 2)"/>
</clipPath>
</defs>
</svg>
